<mxfile host="app.diagrams.net" modified="2023-11-02T00:08:53.988Z" agent="Mozilla/5.0 (X11; Linux x86_64) AppleWebKit/537.36 (KHTML, like Gecko) Chrome/112.0.0.0 YaBrowser/23.5.4.685 Yowser/2.5 Safari/537.36" etag="hWsawXDMwaH8hcUxgzp7" version="22.0.8" type="github" pages="4">
  <diagram name="Main" id="Main">
    <mxGraphModel dx="1798" dy="1038" grid="1" gridSize="10" guides="1" tooltips="1" connect="1" arrows="1" fold="1" page="1" pageScale="1" pageWidth="827" pageHeight="1169" math="0" shadow="0">
      <root>
        <mxCell id="0" />
        <mxCell id="1" parent="0" />
        <UserObject label="" tags="Фон" id="2">
          <mxCell style="vsdxID=1;fillColor=none;gradientColor=none;strokeColor=none;spacingTop=-1;spacingBottom=-1;spacingLeft=-1;spacingRight=-1;points=[[0,0.17,0],[0,0.17,0],[0,0.17,0],[0,0.33,0],[0,0.33,0],[0,0.5,0],[0,0.5,0],[0,0.67,0],[0,0.67,0],[0,0.83,0],[0,0.83,0],[1,0.17,0],[1,0.17,0],[1,0.17,0],[1,0.33,0],[1,0.33,0],[1,0.5,0],[1,0.5,0],[1,0.67,0],[1,0.67,0],[1,0.83,0],[1,0.83,0],[0.13,0,0],[0.13,0,0],[0.13,0,0],[0.25,0,0],[0.25,0,0],[0.37,0,0],[0.37,0,0],[0.5,0,0],[0.5,0,0],[0.63,0,0],[0.63,0,0],[0.75,0,0],[0.75,0,0],[0.88,0,0],[0.88,0,0],[0.13,1,0],[0.13,1,0],[0.13,1,0],[0.25,1,0],[0.25,1,0],[0.37,1,0],[0.37,1,0],[0.5,1,0],[0.5,1,0],[0.63,1,0],[0.63,1,0],[0.75,1,0],[0.75,1,0],[0.88,1,0],[0.88,1,0]];labelBackgroundColor=none;rounded=0;html=1;whiteSpace=wrap;" parent="1" vertex="1">
            <mxGeometry x="504" y="380" width="180" height="80" as="geometry" />
          </mxCell>
        </UserObject>
        <mxCell id="3" style="vsdxID=2;fillColor=#ffffff;gradientColor=none;shape=stencil(nZBLDoAgDERP0z3SIyjew0SURgSD+Lu9kMZoXLhwN9O+tukAlrNpJg1SzDH4QW/URgNYgZTkjA4UkwJUgGXng+6DX1zLfmoymdXo17xh5zmRJ6Q42BWCfc2oJfdAr+Yv+AP9Cb7OJ3H/2JG1HNGz/84klThPVCc=);strokeColor=#000000;spacingTop=-1;spacingBottom=-1;spacingLeft=-1;spacingRight=-1;points=[[0,0.17,0],[0,0.17,0],[0,0.17,0],[0,0.33,0],[0,0.33,0],[0,0.5,0],[0,0.5,0],[0,0.67,0],[0,0.67,0],[0,0.83,0],[0,0.83,0],[1,0.17,0],[1,0.17,0],[1,0.17,0],[1,0.33,0],[1,0.33,0],[1,0.5,0],[1,0.5,0],[1,0.67,0],[1,0.67,0],[1,0.83,0],[1,0.83,0],[0.13,0,0],[0.13,0,0],[0.13,0,0],[0.25,0,0],[0.25,0,0],[0.37,0,0],[0.37,0,0],[0.5,0,0],[0.5,0,0],[0.63,0,0],[0.63,0,0],[0.75,0,0],[0.75,0,0],[0.88,0,0],[0.88,0,0],[0.13,1,0],[0.13,1,0],[0.13,1,0],[0.25,1,0],[0.25,1,0],[0.37,1,0],[0.37,1,0],[0.5,1,0],[0.5,1,0],[0.63,1,0],[0.63,1,0],[0.75,1,0],[0.75,1,0],[0.88,1,0],[0.88,1,0]];labelBackgroundColor=none;rounded=0;html=1;whiteSpace=wrap;" parent="2" vertex="1">
          <mxGeometry width="180" height="80" as="geometry" />
        </mxCell>
        <mxCell id="4" value="&lt;div style=&quot;font-size: 1px&quot;&gt;&lt;p style=&quot;text-align:right;margin-left:0;margin-right:0;margin-top:0px;margin-bottom:0px;text-indent:0;vertical-align:middle;direction:ltr;&quot;&gt;&lt;font style=&quot;font-size:14.11px;font-family:Calibri;color:#000000;direction:ltr;letter-spacing:0px;line-height:120%;opacity:1&quot;&gt;A0&lt;/font&gt;&lt;font style=&quot;font-size:14.11px;font-family:Calibri;color:#000000;direction:ltr;letter-spacing:0px;line-height:120%;opacity:1&quot;&gt;&lt;br/&gt;&lt;/font&gt;&lt;/p&gt;&lt;/div&gt;" style="verticalAlign=middle;align=right;overflow=width;vsdxID=3;fillColor=none;gradientColor=none;strokeColor=none;spacingTop=-3;spacingBottom=-3;points=[[0,0.17,0],[0,0.17,0],[0,0.17,0],[0,0.33,0],[0,0.33,0],[0,0.5,0],[0,0.5,0],[0,0.67,0],[0,0.67,0],[0,0.83,0],[0,0.83,0],[1,0.17,0],[1,0.17,0],[1,0.17,0],[1,0.33,0],[1,0.33,0],[1,0.5,0],[1,0.5,0],[1,0.67,0],[1,0.67,0],[1,0.83,0],[1,0.83,0],[0.13,0,0],[0.13,0,0],[0.13,0,0],[0.25,0,0],[0.25,0,0],[0.37,0,0],[0.37,0,0],[0.5,0,0],[0.5,0,0],[0.63,0,0],[0.63,0,0],[0.75,0,0],[0.75,0,0],[0.88,0,0],[0.88,0,0],[0.13,1,0],[0.13,1,0],[0.13,1,0],[0.25,1,0],[0.25,1,0],[0.37,1,0],[0.37,1,0],[0.5,1,0],[0.5,1,0],[0.63,1,0],[0.63,1,0],[0.75,1,0],[0.75,1,0],[0.88,1,0],[0.88,1,0]];labelBackgroundColor=none;rounded=0;html=1;whiteSpace=wrap;" parent="2" vertex="1">
          <mxGeometry y="63" width="180" height="16" as="geometry" />
        </mxCell>
        <mxCell id="5" value="&lt;div style=&quot;font-size: 1px&quot;&gt;&lt;p style=&quot;text-align:right;margin-left:0;margin-right:0;margin-top:0px;margin-bottom:0px;text-indent:0;vertical-align:middle;direction:ltr;&quot;&gt;&lt;font style=&quot;font-size:14.11px;font-family:Calibri;color:#000000;direction:ltr;letter-spacing:0px;line-height:120%;opacity:1&quot;&gt;&lt;br/&gt;&lt;/font&gt;&lt;/p&gt;&lt;/div&gt;" style="verticalAlign=middle;align=right;overflow=width;vsdxID=4;fillColor=none;gradientColor=none;strokeColor=none;spacingBottom=-3;points=[[0,0.17,0],[0,0.17,0],[0,0.17,0],[0,0.33,0],[0,0.33,0],[0,0.5,0],[0,0.5,0],[0,0.67,0],[0,0.67,0],[0,0.83,0],[0,0.83,0],[1,0.17,0],[1,0.17,0],[1,0.17,0],[1,0.33,0],[1,0.33,0],[1,0.5,0],[1,0.5,0],[1,0.67,0],[1,0.67,0],[1,0.83,0],[1,0.83,0],[0.13,0,0],[0.13,0,0],[0.13,0,0],[0.25,0,0],[0.25,0,0],[0.37,0,0],[0.37,0,0],[0.5,0,0],[0.5,0,0],[0.63,0,0],[0.63,0,0],[0.75,0,0],[0.75,0,0],[0.88,0,0],[0.88,0,0],[0.13,1,0],[0.13,1,0],[0.13,1,0],[0.25,1,0],[0.25,1,0],[0.37,1,0],[0.37,1,0],[0.5,1,0],[0.5,1,0],[0.63,1,0],[0.63,1,0],[0.75,1,0],[0.75,1,0],[0.88,1,0],[0.88,1,0]];labelBackgroundColor=none;rounded=0;html=1;whiteSpace=wrap;" parent="2" vertex="1">
          <mxGeometry y="80" width="180" height="22" as="geometry" />
        </mxCell>
        <mxCell id="6" value="&lt;div style=&quot;font-size: 1px&quot;&gt;&lt;font style=&quot;font-size:14.11px;font-family:Calibri;color:#000000;direction:ltr;letter-spacing:0px;line-height:120%;opacity:1&quot;&gt;Recognition of potholes on a road&lt;br/&gt;&lt;/font&gt;&lt;/div&gt;" style="verticalAlign=middle;align=center;overflow=width;vsdxID=5;fillColor=none;gradientColor=none;strokeColor=none;points=[[0,0.17,0],[0,0.17,0],[0,0.17,0],[0,0.33,0],[0,0.33,0],[0,0.5,0],[0,0.5,0],[0,0.67,0],[0,0.67,0],[0,0.83,0],[0,0.83,0],[1,0.17,0],[1,0.17,0],[1,0.17,0],[1,0.33,0],[1,0.33,0],[1,0.5,0],[1,0.5,0],[1,0.67,0],[1,0.67,0],[1,0.83,0],[1,0.83,0],[0.13,0,0],[0.13,0,0],[0.13,0,0],[0.25,0,0],[0.25,0,0],[0.37,0,0],[0.37,0,0],[0.5,0,0],[0.5,0,0],[0.63,0,0],[0.63,0,0],[0.75,0,0],[0.75,0,0],[0.88,0,0],[0.88,0,0],[0.13,1,0],[0.13,1,0],[0.13,1,0],[0.25,1,0],[0.25,1,0],[0.37,1,0],[0.37,1,0],[0.5,1,0],[0.5,1,0],[0.63,1,0],[0.63,1,0],[0.75,1,0],[0.75,1,0],[0.88,1,0],[0.88,1,0]];labelBackgroundColor=none;rounded=0;html=1;whiteSpace=wrap;" parent="2" vertex="1">
          <mxGeometry width="180" height="63" as="geometry" />
        </mxCell>
        <UserObject label="" Node="A0" Title="Recognition of potholes on a road" tags="Фон" id="7">
          <mxCell style="vsdxID=14;fillColor=none;gradientColor=none;strokeColor=none;spacingTop=-1;spacingBottom=-1;spacingLeft=-1;spacingRight=-1;points=[[1,0,0],[1,0,0]];labelBackgroundColor=none;rounded=0;html=1;whiteSpace=wrap;" parent="1" vertex="1">
            <mxGeometry x="50" y="50" width="1088" height="740" as="geometry" />
          </mxCell>
        </UserObject>
        <mxCell id="8" value="&lt;div style=&quot;font-size: 1px&quot;&gt;&lt;p style=&quot;text-align:left;margin-left:0;margin-right:0;margin-top:0px;margin-bottom:0px;text-indent:0;vertical-align:middle;direction:ltr;&quot;&gt;&lt;font style=&quot;font-size:11.29px;font-family:Calibri;color:#000000;direction:ltr;letter-spacing:0px;line-height:120%;opacity:1&quot;&gt;TITLE:&lt;br/&gt;&lt;/font&gt;&lt;/p&gt;&lt;/div&gt;" style="verticalAlign=middle;align=left;overflow=width;vsdxID=15;fillColor=#ffffff;gradientColor=none;shape=stencil(nZBLDoAgDERP0z3SIyjew0SURgSD+Lu9kMZoXLhwN9O+tukAlrNpJg1SzDH4QW/URgNYgZTkjA4UkwJUgGXng+6DX1zLfmoymdXo17xh5zmRJ6Q42BWCfc2oJfdAr+Yv+AP9Cb7OJ3H/2JG1HNGz/84klThPVCc=);strokeColor=#000000;spacingTop=-1;spacingBottom=-1;spacingLeft=-1;spacingRight=-1;points=[[0,0,0],[1,0,0],[1,1,0],[0,1,0]];labelBackgroundColor=none;rounded=0;html=1;whiteSpace=wrap;" parent="7" vertex="1">
          <mxGeometry x="104" y="716" width="880" height="24" as="geometry" />
        </mxCell>
        <mxCell id="9" value="&lt;div style=&quot;font-size: 1px&quot;&gt;&lt;/div&gt;" style="verticalAlign=middle;align=center;overflow=width;vsdxID=16;fillColor=none;gradientColor=none;shape=stencil(nZBLDoAgDERP0z3SIyjew0SURgSD+Lu9kMZoXLhwN9O+tukAlrNpJg1SzDH4QW/URgNYgZTkjA4UkwJUgGXng+6DX1zLfmoymdXo17xh5zmRJ6Q42BWCfc2oJfdAr+Yv+AP9Cb7OJ3H/2JG1HNGz/84klThPVCc=);strokeColor=#000000;spacingTop=-1;spacingBottom=-1;spacingLeft=-1;spacingRight=-1;points=[[0,0,0],[1,0,0],[1,1,0],[0,1,0]];labelBackgroundColor=none;rounded=0;html=1;whiteSpace=wrap;" parent="7" vertex="1">
          <mxGeometry width="1088" height="740" as="geometry" />
        </mxCell>
        <mxCell id="10" value="&lt;div style=&quot;font-size: 1px&quot;&gt;&lt;p style=&quot;text-align:left;margin-left:0;margin-right:0;margin-top:0px;margin-bottom:0px;text-indent:0;vertical-align:middle;direction:ltr;&quot;&gt;&lt;font style=&quot;font-size:11.29px;font-family:Calibri;color:#000000;direction:ltr;letter-spacing:0px;line-height:120%;opacity:1&quot;&gt;NODE: &lt;br/&gt;&lt;/font&gt;&lt;/p&gt;&lt;/div&gt;" style="verticalAlign=middle;align=left;overflow=width;vsdxID=17;fillColor=#ffffff;gradientColor=none;shape=stencil(nZBLDoAgDERP0z3SIyjew0SURgSD+Lu9kMZoXLhwN9O+tukAlrNpJg1SzDH4QW/URgNYgZTkjA4UkwJUgGXng+6DX1zLfmoymdXo17xh5zmRJ6Q42BWCfc2oJfdAr+Yv+AP9Cb7OJ3H/2JG1HNGz/84klThPVCc=);strokeColor=#000000;spacingTop=-1;spacingBottom=-1;spacingLeft=-1;spacingRight=-1;points=[[0,0,0],[1,0,0],[1,1,0],[0,1,0]];labelBackgroundColor=none;rounded=0;html=1;whiteSpace=wrap;" parent="7" vertex="1">
          <mxGeometry y="716" width="104" height="24" as="geometry" />
        </mxCell>
        <mxCell id="11" value="&lt;div style=&quot;font-size: 1px&quot;&gt;&lt;p style=&quot;text-align:left;margin-left:0;margin-right:0;margin-top:0px;margin-bottom:0px;text-indent:0;vertical-align:middle;direction:ltr;&quot;&gt;&lt;font style=&quot;font-size:11.29px;font-family:Calibri;color:#000000;direction:ltr;letter-spacing:0px;line-height:120%;opacity:1&quot;&gt;NO.:&lt;br/&gt;&lt;/font&gt;&lt;/p&gt;&lt;/div&gt;" style="verticalAlign=middle;align=left;overflow=width;vsdxID=18;fillColor=#ffffff;gradientColor=none;shape=stencil(nZBLDoAgDERP0z3SIyjew0SURgSD+Lu9kMZoXLhwN9O+tukAlrNpJg1SzDH4QW/URgNYgZTkjA4UkwJUgGXng+6DX1zLfmoymdXo17xh5zmRJ6Q42BWCfc2oJfdAr+Yv+AP9Cb7OJ3H/2JG1HNGz/84klThPVCc=);strokeColor=#000000;spacingTop=-1;spacingBottom=-1;spacingLeft=-1;spacingRight=-1;points=[[0,0,0],[1,0,0],[1,1,0],[0,1,0]];labelBackgroundColor=none;rounded=0;html=1;whiteSpace=wrap;" parent="7" vertex="1">
          <mxGeometry x="984" y="716" width="104" height="24" as="geometry" />
        </mxCell>
        <mxCell id="12" value="&lt;div style=&quot;font-size: 1px&quot;&gt;&lt;p style=&quot;text-align:center;margin-left:0;margin-right:0;margin-top:0px;margin-bottom:0px;text-indent:0;vertical-align:middle;direction:ltr;&quot;&gt;&lt;font style=&quot;font-size:11.29px;font-family:Calibri;color:#000000;direction:ltr;letter-spacing:0px;line-height:120%;opacity:1&quot;&gt;&lt;br/&gt;&lt;/font&gt;&lt;/p&gt;&lt;/div&gt;" style="verticalAlign=middle;align=center;overflow=width;vsdxID=19;fillColor=none;gradientColor=none;strokeColor=none;spacingTop=-1;spacingBottom=-1;spacingLeft=-1;spacingRight=-1;points=[[0,0,0],[1,0,0],[1,1,0],[0,1,0]];labelBackgroundColor=none;rounded=0;html=1;whiteSpace=wrap;" parent="7" vertex="1">
          <mxGeometry x="1024" y="716" width="64" height="24" as="geometry" />
        </mxCell>
        <mxCell id="13" value="&lt;div style=&quot;font-size: 1px&quot;&gt;&lt;p style=&quot;text-align:center;margin-left:0;margin-right:0;margin-top:0px;margin-bottom:0px;text-indent:0;vertical-align:middle;direction:ltr;&quot;&gt;&lt;font style=&quot;font-size:11.29px;font-family:Calibri;color:#000000;direction:ltr;letter-spacing:0px;line-height:120%;opacity:1&quot;&gt;A0&lt;/font&gt;&lt;font style=&quot;font-size:11.29px;font-family:Calibri;color:#000000;direction:ltr;letter-spacing:0px;line-height:120%;opacity:1&quot;&gt;&lt;br/&gt;&lt;/font&gt;&lt;/p&gt;&lt;/div&gt;" style="verticalAlign=middle;align=center;overflow=width;vsdxID=20;fillColor=none;gradientColor=none;strokeColor=none;spacingTop=-1;spacingBottom=-1;spacingLeft=-1;spacingRight=-1;points=[[0,0,0],[1,0,0],[1,1,0],[0,1,0]];labelBackgroundColor=none;rounded=0;html=1;whiteSpace=wrap;" parent="7" vertex="1">
          <mxGeometry x="56" y="716" width="48" height="24" as="geometry" />
        </mxCell>
        <mxCell id="14" value="&lt;div style=&quot;font-size: 1px&quot;&gt;&lt;p style=&quot;text-align:center;margin-left:0;margin-right:0;margin-top:0px;margin-bottom:0px;text-indent:0;vertical-align:middle;direction:ltr;&quot;&gt;&lt;font style=&quot;font-size:11.29px;font-family:Calibri;color:#000000;direction:ltr;letter-spacing:0px;line-height:120%;opacity:1&quot;&gt;Recognition of potholes on a road&lt;/font&gt;&lt;font style=&quot;font-size:11.29px;font-family:Calibri;color:#000000;direction:ltr;letter-spacing:0px;line-height:120%;opacity:1&quot;&gt;&lt;br/&gt;&lt;/font&gt;&lt;/p&gt;&lt;/div&gt;" style="verticalAlign=middle;align=center;overflow=width;vsdxID=21;fillColor=none;gradientColor=none;strokeColor=none;spacingTop=-1;spacingBottom=-1;spacingLeft=-1;spacingRight=-1;points=[[0,0,0],[1,0,0],[1,1,0],[0,1,0]];labelBackgroundColor=none;rounded=0;html=1;whiteSpace=wrap;" parent="7" vertex="1">
          <mxGeometry x="152" y="716" width="832" height="24" as="geometry" />
        </mxCell>
        <UserObject label="" tags="Connector" id="42">
          <mxCell style="vsdxID=32;edgeStyle=none;startArrow=none;endArrow=block;startSize=5;endSize=5;strokeColor=#000000;spacingTop=0;spacingBottom=0;spacingLeft=0;spacingRight=0;verticalAlign=middle;html=1;labelBackgroundColor=#ffffff;rounded=1;" parent="1" edge="1">
            <mxGeometry relative="1" as="geometry">
              <Array as="points" />
              <mxPoint x="600" y="231" as="sourcePoint" />
              <mxPoint x="600" y="378" as="targetPoint" />
            </mxGeometry>
          </mxCell>
        </UserObject>
        <mxCell id="43" value="&lt;div style=&quot;font-size: 1px&quot;&gt;&lt;font style=&quot;font-size:11.29px;font-family:Calibri;color:#000000;direction:ltr;letter-spacing:0px;line-height:120%;opacity:1&quot;&gt;K3&lt;br/&gt;&lt;/font&gt;&lt;/div&gt;" style="text;vsdxID=32;edgeStyle=none;startArrow=none;endArrow=block;startSize=5;endSize=5;strokeColor=none;spacingTop=0;spacingBottom=0;spacingLeft=0;spacingRight=0;verticalAlign=middle;html=1;labelBackgroundColor=#ffffff;rounded=1;align=center;overflow=width;fillColor=none;gradientColor=none;whiteSpace=wrap;;html=1;;rotation=270.05" parent="42" vertex="1">
          <mxGeometry width="25.43" height="24.84" relative="1" as="geometry">
            <mxPoint x="60.285" y="-12.42" as="offset" />
          </mxGeometry>
        </mxCell>
        <UserObject label="&lt;div style=&quot;font-size: 1px&quot;&gt;&lt;font style=&quot;font-size:11.29px;font-family:Calibri;color:#000000;direction:ltr;letter-spacing:0px;line-height:120%;opacity:1&quot;&gt;R1 – Client&lt;br/&gt;R2 – Server&lt;br/&gt;R3 – NN Algorithm&lt;br/&gt;R4 – Dataset for NN training&lt;br/&gt;R5 – Software for NN training&lt;br/&gt;R6 – Tools &amp;amp; Technologies for KB creation&lt;br/&gt;&lt;/font&gt;&lt;/div&gt;" tags="Фон" id="15">
          <mxCell style="verticalAlign=middle;align=left;overflow=width;vsdxID=37;fillColor=none;gradientColor=none;shape=stencil(nZBLDoAgDERP0z3SIyjew0SURgSD+Lu9kMZoXLhwN9O+tukAlrNpJg1SzDH4QW/URgNYgZTkjA4UkwJUgGXng+6DX1zLfmoymdXo17xh5zmRJ6Q42BWCfc2oJfdAr+Yv+AP9Cb7OJ3H/2JG1HNGz/84klThPVCc=);strokeColor=none;strokeWidth=2;spacingTop=-1;spacingBottom=-1;spacingLeft=-1;spacingRight=-1;points=[];labelBackgroundColor=none;rounded=0;html=1;whiteSpace=wrap;" parent="1" vertex="1">
            <mxGeometry x="160" y="592" width="261" height="96" as="geometry" />
          </mxCell>
        </UserObject>
        <UserObject label="&lt;div style=&quot;font-size: 1px&quot;&gt;&lt;font style=&quot;font-size:11.29px;font-family:Calibri;color:#000000;direction:ltr;letter-spacing:0px;line-height:120%;opacity:1&quot;&gt;K1 – Pothholes parameters: 0.09 sq.m.&lt;br/&gt;K2 – Performance KPI (processing time, GPU/CPU)&lt;br/&gt;K3 – Accuracy score&lt;br/&gt;K4 – Requirements for data labling&lt;br/&gt;&lt;/font&gt;&lt;/div&gt;" tags="Фон" id="16">
          <mxCell style="verticalAlign=middle;align=left;overflow=width;vsdxID=61;fillColor=none;gradientColor=none;shape=stencil(nZBLDoAgDERP0z3SIyjew0SURgSD+Lu9kMZoXLhwN9O+tukAlrNpJg1SzDH4QW/URgNYgZTkjA4UkwJUgGXng+6DX1zLfmoymdXo17xh5zmRJ6Q42BWCfc2oJfdAr+Yv+AP9Cb7OJ3H/2JG1HNGz/84klThPVCc=);strokeColor=none;strokeWidth=2;spacingTop=-1;spacingBottom=-1;spacingLeft=-1;spacingRight=-1;points=[];labelBackgroundColor=none;rounded=0;html=1;whiteSpace=wrap;" parent="1" vertex="1">
            <mxGeometry x="160" y="152" width="261" height="68" as="geometry" />
          </mxCell>
        </UserObject>
        <UserObject label="" tags="Connector" id="44">
          <mxCell style="vsdxID=71;edgeStyle=none;startArrow=none;endArrow=block;startSize=5;endSize=5;strokeColor=#000000;spacingTop=0;spacingBottom=0;spacingLeft=0;spacingRight=0;verticalAlign=middle;html=1;labelBackgroundColor=#ffffff;rounded=1;" parent="1" edge="1">
            <mxGeometry relative="1" as="geometry">
              <Array as="points" />
              <mxPoint x="631" y="232" as="sourcePoint" />
              <mxPoint x="631" y="380" as="targetPoint" />
            </mxGeometry>
          </mxCell>
        </UserObject>
        <mxCell id="45" value="&lt;div style=&quot;font-size: 1px&quot;&gt;&lt;font style=&quot;font-size:11.29px;font-family:Calibri;color:#000000;direction:ltr;letter-spacing:0px;line-height:120%;opacity:1&quot;&gt;K4&lt;br/&gt;&lt;/font&gt;&lt;/div&gt;" style="text;vsdxID=71;edgeStyle=none;startArrow=none;endArrow=block;startSize=5;endSize=5;strokeColor=none;spacingTop=0;spacingBottom=0;spacingLeft=0;spacingRight=0;verticalAlign=middle;html=1;labelBackgroundColor=#ffffff;rounded=1;align=center;overflow=width;fillColor=none;gradientColor=none;whiteSpace=wrap;;html=1;;rotation=270.05" parent="44" vertex="1">
          <mxGeometry width="25.43" height="24.84" relative="1" as="geometry">
            <mxPoint x="60.285" y="-12.42" as="offset" />
          </mxGeometry>
        </mxCell>
        <mxCell id="17" parent="1" vertex="1">
          <mxGeometry x="856" y="420" as="geometry" />
        </mxCell>
        <UserObject label="&lt;div style=&quot;font-size: 1px&quot;&gt;&lt;font style=&quot;font-size:14.11px;font-family:Calibri;color:#000000;direction:ltr;letter-spacing:0px;line-height:120%;opacity:1&quot;&gt;Potholes’ recognition &lt;/font&gt;&lt;font style=&quot;font-size:11.29px;font-family:Themed;color:#000000;direction:ltr;letter-spacing:0px;line-height:120%;opacity:1&quot;&gt;&lt;br/&gt;&lt;/font&gt;&lt;/div&gt;" tags="Connector" id="18">
          <mxCell style="vsdxID=47;edgeStyle=none;startArrow=none;endArrow=block;startSize=5;endSize=5;strokeColor=#000000;spacingTop=0;spacingBottom=0;spacingLeft=0;spacingRight=0;verticalAlign=middle;html=1;labelBackgroundColor=#ffffff;rounded=1;align=center;exitX=1;exitY=0.5;exitDx=0;exitDy=0;exitPerimeter=0;" parent="1" source="2" target="17" edge="1">
            <mxGeometry relative="1" as="geometry">
              <mxPoint as="offset" />
              <Array as="points" />
            </mxGeometry>
          </mxCell>
        </UserObject>
        <mxCell id="19" parent="1" vertex="1">
          <mxGeometry x="549" y="232" as="geometry" />
        </mxCell>
        <UserObject label="" tags="Connector" id="20">
          <mxCell style="vsdxID=30;edgeStyle=none;startArrow=none;endArrow=block;startSize=5;endSize=5;strokeColor=#000000;spacingTop=0;spacingBottom=0;spacingLeft=0;spacingRight=0;verticalAlign=middle;html=1;labelBackgroundColor=#ffffff;rounded=1;entryX=0.25;entryY=0;entryDx=0;entryDy=0;entryPerimeter=0;" parent="1" source="19" target="2" edge="1">
            <mxGeometry relative="1" as="geometry">
              <Array as="points" />
            </mxGeometry>
          </mxCell>
        </UserObject>
        <mxCell id="21" value="&lt;div style=&quot;font-size: 1px&quot;&gt;&lt;font style=&quot;font-size:11.29px;font-family:Calibri;color:#000000;direction:ltr;letter-spacing:0px;line-height:120%;opacity:1&quot;&gt;K1&lt;br/&gt;&lt;/font&gt;&lt;/div&gt;" style="text;vsdxID=30;edgeStyle=none;startArrow=none;endArrow=block;startSize=5;endSize=5;strokeColor=none;spacingTop=0;spacingBottom=0;spacingLeft=0;spacingRight=0;verticalAlign=middle;html=1;labelBackgroundColor=#ffffff;rounded=1;align=center;overflow=width;fillColor=none;gradientColor=none;whiteSpace=wrap;;html=1;;rotation=270.05" parent="20" vertex="1">
          <mxGeometry width="25.43" height="24.84" relative="1" as="geometry">
            <mxPoint x="60.285" y="-12.42" as="offset" />
          </mxGeometry>
        </mxCell>
        <mxCell id="22" parent="1" vertex="1">
          <mxGeometry x="571" y="232" as="geometry" />
        </mxCell>
        <UserObject label="" tags="Connector" id="23">
          <mxCell style="vsdxID=31;edgeStyle=none;startArrow=none;endArrow=block;startSize=5;endSize=5;strokeColor=#000000;spacingTop=0;spacingBottom=0;spacingLeft=0;spacingRight=0;verticalAlign=middle;html=1;labelBackgroundColor=#ffffff;rounded=1;entryX=0.37222222222222223;entryY=0;entryDx=0;entryDy=0;entryPerimeter=0;" parent="1" source="22" target="2" edge="1">
            <mxGeometry relative="1" as="geometry">
              <Array as="points" />
            </mxGeometry>
          </mxCell>
        </UserObject>
        <mxCell id="24" value="&lt;div style=&quot;font-size: 1px&quot;&gt;&lt;font style=&quot;font-size:11.29px;font-family:Calibri;color:#000000;direction:ltr;letter-spacing:0px;line-height:120%;opacity:1&quot;&gt;K2&lt;br/&gt;&lt;/font&gt;&lt;/div&gt;" style="text;vsdxID=31;edgeStyle=none;startArrow=none;endArrow=block;startSize=5;endSize=5;strokeColor=none;spacingTop=0;spacingBottom=0;spacingLeft=0;spacingRight=0;verticalAlign=middle;html=1;labelBackgroundColor=#ffffff;rounded=1;align=center;overflow=width;fillColor=none;gradientColor=none;whiteSpace=wrap;;html=1;;rotation=270.05" parent="23" vertex="1">
          <mxGeometry width="25.43" height="24.84" relative="1" as="geometry">
            <mxPoint x="60.285" y="-12.42" as="offset" />
          </mxGeometry>
        </mxCell>
        <mxCell id="25" parent="1" vertex="1">
          <mxGeometry x="549" y="580" as="geometry" />
        </mxCell>
        <UserObject label="" tags="Connector" id="26">
          <mxCell style="vsdxID=36;edgeStyle=none;startArrow=none;endArrow=block;startSize=5;endSize=5;strokeColor=#000000;spacingTop=0;spacingBottom=0;spacingLeft=0;spacingRight=0;verticalAlign=middle;html=1;labelBackgroundColor=#ffffff;rounded=1;entryX=0.25;entryY=1;entryDx=0;entryDy=0;entryPerimeter=0;" parent="1" source="25" target="2" edge="1">
            <mxGeometry relative="1" as="geometry">
              <Array as="points" />
            </mxGeometry>
          </mxCell>
        </UserObject>
        <mxCell id="27" value="&lt;div style=&quot;font-size: 1px&quot;&gt;&lt;font style=&quot;font-size:11.29px;font-family:Calibri;color:#000000;direction:ltr;letter-spacing:0px;line-height:120%;opacity:1&quot;&gt;R1&lt;br/&gt;&lt;/font&gt;&lt;/div&gt;" style="text;vsdxID=36;edgeStyle=none;startArrow=none;endArrow=block;startSize=5;endSize=5;strokeColor=none;spacingTop=0;spacingBottom=0;spacingLeft=0;spacingRight=0;verticalAlign=middle;html=1;labelBackgroundColor=#ffffff;rounded=1;align=center;overflow=width;fillColor=none;gradientColor=none;whiteSpace=wrap;;html=1;;rotation=629.95" parent="26" vertex="1">
          <mxGeometry width="25.7" height="24.84" relative="1" as="geometry">
            <mxPoint x="47.15" y="-12.42" as="offset" />
          </mxGeometry>
        </mxCell>
        <mxCell id="28" parent="1" vertex="1">
          <mxGeometry x="571" y="580" as="geometry" />
        </mxCell>
        <UserObject label="" tags="Connector" id="29">
          <mxCell style="vsdxID=39;edgeStyle=none;startArrow=none;endArrow=block;startSize=5;endSize=5;strokeColor=#000000;spacingTop=0;spacingBottom=0;spacingLeft=0;spacingRight=0;verticalAlign=middle;html=1;labelBackgroundColor=#ffffff;rounded=1;entryX=0.37222222222222223;entryY=1;entryDx=0;entryDy=0;entryPerimeter=0;" parent="1" source="28" target="2" edge="1">
            <mxGeometry relative="1" as="geometry">
              <Array as="points" />
            </mxGeometry>
          </mxCell>
        </UserObject>
        <mxCell id="30" value="&lt;div style=&quot;font-size: 1px&quot;&gt;&lt;font style=&quot;font-size:11.29px;font-family:Calibri;color:#000000;direction:ltr;letter-spacing:0px;line-height:120%;opacity:1&quot;&gt;R2&lt;br/&gt;&lt;/font&gt;&lt;/div&gt;" style="text;vsdxID=39;edgeStyle=none;startArrow=none;endArrow=block;startSize=5;endSize=5;strokeColor=none;spacingTop=0;spacingBottom=0;spacingLeft=0;spacingRight=0;verticalAlign=middle;html=1;labelBackgroundColor=#ffffff;rounded=1;align=center;overflow=width;fillColor=none;gradientColor=none;whiteSpace=wrap;;html=1;;rotation=629.95" parent="29" vertex="1">
          <mxGeometry width="25.7" height="24.84" relative="1" as="geometry">
            <mxPoint x="47.15" y="-12.42" as="offset" />
          </mxGeometry>
        </mxCell>
        <mxCell id="31" parent="1" vertex="1">
          <mxGeometry x="594" y="580" as="geometry" />
        </mxCell>
        <UserObject label="" tags="Connector" id="32">
          <mxCell style="vsdxID=40;edgeStyle=none;startArrow=none;endArrow=block;startSize=5;endSize=5;strokeColor=#000000;spacingTop=0;spacingBottom=0;spacingLeft=0;spacingRight=0;verticalAlign=middle;html=1;labelBackgroundColor=#ffffff;rounded=1;entryX=0.5;entryY=1;entryDx=0;entryDy=0;entryPerimeter=0;" parent="1" source="31" target="2" edge="1">
            <mxGeometry relative="1" as="geometry">
              <Array as="points" />
            </mxGeometry>
          </mxCell>
        </UserObject>
        <mxCell id="33" value="&lt;div style=&quot;font-size: 1px&quot;&gt;&lt;font style=&quot;font-size:11.29px;font-family:Calibri;color:#000000;direction:ltr;letter-spacing:0px;line-height:120%;opacity:1&quot;&gt;R3&lt;br/&gt;&lt;/font&gt;&lt;/div&gt;" style="text;vsdxID=40;edgeStyle=none;startArrow=none;endArrow=block;startSize=5;endSize=5;strokeColor=none;spacingTop=0;spacingBottom=0;spacingLeft=0;spacingRight=0;verticalAlign=middle;html=1;labelBackgroundColor=#ffffff;rounded=1;align=center;overflow=width;fillColor=none;gradientColor=none;whiteSpace=wrap;;html=1;;rotation=629.95" parent="32" vertex="1">
          <mxGeometry width="25.7" height="24.84" relative="1" as="geometry">
            <mxPoint x="47.15" y="-12.42" as="offset" />
          </mxGeometry>
        </mxCell>
        <mxCell id="34" parent="1" vertex="1">
          <mxGeometry x="616" y="580" as="geometry" />
        </mxCell>
        <UserObject label="" tags="Connector" id="35">
          <mxCell style="vsdxID=41;edgeStyle=none;startArrow=none;endArrow=block;startSize=5;endSize=5;strokeColor=#000000;spacingTop=0;spacingBottom=0;spacingLeft=0;spacingRight=0;verticalAlign=middle;html=1;labelBackgroundColor=#ffffff;rounded=1;entryX=0.6222222222222222;entryY=1;entryDx=0;entryDy=0;entryPerimeter=0;" parent="1" source="34" target="2" edge="1">
            <mxGeometry relative="1" as="geometry">
              <Array as="points" />
            </mxGeometry>
          </mxCell>
        </UserObject>
        <mxCell id="36" value="&lt;div style=&quot;font-size: 1px&quot;&gt;&lt;font style=&quot;font-size:11.29px;font-family:Calibri;color:#000000;direction:ltr;letter-spacing:0px;line-height:120%;opacity:1&quot;&gt;R4&lt;br/&gt;&lt;/font&gt;&lt;/div&gt;" style="text;vsdxID=41;edgeStyle=none;startArrow=none;endArrow=block;startSize=5;endSize=5;strokeColor=none;spacingTop=0;spacingBottom=0;spacingLeft=0;spacingRight=0;verticalAlign=middle;html=1;labelBackgroundColor=#ffffff;rounded=1;align=center;overflow=width;fillColor=none;gradientColor=none;whiteSpace=wrap;;html=1;;rotation=629.95" parent="35" vertex="1">
          <mxGeometry width="25.7" height="24.84" relative="1" as="geometry">
            <mxPoint x="47.15" y="-12.42" as="offset" />
          </mxGeometry>
        </mxCell>
        <mxCell id="37" parent="1" vertex="1">
          <mxGeometry x="639" y="580" as="geometry" />
        </mxCell>
        <UserObject label="" tags="Connector" id="38">
          <mxCell style="vsdxID=42;edgeStyle=none;startArrow=none;endArrow=block;startSize=5;endSize=5;strokeColor=#000000;spacingTop=0;spacingBottom=0;spacingLeft=0;spacingRight=0;verticalAlign=middle;html=1;labelBackgroundColor=#ffffff;rounded=1;entryX=0.75;entryY=1;entryDx=0;entryDy=0;entryPerimeter=0;" parent="1" source="37" target="2" edge="1">
            <mxGeometry relative="1" as="geometry">
              <Array as="points" />
            </mxGeometry>
          </mxCell>
        </UserObject>
        <mxCell id="39" value="&lt;div style=&quot;font-size: 1px&quot;&gt;&lt;font style=&quot;font-size:11.29px;font-family:Calibri;color:#000000;direction:ltr;letter-spacing:0px;line-height:120%;opacity:1&quot;&gt;R5&lt;br/&gt;&lt;/font&gt;&lt;/div&gt;" style="text;vsdxID=42;edgeStyle=none;startArrow=none;endArrow=block;startSize=5;endSize=5;strokeColor=none;spacingTop=0;spacingBottom=0;spacingLeft=0;spacingRight=0;verticalAlign=middle;html=1;labelBackgroundColor=#ffffff;rounded=1;align=center;overflow=width;fillColor=none;gradientColor=none;whiteSpace=wrap;;html=1;;rotation=629.95" parent="38" vertex="1">
          <mxGeometry width="25.7" height="24.84" relative="1" as="geometry">
            <mxPoint x="47.15" y="-12.42" as="offset" />
          </mxGeometry>
        </mxCell>
        <mxCell id="40" parent="1" vertex="1">
          <mxGeometry x="296" y="420" as="geometry" />
        </mxCell>
        <UserObject label="&lt;div style=&quot;font-size: 1px&quot;&gt;&lt;font style=&quot;font-size:14.11px;font-family:Calibri;color:#000000;direction:ltr;letter-spacing:0px;line-height:120%;opacity:1&quot;&gt;Image/Video data&lt;br/&gt;&lt;/font&gt;&lt;/div&gt;" tags="Connector" id="41">
          <mxCell style="vsdxID=46;edgeStyle=none;startArrow=none;endArrow=block;startSize=5;endSize=5;strokeColor=#000000;spacingTop=0;spacingBottom=0;spacingLeft=0;spacingRight=0;verticalAlign=middle;html=1;labelBackgroundColor=#ffffff;rounded=1;align=center;entryX=0;entryY=0.5;entryDx=0;entryDy=0;entryPerimeter=0;" parent="1" source="40" target="2" edge="1">
            <mxGeometry relative="1" as="geometry">
              <mxPoint as="offset" />
              <Array as="points" />
            </mxGeometry>
          </mxCell>
        </UserObject>
        <UserObject label="" tags="Connector Container" id="46">
          <mxCell parent="1" vertex="1" visible="0">
            <mxGeometry as="geometry" />
          </mxCell>
        </UserObject>
      </root>
    </mxGraphModel>
  </diagram>
  <diagram name="A0" id="A0">
    <mxGraphModel dx="1798" dy="1038" grid="1" gridSize="10" guides="1" tooltips="1" connect="1" arrows="1" fold="1" page="1" pageScale="1" pageWidth="827" pageHeight="1169" math="0" shadow="0">
      <root>
        <mxCell id="0" />
        <mxCell id="1" parent="0" />
        <UserObject label="" ID="A1" Name="Data preparation" tags="Фон" id="2">
          <mxCell style="vsdxID=1;fillColor=none;gradientColor=none;strokeColor=none;spacingTop=-1;spacingBottom=-1;spacingLeft=-1;spacingRight=-1;points=[[0,0.17,0],[0,0.17,0],[0,0.17,0],[0,0.33,0],[0,0.33,0],[0,0.5,0],[0,0.5,0],[0,0.67,0],[0,0.67,0],[0,0.83,0],[0,0.83,0],[1,0.17,0],[1,0.17,0],[1,0.17,0],[1,0.33,0],[1,0.33,0],[1,0.5,0],[1,0.5,0],[1,0.67,0],[1,0.67,0],[1,0.83,0],[1,0.83,0],[0.13,0,0],[0.13,0,0],[0.13,0,0],[0.25,0,0],[0.25,0,0],[0.37,0,0],[0.37,0,0],[0.5,0,0],[0.5,0,0],[0.63,0,0],[0.63,0,0],[0.75,0,0],[0.75,0,0],[0.88,0,0],[0.88,0,0],[0.13,1,0],[0.13,1,0],[0.13,1,0],[0.25,1,0],[0.25,1,0],[0.37,1,0],[0.37,1,0],[0.5,1,0],[0.5,1,0],[0.63,1,0],[0.63,1,0],[0.75,1,0],[0.75,1,0],[0.88,1,0],[0.88,1,0]];labelBackgroundColor=none;rounded=0;html=1;whiteSpace=wrap;" parent="1" vertex="1">
            <mxGeometry x="278" y="224" width="120" height="80" as="geometry" />
          </mxCell>
        </UserObject>
        <mxCell id="3" style="vsdxID=2;fillColor=#ffffff;gradientColor=none;shape=stencil(nZBLDoAgDERP0z3SIyjew0SURgSD+Lu9kMZoXLhwN9O+tukAlrNpJg1SzDH4QW/URgNYgZTkjA4UkwJUgGXng+6DX1zLfmoymdXo17xh5zmRJ6Q42BWCfc2oJfdAr+Yv+AP9Cb7OJ3H/2JG1HNGz/84klThPVCc=);strokeColor=#000000;spacingTop=-1;spacingBottom=-1;spacingLeft=-1;spacingRight=-1;points=[[0,0.17,0],[0,0.17,0],[0,0.17,0],[0,0.33,0],[0,0.33,0],[0,0.5,0],[0,0.5,0],[0,0.67,0],[0,0.67,0],[0,0.83,0],[0,0.83,0],[1,0.17,0],[1,0.17,0],[1,0.17,0],[1,0.33,0],[1,0.33,0],[1,0.5,0],[1,0.5,0],[1,0.67,0],[1,0.67,0],[1,0.83,0],[1,0.83,0],[0.13,0,0],[0.13,0,0],[0.13,0,0],[0.25,0,0],[0.25,0,0],[0.37,0,0],[0.37,0,0],[0.5,0,0],[0.5,0,0],[0.63,0,0],[0.63,0,0],[0.75,0,0],[0.75,0,0],[0.88,0,0],[0.88,0,0],[0.13,1,0],[0.13,1,0],[0.13,1,0],[0.25,1,0],[0.25,1,0],[0.37,1,0],[0.37,1,0],[0.5,1,0],[0.5,1,0],[0.63,1,0],[0.63,1,0],[0.75,1,0],[0.75,1,0],[0.88,1,0],[0.88,1,0]];labelBackgroundColor=none;rounded=0;html=1;whiteSpace=wrap;" parent="2" vertex="1">
          <mxGeometry width="120" height="80" as="geometry" />
        </mxCell>
        <mxCell id="4" value="&lt;div style=&quot;font-size: 1px&quot;&gt;&lt;p style=&quot;text-align:right;margin-left:0;margin-right:0;margin-top:0px;margin-bottom:0px;text-indent:0;vertical-align:middle;direction:ltr;&quot;&gt;&lt;font style=&quot;font-size:14.11px;font-family:Calibri;color:#000000;direction:ltr;letter-spacing:0px;line-height:120%;opacity:1&quot;&gt;A1&lt;/font&gt;&lt;font style=&quot;font-size:14.11px;font-family:Calibri;color:#000000;direction:ltr;letter-spacing:0px;line-height:120%;opacity:1&quot;&gt;&lt;br/&gt;&lt;/font&gt;&lt;/p&gt;&lt;/div&gt;" style="verticalAlign=middle;align=right;overflow=width;vsdxID=3;fillColor=none;gradientColor=none;strokeColor=none;spacingTop=-3;spacingBottom=-3;points=[[0,0.17,0],[0,0.17,0],[0,0.17,0],[0,0.33,0],[0,0.33,0],[0,0.5,0],[0,0.5,0],[0,0.67,0],[0,0.67,0],[0,0.83,0],[0,0.83,0],[1,0.17,0],[1,0.17,0],[1,0.17,0],[1,0.33,0],[1,0.33,0],[1,0.5,0],[1,0.5,0],[1,0.67,0],[1,0.67,0],[1,0.83,0],[1,0.83,0],[0.13,0,0],[0.13,0,0],[0.13,0,0],[0.25,0,0],[0.25,0,0],[0.37,0,0],[0.37,0,0],[0.5,0,0],[0.5,0,0],[0.63,0,0],[0.63,0,0],[0.75,0,0],[0.75,0,0],[0.88,0,0],[0.88,0,0],[0.13,1,0],[0.13,1,0],[0.13,1,0],[0.25,1,0],[0.25,1,0],[0.37,1,0],[0.37,1,0],[0.5,1,0],[0.5,1,0],[0.63,1,0],[0.63,1,0],[0.75,1,0],[0.75,1,0],[0.88,1,0],[0.88,1,0]];labelBackgroundColor=none;rounded=0;html=1;whiteSpace=wrap;" parent="2" vertex="1">
          <mxGeometry x="-10" y="63" width="120" height="16" as="geometry" />
        </mxCell>
        <mxCell id="5" value="&lt;div style=&quot;font-size: 1px&quot;&gt;&lt;p style=&quot;text-align:right;margin-left:0;margin-right:0;margin-top:0px;margin-bottom:0px;text-indent:0;vertical-align:middle;direction:ltr;&quot;&gt;&lt;font style=&quot;font-size:14.11px;font-family:Calibri;color:#000000;direction:ltr;letter-spacing:0px;line-height:120%;opacity:1&quot;&gt;&lt;br/&gt;&lt;/font&gt;&lt;/p&gt;&lt;/div&gt;" style="verticalAlign=middle;align=right;overflow=width;vsdxID=4;fillColor=none;gradientColor=none;strokeColor=none;spacingBottom=-3;points=[[0,0.17,0],[0,0.17,0],[0,0.17,0],[0,0.33,0],[0,0.33,0],[0,0.5,0],[0,0.5,0],[0,0.67,0],[0,0.67,0],[0,0.83,0],[0,0.83,0],[1,0.17,0],[1,0.17,0],[1,0.17,0],[1,0.33,0],[1,0.33,0],[1,0.5,0],[1,0.5,0],[1,0.67,0],[1,0.67,0],[1,0.83,0],[1,0.83,0],[0.13,0,0],[0.13,0,0],[0.13,0,0],[0.25,0,0],[0.25,0,0],[0.37,0,0],[0.37,0,0],[0.5,0,0],[0.5,0,0],[0.63,0,0],[0.63,0,0],[0.75,0,0],[0.75,0,0],[0.88,0,0],[0.88,0,0],[0.13,1,0],[0.13,1,0],[0.13,1,0],[0.25,1,0],[0.25,1,0],[0.37,1,0],[0.37,1,0],[0.5,1,0],[0.5,1,0],[0.63,1,0],[0.63,1,0],[0.75,1,0],[0.75,1,0],[0.88,1,0],[0.88,1,0]];labelBackgroundColor=none;rounded=0;html=1;whiteSpace=wrap;" parent="2" vertex="1">
          <mxGeometry x="-10" y="80" width="120" height="22" as="geometry" />
        </mxCell>
        <mxCell id="6" value="&lt;div style=&quot;font-size: 1px&quot;&gt;&lt;p style=&quot;text-align:center;margin-left:0;margin-right:0;margin-top:0px;margin-bottom:0px;text-indent:0;vertical-align:middle;direction:ltr;&quot;&gt;&lt;font style=&quot;font-size:14.11px;font-family:Calibri;color:#000000;direction:ltr;letter-spacing:0px;line-height:120%;opacity:1&quot;&gt;Data preparation&lt;/font&gt;&lt;font style=&quot;font-size:14.11px;font-family:Calibri;color:#000000;direction:ltr;letter-spacing:0px;line-height:120%;opacity:1&quot;&gt;&lt;br/&gt;&lt;/font&gt;&lt;/p&gt;&lt;/div&gt;" style="verticalAlign=middle;align=center;overflow=width;vsdxID=5;fillColor=none;gradientColor=none;strokeColor=none;points=[[0,0.17,0],[0,0.17,0],[0,0.17,0],[0,0.33,0],[0,0.33,0],[0,0.5,0],[0,0.5,0],[0,0.67,0],[0,0.67,0],[0,0.83,0],[0,0.83,0],[1,0.17,0],[1,0.17,0],[1,0.17,0],[1,0.33,0],[1,0.33,0],[1,0.5,0],[1,0.5,0],[1,0.67,0],[1,0.67,0],[1,0.83,0],[1,0.83,0],[0.13,0,0],[0.13,0,0],[0.13,0,0],[0.25,0,0],[0.25,0,0],[0.37,0,0],[0.37,0,0],[0.5,0,0],[0.5,0,0],[0.63,0,0],[0.63,0,0],[0.75,0,0],[0.75,0,0],[0.88,0,0],[0.88,0,0],[0.13,1,0],[0.13,1,0],[0.13,1,0],[0.25,1,0],[0.25,1,0],[0.37,1,0],[0.37,1,0],[0.5,1,0],[0.5,1,0],[0.63,1,0],[0.63,1,0],[0.75,1,0],[0.75,1,0],[0.88,1,0],[0.88,1,0]];labelBackgroundColor=none;rounded=0;html=1;whiteSpace=wrap;" parent="2" vertex="1">
          <mxGeometry width="120" height="63" as="geometry" />
        </mxCell>
        <UserObject label="" ID="A3" Name="Data Recognition" tags="Фон" id="7">
          <mxCell style="vsdxID=6;fillColor=none;gradientColor=none;strokeColor=none;spacingTop=-1;spacingBottom=-1;spacingLeft=-1;spacingRight=-1;points=[[0,0.17,0],[0,0.17,0],[0,0.17,0],[0,0.33,0],[0,0.33,0],[0,0.5,0],[0,0.5,0],[0,0.67,0],[0,0.67,0],[0,0.83,0],[0,0.83,0],[1,0.17,0],[1,0.17,0],[1,0.17,0],[1,0.33,0],[1,0.33,0],[1,0.5,0],[1,0.5,0],[1,0.67,0],[1,0.67,0],[1,0.83,0],[1,0.83,0],[0.13,0,0],[0.13,0,0],[0.13,0,0],[0.25,0,0],[0.25,0,0],[0.37,0,0],[0.37,0,0],[0.5,0,0],[0.5,0,0],[0.63,0,0],[0.63,0,0],[0.75,0,0],[0.75,0,0],[0.88,0,0],[0.88,0,0],[0.13,1,0],[0.13,1,0],[0.13,1,0],[0.25,1,0],[0.25,1,0],[0.37,1,0],[0.37,1,0],[0.5,1,0],[0.5,1,0],[0.63,1,0],[0.63,1,0],[0.75,1,0],[0.75,1,0],[0.88,1,0],[0.88,1,0]];labelBackgroundColor=none;rounded=0;html=1;whiteSpace=wrap;" parent="1" vertex="1">
            <mxGeometry x="790" y="512" width="120" height="80" as="geometry" />
          </mxCell>
        </UserObject>
        <mxCell id="8" style="vsdxID=7;fillColor=#ffffff;gradientColor=none;shape=stencil(nZBLDoAgDERP0z3SIyjew0SURgSD+Lu9kMZoXLhwN9O+tukAlrNpJg1SzDH4QW/URgNYgZTkjA4UkwJUgGXng+6DX1zLfmoymdXo17xh5zmRJ6Q42BWCfc2oJfdAr+Yv+AP9Cb7OJ3H/2JG1HNGz/84klThPVCc=);strokeColor=#000000;spacingTop=-1;spacingBottom=-1;spacingLeft=-1;spacingRight=-1;points=[[0,0.17,0],[0,0.17,0],[0,0.17,0],[0,0.33,0],[0,0.33,0],[0,0.5,0],[0,0.5,0],[0,0.67,0],[0,0.67,0],[0,0.83,0],[0,0.83,0],[1,0.17,0],[1,0.17,0],[1,0.17,0],[1,0.33,0],[1,0.33,0],[1,0.5,0],[1,0.5,0],[1,0.67,0],[1,0.67,0],[1,0.83,0],[1,0.83,0],[0.13,0,0],[0.13,0,0],[0.13,0,0],[0.25,0,0],[0.25,0,0],[0.37,0,0],[0.37,0,0],[0.5,0,0],[0.5,0,0],[0.63,0,0],[0.63,0,0],[0.75,0,0],[0.75,0,0],[0.88,0,0],[0.88,0,0],[0.13,1,0],[0.13,1,0],[0.13,1,0],[0.25,1,0],[0.25,1,0],[0.37,1,0],[0.37,1,0],[0.5,1,0],[0.5,1,0],[0.63,1,0],[0.63,1,0],[0.75,1,0],[0.75,1,0],[0.88,1,0],[0.88,1,0]];labelBackgroundColor=none;rounded=0;html=1;whiteSpace=wrap;" parent="7" vertex="1">
          <mxGeometry width="120" height="80" as="geometry" />
        </mxCell>
        <mxCell id="9" value="&lt;div style=&quot;font-size: 1px&quot;&gt;&lt;p style=&quot;text-align:right;margin-left:0;margin-right:0;margin-top:0px;margin-bottom:0px;text-indent:0;vertical-align:middle;direction:ltr;&quot;&gt;&lt;font style=&quot;font-size:14.11px;font-family:Calibri;color:#000000;direction:ltr;letter-spacing:0px;line-height:120%;opacity:1&quot;&gt;A3&lt;/font&gt;&lt;font style=&quot;font-size:14.11px;font-family:Calibri;color:#000000;direction:ltr;letter-spacing:0px;line-height:120%;opacity:1&quot;&gt;&lt;br/&gt;&lt;/font&gt;&lt;/p&gt;&lt;/div&gt;" style="verticalAlign=middle;align=right;overflow=width;vsdxID=8;fillColor=none;gradientColor=none;strokeColor=none;spacingTop=-3;spacingBottom=-3;points=[[0,0.17,0],[0,0.17,0],[0,0.17,0],[0,0.33,0],[0,0.33,0],[0,0.5,0],[0,0.5,0],[0,0.67,0],[0,0.67,0],[0,0.83,0],[0,0.83,0],[1,0.17,0],[1,0.17,0],[1,0.17,0],[1,0.33,0],[1,0.33,0],[1,0.5,0],[1,0.5,0],[1,0.67,0],[1,0.67,0],[1,0.83,0],[1,0.83,0],[0.13,0,0],[0.13,0,0],[0.13,0,0],[0.25,0,0],[0.25,0,0],[0.37,0,0],[0.37,0,0],[0.5,0,0],[0.5,0,0],[0.63,0,0],[0.63,0,0],[0.75,0,0],[0.75,0,0],[0.88,0,0],[0.88,0,0],[0.13,1,0],[0.13,1,0],[0.13,1,0],[0.25,1,0],[0.25,1,0],[0.37,1,0],[0.37,1,0],[0.5,1,0],[0.5,1,0],[0.63,1,0],[0.63,1,0],[0.75,1,0],[0.75,1,0],[0.88,1,0],[0.88,1,0]];labelBackgroundColor=none;rounded=0;html=1;whiteSpace=wrap;" parent="7" vertex="1">
          <mxGeometry x="-10" y="63" width="120" height="16" as="geometry" />
        </mxCell>
        <mxCell id="10" value="&lt;div style=&quot;font-size: 1px&quot;&gt;&lt;p style=&quot;text-align:right;margin-left:0;margin-right:0;margin-top:0px;margin-bottom:0px;text-indent:0;vertical-align:middle;direction:ltr;&quot;&gt;&lt;font style=&quot;font-size:14.11px;font-family:Calibri;color:#000000;direction:ltr;letter-spacing:0px;line-height:120%;opacity:1&quot;&gt;&lt;br/&gt;&lt;/font&gt;&lt;/p&gt;&lt;/div&gt;" style="verticalAlign=middle;align=right;overflow=width;vsdxID=9;fillColor=none;gradientColor=none;strokeColor=none;spacingBottom=-3;points=[[0,0.17,0],[0,0.17,0],[0,0.17,0],[0,0.33,0],[0,0.33,0],[0,0.5,0],[0,0.5,0],[0,0.67,0],[0,0.67,0],[0,0.83,0],[0,0.83,0],[1,0.17,0],[1,0.17,0],[1,0.17,0],[1,0.33,0],[1,0.33,0],[1,0.5,0],[1,0.5,0],[1,0.67,0],[1,0.67,0],[1,0.83,0],[1,0.83,0],[0.13,0,0],[0.13,0,0],[0.13,0,0],[0.25,0,0],[0.25,0,0],[0.37,0,0],[0.37,0,0],[0.5,0,0],[0.5,0,0],[0.63,0,0],[0.63,0,0],[0.75,0,0],[0.75,0,0],[0.88,0,0],[0.88,0,0],[0.13,1,0],[0.13,1,0],[0.13,1,0],[0.25,1,0],[0.25,1,0],[0.37,1,0],[0.37,1,0],[0.5,1,0],[0.5,1,0],[0.63,1,0],[0.63,1,0],[0.75,1,0],[0.75,1,0],[0.88,1,0],[0.88,1,0]];labelBackgroundColor=none;rounded=0;html=1;whiteSpace=wrap;" parent="7" vertex="1">
          <mxGeometry x="-10" y="80" width="120" height="22" as="geometry" />
        </mxCell>
        <mxCell id="11" value="&lt;div style=&quot;font-size: 1px&quot;&gt;&lt;p style=&quot;text-align:center;margin-left:0;margin-right:0;margin-top:0px;margin-bottom:0px;text-indent:0;vertical-align:middle;direction:ltr;&quot;&gt;&lt;font style=&quot;font-size:14.11px;font-family:Calibri;color:#000000;direction:ltr;letter-spacing:0px;line-height:120%;opacity:1&quot;&gt;Data Recognition&lt;/font&gt;&lt;font style=&quot;font-size:14.11px;font-family:Calibri;color:#000000;direction:ltr;letter-spacing:0px;line-height:120%;opacity:1&quot;&gt;&lt;br/&gt;&lt;/font&gt;&lt;/p&gt;&lt;/div&gt;" style="verticalAlign=middle;align=center;overflow=width;vsdxID=10;fillColor=none;gradientColor=none;strokeColor=none;points=[[0,0.17,0],[0,0.17,0],[0,0.17,0],[0,0.33,0],[0,0.33,0],[0,0.5,0],[0,0.5,0],[0,0.67,0],[0,0.67,0],[0,0.83,0],[0,0.83,0],[1,0.17,0],[1,0.17,0],[1,0.17,0],[1,0.33,0],[1,0.33,0],[1,0.5,0],[1,0.5,0],[1,0.67,0],[1,0.67,0],[1,0.83,0],[1,0.83,0],[0.13,0,0],[0.13,0,0],[0.13,0,0],[0.25,0,0],[0.25,0,0],[0.37,0,0],[0.37,0,0],[0.5,0,0],[0.5,0,0],[0.63,0,0],[0.63,0,0],[0.75,0,0],[0.75,0,0],[0.88,0,0],[0.88,0,0],[0.13,1,0],[0.13,1,0],[0.13,1,0],[0.25,1,0],[0.25,1,0],[0.37,1,0],[0.37,1,0],[0.5,1,0],[0.5,1,0],[0.63,1,0],[0.63,1,0],[0.75,1,0],[0.75,1,0],[0.88,1,0],[0.88,1,0]];labelBackgroundColor=none;rounded=0;html=1;whiteSpace=wrap;" parent="7" vertex="1">
          <mxGeometry width="120" height="63" as="geometry" />
        </mxCell>
        <UserObject label="" ID="A2" Name="Intelligent System Architecture" tags="Фон" id="12">
          <mxCell style="vsdxID=11;fillColor=none;gradientColor=none;strokeColor=none;spacingTop=-1;spacingBottom=-1;spacingLeft=-1;spacingRight=-1;points=[[0,0.17,0],[0,0.17,0],[0,0.17,0],[0,0.33,0],[0,0.33,0],[0,0.5,0],[0,0.5,0],[0,0.67,0],[0,0.67,0],[0,0.83,0],[0,0.83,0],[1,0.17,0],[1,0.17,0],[1,0.17,0],[1,0.33,0],[1,0.33,0],[1,0.5,0],[1,0.5,0],[1,0.67,0],[1,0.67,0],[1,0.83,0],[1,0.83,0],[0.13,0,0],[0.13,0,0],[0.13,0,0],[0.25,0,0],[0.25,0,0],[0.37,0,0],[0.37,0,0],[0.5,0,0],[0.5,0,0],[0.63,0,0],[0.63,0,0],[0.75,0,0],[0.75,0,0],[0.88,0,0],[0.88,0,0],[0.13,1,0],[0.13,1,0],[0.13,1,0],[0.25,1,0],[0.25,1,0],[0.37,1,0],[0.37,1,0],[0.5,1,0],[0.5,1,0],[0.63,1,0],[0.63,1,0],[0.75,1,0],[0.75,1,0],[0.88,1,0],[0.88,1,0]];labelBackgroundColor=none;rounded=0;html=1;whiteSpace=wrap;" parent="1" vertex="1">
            <mxGeometry x="532" y="372" width="120" height="80" as="geometry" />
          </mxCell>
        </UserObject>
        <mxCell id="13" style="vsdxID=12;fillColor=#ffffff;gradientColor=none;shape=stencil(nZBLDoAgDERP0z3SIyjew0SURgSD+Lu9kMZoXLhwN9O+tukAlrNpJg1SzDH4QW/URgNYgZTkjA4UkwJUgGXng+6DX1zLfmoymdXo17xh5zmRJ6Q42BWCfc2oJfdAr+Yv+AP9Cb7OJ3H/2JG1HNGz/84klThPVCc=);strokeColor=#000000;spacingTop=-1;spacingBottom=-1;spacingLeft=-1;spacingRight=-1;points=[[0,0.17,0],[0,0.17,0],[0,0.17,0],[0,0.33,0],[0,0.33,0],[0,0.5,0],[0,0.5,0],[0,0.67,0],[0,0.67,0],[0,0.83,0],[0,0.83,0],[1,0.17,0],[1,0.17,0],[1,0.17,0],[1,0.33,0],[1,0.33,0],[1,0.5,0],[1,0.5,0],[1,0.67,0],[1,0.67,0],[1,0.83,0],[1,0.83,0],[0.13,0,0],[0.13,0,0],[0.13,0,0],[0.25,0,0],[0.25,0,0],[0.37,0,0],[0.37,0,0],[0.5,0,0],[0.5,0,0],[0.63,0,0],[0.63,0,0],[0.75,0,0],[0.75,0,0],[0.88,0,0],[0.88,0,0],[0.13,1,0],[0.13,1,0],[0.13,1,0],[0.25,1,0],[0.25,1,0],[0.37,1,0],[0.37,1,0],[0.5,1,0],[0.5,1,0],[0.63,1,0],[0.63,1,0],[0.75,1,0],[0.75,1,0],[0.88,1,0],[0.88,1,0]];labelBackgroundColor=none;rounded=0;html=1;whiteSpace=wrap;" parent="12" vertex="1">
          <mxGeometry width="120" height="80" as="geometry" />
        </mxCell>
        <mxCell id="14" value="&lt;div style=&quot;font-size: 1px&quot;&gt;&lt;p style=&quot;text-align:right;margin-left:0;margin-right:0;margin-top:0px;margin-bottom:0px;text-indent:0;vertical-align:middle;direction:ltr;&quot;&gt;&lt;font style=&quot;font-size:14.11px;font-family:Calibri;color:#000000;direction:ltr;letter-spacing:0px;line-height:120%;opacity:1&quot;&gt;A2&lt;/font&gt;&lt;font style=&quot;font-size:14.11px;font-family:Calibri;color:#000000;direction:ltr;letter-spacing:0px;line-height:120%;opacity:1&quot;&gt;&lt;br/&gt;&lt;/font&gt;&lt;/p&gt;&lt;/div&gt;" style="verticalAlign=middle;align=right;overflow=width;vsdxID=13;fillColor=none;gradientColor=none;strokeColor=none;spacingTop=-3;spacingBottom=-3;points=[[0,0.17,0],[0,0.17,0],[0,0.17,0],[0,0.33,0],[0,0.33,0],[0,0.5,0],[0,0.5,0],[0,0.67,0],[0,0.67,0],[0,0.83,0],[0,0.83,0],[1,0.17,0],[1,0.17,0],[1,0.17,0],[1,0.33,0],[1,0.33,0],[1,0.5,0],[1,0.5,0],[1,0.67,0],[1,0.67,0],[1,0.83,0],[1,0.83,0],[0.13,0,0],[0.13,0,0],[0.13,0,0],[0.25,0,0],[0.25,0,0],[0.37,0,0],[0.37,0,0],[0.5,0,0],[0.5,0,0],[0.63,0,0],[0.63,0,0],[0.75,0,0],[0.75,0,0],[0.88,0,0],[0.88,0,0],[0.13,1,0],[0.13,1,0],[0.13,1,0],[0.25,1,0],[0.25,1,0],[0.37,1,0],[0.37,1,0],[0.5,1,0],[0.5,1,0],[0.63,1,0],[0.63,1,0],[0.75,1,0],[0.75,1,0],[0.88,1,0],[0.88,1,0]];labelBackgroundColor=none;rounded=0;html=1;whiteSpace=wrap;" parent="12" vertex="1">
          <mxGeometry x="-10" y="63" width="120" height="16" as="geometry" />
        </mxCell>
        <mxCell id="15" value="&lt;div style=&quot;font-size: 1px&quot;&gt;&lt;p style=&quot;text-align:right;margin-left:0;margin-right:0;margin-top:0px;margin-bottom:0px;text-indent:0;vertical-align:middle;direction:ltr;&quot;&gt;&lt;font style=&quot;font-size:14.11px;font-family:Calibri;color:#000000;direction:ltr;letter-spacing:0px;line-height:120%;opacity:1&quot;&gt;&lt;br/&gt;&lt;/font&gt;&lt;/p&gt;&lt;/div&gt;" style="verticalAlign=middle;align=right;overflow=width;vsdxID=14;fillColor=none;gradientColor=none;strokeColor=none;spacingBottom=-3;points=[[0,0.17,0],[0,0.17,0],[0,0.17,0],[0,0.33,0],[0,0.33,0],[0,0.5,0],[0,0.5,0],[0,0.67,0],[0,0.67,0],[0,0.83,0],[0,0.83,0],[1,0.17,0],[1,0.17,0],[1,0.17,0],[1,0.33,0],[1,0.33,0],[1,0.5,0],[1,0.5,0],[1,0.67,0],[1,0.67,0],[1,0.83,0],[1,0.83,0],[0.13,0,0],[0.13,0,0],[0.13,0,0],[0.25,0,0],[0.25,0,0],[0.37,0,0],[0.37,0,0],[0.5,0,0],[0.5,0,0],[0.63,0,0],[0.63,0,0],[0.75,0,0],[0.75,0,0],[0.88,0,0],[0.88,0,0],[0.13,1,0],[0.13,1,0],[0.13,1,0],[0.25,1,0],[0.25,1,0],[0.37,1,0],[0.37,1,0],[0.5,1,0],[0.5,1,0],[0.63,1,0],[0.63,1,0],[0.75,1,0],[0.75,1,0],[0.88,1,0],[0.88,1,0]];labelBackgroundColor=none;rounded=0;html=1;whiteSpace=wrap;" parent="12" vertex="1">
          <mxGeometry x="-10" y="80" width="120" height="22" as="geometry" />
        </mxCell>
        <mxCell id="16" value="&lt;div style=&quot;font-size: 1px&quot;&gt;&lt;p style=&quot;text-align:center;margin-left:0;margin-right:0;margin-top:0px;margin-bottom:0px;text-indent:0;vertical-align:middle;direction:ltr;&quot;&gt;&lt;font style=&quot;font-size:14.11px;font-family:Calibri;color:#000000;direction:ltr;letter-spacing:0px;line-height:120%;opacity:1&quot;&gt;Intelligent System Architecture&lt;/font&gt;&lt;font style=&quot;font-size:14.11px;font-family:Calibri;color:#000000;direction:ltr;letter-spacing:0px;line-height:120%;opacity:1&quot;&gt;&lt;br/&gt;&lt;/font&gt;&lt;/p&gt;&lt;/div&gt;" style="verticalAlign=middle;align=center;overflow=width;vsdxID=15;fillColor=none;gradientColor=none;strokeColor=none;points=[[0,0.17,0],[0,0.17,0],[0,0.17,0],[0,0.33,0],[0,0.33,0],[0,0.5,0],[0,0.5,0],[0,0.67,0],[0,0.67,0],[0,0.83,0],[0,0.83,0],[1,0.17,0],[1,0.17,0],[1,0.17,0],[1,0.33,0],[1,0.33,0],[1,0.5,0],[1,0.5,0],[1,0.67,0],[1,0.67,0],[1,0.83,0],[1,0.83,0],[0.13,0,0],[0.13,0,0],[0.13,0,0],[0.25,0,0],[0.25,0,0],[0.37,0,0],[0.37,0,0],[0.5,0,0],[0.5,0,0],[0.63,0,0],[0.63,0,0],[0.75,0,0],[0.75,0,0],[0.88,0,0],[0.88,0,0],[0.13,1,0],[0.13,1,0],[0.13,1,0],[0.25,1,0],[0.25,1,0],[0.37,1,0],[0.37,1,0],[0.5,1,0],[0.5,1,0],[0.63,1,0],[0.63,1,0],[0.75,1,0],[0.75,1,0],[0.88,1,0],[0.88,1,0]];labelBackgroundColor=none;rounded=0;html=1;whiteSpace=wrap;" parent="12" vertex="1">
          <mxGeometry width="120" height="63" as="geometry" />
        </mxCell>
        <UserObject label="&lt;div style=&quot;font-size: 1px&quot;&gt;&lt;font style=&quot;font-size:14.11px;font-family:Calibri;color:#000000;direction:ltr;letter-spacing:0px;line-height:120%;opacity:1&quot;&gt;Labeled data&lt;/font&gt;&lt;font style=&quot;font-size:14.11px;font-family:Themed;color:#000000;direction:ltr;letter-spacing:0px;line-height:120%;opacity:1&quot;&gt;&lt;br/&gt;&lt;/font&gt;&lt;/div&gt;" tags="Фон" id="17">
          <mxCell style="verticalAlign=middle;align=left;overflow=width;vsdxID=33;fillColor=none;gradientColor=none;shape=stencil(nZBLDoAgDERP0z3SIyjew0SURgSD+Lu9kMZoXLhwN9O+tukAlrNpJg1SzDH4QW/URgNYgZTkjA4UkwJUgGXng+6DX1zLfmoymdXo17xh5zmRJ6Q42BWCfc2oJfdAr+Yv+AP9Cb7OJ3H/2JG1HNGz/84klThPVCc=);strokeColor=none;strokeWidth=2;spacingTop=-1;spacingBottom=-1;spacingLeft=-1;spacingRight=-1;points=[];labelBackgroundColor=none;rounded=0;html=1;whiteSpace=wrap;" parent="1" vertex="1">
            <mxGeometry x="430" y="233" width="90" height="30" as="geometry" />
          </mxCell>
        </UserObject>
        <UserObject label="&lt;div style=&quot;font-size: 1px&quot;&gt;&lt;p style=&quot;text-align:center;margin-left:0;margin-right:0;margin-top:0px;margin-bottom:0px;text-indent:0;vertical-align:middle;direction:ltr;&quot;&gt;&lt;font style=&quot;font-size:14.11px;font-family:Calibri;color:#000000;direction:ltr;letter-spacing:0px;line-height:120%;opacity:1&quot;&gt;Trained Intelligent System&lt;/font&gt;&lt;font style=&quot;font-size:14.11px;font-family:Themed;color:#000000;direction:ltr;letter-spacing:0px;line-height:120%;opacity:1&quot;&gt;&lt;br/&gt;&lt;/font&gt;&lt;/p&gt;&lt;/div&gt;" tags="Фон" id="18">
          <mxCell style="verticalAlign=middle;align=center;overflow=width;vsdxID=34;fillColor=none;gradientColor=none;shape=stencil(nZBLDoAgDERP0z3SIyjew0SURgSD+Lu9kMZoXLhwN9O+tukAlrNpJg1SzDH4QW/URgNYgZTkjA4UkwJUgGXng+6DX1zLfmoymdXo17xh5zmRJ6Q42BWCfc2oJfdAr+Yv+AP9Cb7OJ3H/2JG1HNGz/84klThPVCc=);strokeColor=none;strokeWidth=2;spacingTop=-1;spacingBottom=-1;spacingLeft=-1;spacingRight=-1;points=[];labelBackgroundColor=none;rounded=0;html=1;whiteSpace=wrap;" parent="1" vertex="1">
            <mxGeometry x="673" y="377" width="120" height="30" as="geometry" />
          </mxCell>
        </UserObject>
        <UserObject label="&lt;div style=&quot;font-size: 1px&quot;&gt;&lt;font style=&quot;font-size:11.29px;font-family:Calibri;color:#000000;direction:ltr;letter-spacing:0px;line-height:120%;opacity:1&quot;&gt;K1 – Pothholes parameters: 0.09 sq.m.&lt;br/&gt;K2 – Performance KPI (processing time, GPU/CPU)&lt;br/&gt;K3 – Accuracy score&lt;br/&gt;K4 – Requirements for data labling&lt;br/&gt;&lt;/font&gt;&lt;/div&gt;" tags="Фон" id="19">
          <mxCell style="verticalAlign=middle;align=left;overflow=width;vsdxID=36;fillColor=none;gradientColor=none;shape=stencil(nZBLDoAgDERP0z3SIyjew0SURgSD+Lu9kMZoXLhwN9O+tukAlrNpJg1SzDH4QW/URgNYgZTkjA4UkwJUgGXng+6DX1zLfmoymdXo17xh5zmRJ6Q42BWCfc2oJfdAr+Yv+AP9Cb7OJ3H/2JG1HNGz/84klThPVCc=);strokeColor=none;strokeWidth=2;spacingTop=-1;spacingBottom=-1;spacingLeft=-1;spacingRight=-1;points=[];labelBackgroundColor=none;rounded=0;html=1;whiteSpace=wrap;" parent="1" vertex="1">
            <mxGeometry x="718" y="92" width="261" height="68" as="geometry" />
          </mxCell>
        </UserObject>
        <UserObject label="&lt;div style=&quot;font-size: 1px&quot;&gt;&lt;font style=&quot;font-size:14.11px;font-family:Calibri;color:#000000;direction:ltr;letter-spacing:0px;line-height:120%;opacity:1&quot;&gt;Potholes’ recognition &lt;/font&gt;&lt;font style=&quot;font-size:11.29px;font-family:Themed;color:#000000;direction:ltr;letter-spacing:0px;line-height:120%;opacity:1&quot;&gt;&lt;br/&gt;&lt;/font&gt;&lt;/div&gt;" tags="Фон" id="20">
          <mxCell style="verticalAlign=middle;align=left;overflow=width;vsdxID=44;fillColor=none;gradientColor=none;shape=stencil(nZBLDoAgDERP0z3SIyjew0SURgSD+Lu9kMZoXLhwN9O+tukAlrNpJg1SzDH4QW/URgNYgZTkjA4UkwJUgGXng+6DX1zLfmoymdXo17xh5zmRJ6Q42BWCfc2oJfdAr+Yv+AP9Cb7OJ3H/2JG1HNGz/84klThPVCc=);strokeColor=none;strokeWidth=2;spacingTop=-1;spacingBottom=-1;spacingLeft=-1;spacingRight=-1;points=[];labelBackgroundColor=none;rounded=0;html=1;whiteSpace=wrap;" parent="1" vertex="1">
            <mxGeometry x="930" y="522" width="140" height="30" as="geometry" />
          </mxCell>
        </UserObject>
        <UserObject label="" Node="A0" Title="Recognition of potholes on a road" tags="Фон" id="21">
          <mxCell style="vsdxID=48;fillColor=none;gradientColor=none;strokeColor=none;spacingTop=-1;spacingBottom=-1;spacingLeft=-1;spacingRight=-1;points=[[1,0,0],[1,0,0]];labelBackgroundColor=none;rounded=0;html=1;whiteSpace=wrap;" parent="1" vertex="1">
            <mxGeometry x="50" y="50" width="1088" height="740" as="geometry" />
          </mxCell>
        </UserObject>
        <mxCell id="22" value="&lt;div style=&quot;font-size: 1px&quot;&gt;&lt;p style=&quot;text-align:left;margin-left:0;margin-right:0;margin-top:0px;margin-bottom:0px;text-indent:0;vertical-align:middle;direction:ltr;&quot;&gt;&lt;font style=&quot;font-size:11.29px;font-family:Calibri;color:#000000;direction:ltr;letter-spacing:0px;line-height:120%;opacity:1&quot;&gt;TITLE:&lt;br/&gt;&lt;/font&gt;&lt;/p&gt;&lt;/div&gt;" style="verticalAlign=middle;align=left;overflow=width;vsdxID=49;fillColor=#ffffff;gradientColor=none;shape=stencil(nZBLDoAgDERP0z3SIyjew0SURgSD+Lu9kMZoXLhwN9O+tukAlrNpJg1SzDH4QW/URgNYgZTkjA4UkwJUgGXng+6DX1zLfmoymdXo17xh5zmRJ6Q42BWCfc2oJfdAr+Yv+AP9Cb7OJ3H/2JG1HNGz/84klThPVCc=);strokeColor=#000000;spacingTop=-1;spacingBottom=-1;spacingLeft=-1;spacingRight=-1;points=[[0,0,0],[1,0,0],[1,1,0],[0,1,0]];labelBackgroundColor=none;rounded=0;html=1;whiteSpace=wrap;" parent="21" vertex="1">
          <mxGeometry x="104" y="716" width="880" height="24" as="geometry" />
        </mxCell>
        <mxCell id="23" value="&lt;div style=&quot;font-size: 1px&quot;&gt;&lt;/div&gt;" style="verticalAlign=middle;align=center;overflow=width;vsdxID=50;fillColor=none;gradientColor=none;shape=stencil(nZBLDoAgDERP0z3SIyjew0SURgSD+Lu9kMZoXLhwN9O+tukAlrNpJg1SzDH4QW/URgNYgZTkjA4UkwJUgGXng+6DX1zLfmoymdXo17xh5zmRJ6Q42BWCfc2oJfdAr+Yv+AP9Cb7OJ3H/2JG1HNGz/84klThPVCc=);strokeColor=#000000;spacingTop=-1;spacingBottom=-1;spacingLeft=-1;spacingRight=-1;points=[[0,0,0],[1,0,0],[1,1,0],[0,1,0]];labelBackgroundColor=none;rounded=0;html=1;whiteSpace=wrap;" parent="21" vertex="1">
          <mxGeometry width="1088" height="740" as="geometry" />
        </mxCell>
        <mxCell id="24" value="&lt;div style=&quot;font-size: 1px&quot;&gt;&lt;p style=&quot;text-align:left;margin-left:0;margin-right:0;margin-top:0px;margin-bottom:0px;text-indent:0;vertical-align:middle;direction:ltr;&quot;&gt;&lt;font style=&quot;font-size:11.29px;font-family:Calibri;color:#000000;direction:ltr;letter-spacing:0px;line-height:120%;opacity:1&quot;&gt;NODE: &lt;br/&gt;&lt;/font&gt;&lt;/p&gt;&lt;/div&gt;" style="verticalAlign=middle;align=left;overflow=width;vsdxID=51;fillColor=#ffffff;gradientColor=none;shape=stencil(nZBLDoAgDERP0z3SIyjew0SURgSD+Lu9kMZoXLhwN9O+tukAlrNpJg1SzDH4QW/URgNYgZTkjA4UkwJUgGXng+6DX1zLfmoymdXo17xh5zmRJ6Q42BWCfc2oJfdAr+Yv+AP9Cb7OJ3H/2JG1HNGz/84klThPVCc=);strokeColor=#000000;spacingTop=-1;spacingBottom=-1;spacingLeft=-1;spacingRight=-1;points=[[0,0,0],[1,0,0],[1,1,0],[0,1,0]];labelBackgroundColor=none;rounded=0;html=1;whiteSpace=wrap;" parent="21" vertex="1">
          <mxGeometry y="716" width="104" height="24" as="geometry" />
        </mxCell>
        <mxCell id="25" value="&lt;div style=&quot;font-size: 1px&quot;&gt;&lt;p style=&quot;text-align:left;margin-left:0;margin-right:0;margin-top:0px;margin-bottom:0px;text-indent:0;vertical-align:middle;direction:ltr;&quot;&gt;&lt;font style=&quot;font-size:11.29px;font-family:Calibri;color:#000000;direction:ltr;letter-spacing:0px;line-height:120%;opacity:1&quot;&gt;NO.:&lt;br/&gt;&lt;/font&gt;&lt;/p&gt;&lt;/div&gt;" style="verticalAlign=middle;align=left;overflow=width;vsdxID=52;fillColor=#ffffff;gradientColor=none;shape=stencil(nZBLDoAgDERP0z3SIyjew0SURgSD+Lu9kMZoXLhwN9O+tukAlrNpJg1SzDH4QW/URgNYgZTkjA4UkwJUgGXng+6DX1zLfmoymdXo17xh5zmRJ6Q42BWCfc2oJfdAr+Yv+AP9Cb7OJ3H/2JG1HNGz/84klThPVCc=);strokeColor=#000000;spacingTop=-1;spacingBottom=-1;spacingLeft=-1;spacingRight=-1;points=[[0,0,0],[1,0,0],[1,1,0],[0,1,0]];labelBackgroundColor=none;rounded=0;html=1;whiteSpace=wrap;" parent="21" vertex="1">
          <mxGeometry x="984" y="716" width="104" height="24" as="geometry" />
        </mxCell>
        <mxCell id="26" value="&lt;div style=&quot;font-size: 1px&quot;&gt;&lt;p style=&quot;text-align:center;margin-left:0;margin-right:0;margin-top:0px;margin-bottom:0px;text-indent:0;vertical-align:middle;direction:ltr;&quot;&gt;&lt;font style=&quot;font-size:11.29px;font-family:Calibri;color:#000000;direction:ltr;letter-spacing:0px;line-height:120%;opacity:1&quot;&gt;&lt;br/&gt;&lt;/font&gt;&lt;/p&gt;&lt;/div&gt;" style="verticalAlign=middle;align=center;overflow=width;vsdxID=53;fillColor=none;gradientColor=none;strokeColor=none;spacingTop=-1;spacingBottom=-1;spacingLeft=-1;spacingRight=-1;points=[[0,0,0],[1,0,0],[1,1,0],[0,1,0]];labelBackgroundColor=none;rounded=0;html=1;whiteSpace=wrap;" parent="21" vertex="1">
          <mxGeometry x="1024" y="716" width="64" height="24" as="geometry" />
        </mxCell>
        <mxCell id="27" value="&lt;div style=&quot;font-size: 1px&quot;&gt;&lt;p style=&quot;text-align:center;margin-left:0;margin-right:0;margin-top:0px;margin-bottom:0px;text-indent:0;vertical-align:middle;direction:ltr;&quot;&gt;&lt;font style=&quot;font-size:11.29px;font-family:Calibri;color:#000000;direction:ltr;letter-spacing:0px;line-height:120%;opacity:1&quot;&gt;A0&lt;/font&gt;&lt;font style=&quot;font-size:11.29px;font-family:Calibri;color:#000000;direction:ltr;letter-spacing:0px;line-height:120%;opacity:1&quot;&gt;&lt;br/&gt;&lt;/font&gt;&lt;/p&gt;&lt;/div&gt;" style="verticalAlign=middle;align=center;overflow=width;vsdxID=54;fillColor=none;gradientColor=none;strokeColor=none;spacingTop=-1;spacingBottom=-1;spacingLeft=-1;spacingRight=-1;points=[[0,0,0],[1,0,0],[1,1,0],[0,1,0]];labelBackgroundColor=none;rounded=0;html=1;whiteSpace=wrap;" parent="21" vertex="1">
          <mxGeometry x="56" y="716" width="48" height="24" as="geometry" />
        </mxCell>
        <mxCell id="28" value="&lt;div style=&quot;font-size: 1px&quot;&gt;&lt;p style=&quot;text-align:center;margin-left:0;margin-right:0;margin-top:0px;margin-bottom:0px;text-indent:0;vertical-align:middle;direction:ltr;&quot;&gt;&lt;font style=&quot;font-size:11.29px;font-family:Calibri;color:#000000;direction:ltr;letter-spacing:0px;line-height:120%;opacity:1&quot;&gt;Recognition of potholes on a road&lt;/font&gt;&lt;font style=&quot;font-size:11.29px;font-family:Calibri;color:#000000;direction:ltr;letter-spacing:0px;line-height:120%;opacity:1&quot;&gt;&lt;br/&gt;&lt;/font&gt;&lt;/p&gt;&lt;/div&gt;" style="verticalAlign=middle;align=center;overflow=width;vsdxID=55;fillColor=none;gradientColor=none;strokeColor=none;spacingTop=-1;spacingBottom=-1;spacingLeft=-1;spacingRight=-1;points=[[0,0,0],[1,0,0],[1,1,0],[0,1,0]];labelBackgroundColor=none;rounded=0;html=1;whiteSpace=wrap;" parent="21" vertex="1">
          <mxGeometry x="152" y="716" width="832" height="24" as="geometry" />
        </mxCell>
        <UserObject label="&lt;div style=&quot;font-size: 1px&quot;&gt;&lt;font style=&quot;font-size:11.29px;font-family:Calibri;color:#000000;direction:ltr;letter-spacing:0px;line-height:120%;opacity:1&quot;&gt;R1 – Client&lt;br/&gt;R2 – Server&lt;br/&gt;R3 – NN Algorithm&lt;br/&gt;R4 – Dataset for NN training&lt;br/&gt;R5 – Tools &amp;amp; Technologies for NN preparation&lt;br/&gt;R6 – Tools &amp;amp; Technologies for KB creation&lt;br/&gt;&lt;/font&gt;&lt;/div&gt;" tags="Фон" id="29">
          <mxCell style="verticalAlign=middle;align=left;overflow=width;vsdxID=56;fillColor=none;gradientColor=none;shape=stencil(nZBLDoAgDERP0z3SIyjew0SURgSD+Lu9kMZoXLhwN9O+tukAlrNpJg1SzDH4QW/URgNYgZTkjA4UkwJUgGXng+6DX1zLfmoymdXo17xh5zmRJ6Q42BWCfc2oJfdAr+Yv+AP9Cb7OJ3H/2JG1HNGz/84klThPVCc=);strokeColor=none;strokeWidth=2;spacingTop=-1;spacingBottom=-1;spacingLeft=-1;spacingRight=-1;points=[];labelBackgroundColor=none;rounded=0;html=1;whiteSpace=wrap;" parent="1" vertex="1">
            <mxGeometry x="160" y="576" width="261" height="96" as="geometry" />
          </mxCell>
        </UserObject>
        <mxCell id="30" parent="1" vertex="1">
          <mxGeometry x="562" y="573" as="geometry" />
        </mxCell>
        <UserObject label="" tags="Connector" id="31">
          <mxCell style="vsdxID=58;edgeStyle=none;startArrow=none;endArrow=block;startSize=5;endSize=5;strokeColor=#000000;spacingTop=0;spacingBottom=0;spacingLeft=0;spacingRight=0;verticalAlign=middle;html=1;labelBackgroundColor=#ffffff;rounded=1;entryX=0.25;entryY=1;entryDx=0;entryDy=0;entryPerimeter=0;" parent="1" source="30" target="12" edge="1">
            <mxGeometry relative="1" as="geometry">
              <Array as="points" />
            </mxGeometry>
          </mxCell>
        </UserObject>
        <mxCell id="32" value="&lt;div style=&quot;font-size: 1px&quot;&gt;&lt;font style=&quot;font-size:11.29px;font-family:Calibri;color:#000000;direction:ltr;letter-spacing:0px;line-height:120%;opacity:1&quot;&gt;R5&lt;br/&gt;&lt;/font&gt;&lt;/div&gt;" style="text;vsdxID=58;edgeStyle=none;startArrow=none;endArrow=block;startSize=5;endSize=5;strokeColor=none;spacingTop=0;spacingBottom=0;spacingLeft=0;spacingRight=0;verticalAlign=middle;html=1;labelBackgroundColor=#ffffff;rounded=1;align=center;overflow=width;fillColor=none;gradientColor=none;whiteSpace=wrap;;html=1;;rotation=629.95" parent="31" vertex="1">
          <mxGeometry width="25.7" height="24.84" relative="1" as="geometry">
            <mxPoint x="47.15" y="-12.42" as="offset" />
          </mxGeometry>
        </mxCell>
        <mxCell id="33" parent="1" vertex="1">
          <mxGeometry x="836" y="709" as="geometry" />
        </mxCell>
        <UserObject label="&lt;div style=&quot;font-size: 1px&quot;&gt;&lt;font style=&quot;font-size:11.29px;font-family:Calibri;color:#000000;direction:ltr;letter-spacing:0px;line-height:120%;opacity:1&quot;&gt;R1&lt;br/&gt;&lt;/font&gt;&lt;/div&gt;" tags="Connector" id="34">
          <mxCell style="vsdxID=46;edgeStyle=none;startArrow=none;endArrow=block;startSize=5;endSize=5;strokeColor=#000000;spacingTop=0;spacingBottom=0;spacingLeft=0;spacingRight=0;verticalAlign=middle;html=1;labelBackgroundColor=#ffffff;rounded=0;align=center;entryX=0.375;entryY=1;entryDx=0;entryDy=0;entryPerimeter=0;" parent="1" source="33" target="7" edge="1">
            <mxGeometry relative="1" as="geometry">
              <mxPoint x="-10" y="-1" as="offset" />
              <Array as="points">
                <mxPoint x="835.74" y="709" />
              </Array>
            </mxGeometry>
          </mxCell>
        </UserObject>
        <mxCell id="35" parent="1" vertex="1">
          <mxGeometry x="607" y="260" as="geometry" />
        </mxCell>
        <UserObject label="&lt;div style=&quot;font-size: 1px&quot;&gt;&lt;font style=&quot;font-size:11.29px;font-family:Calibri;color:#000000;direction:ltr;letter-spacing:0px;line-height:120%;opacity:1&quot;&gt;K3&lt;br/&gt;&lt;/font&gt;&lt;/div&gt;" tags="Connector" id="36">
          <mxCell style="vsdxID=45;edgeStyle=none;startArrow=none;endArrow=block;startSize=5;endSize=5;strokeColor=#000000;spacingTop=0;spacingBottom=0;spacingLeft=0;spacingRight=0;verticalAlign=middle;html=1;labelBackgroundColor=#ffffff;rounded=0;align=center;entryX=0.625;entryY=0;entryDx=0;entryDy=0;entryPerimeter=0;" parent="1" source="35" target="12" edge="1">
            <mxGeometry relative="1" as="geometry">
              <mxPoint x="10" as="offset" />
              <Array as="points" />
            </mxGeometry>
          </mxCell>
        </UserObject>
        <mxCell id="37" parent="1" vertex="1">
          <mxGeometry x="865" y="676" as="geometry" />
        </mxCell>
        <UserObject label="" tags="Connector" id="38">
          <mxCell style="vsdxID=43;edgeStyle=none;startArrow=none;endArrow=block;startSize=5;endSize=5;strokeColor=#000000;spacingTop=0;spacingBottom=0;spacingLeft=0;spacingRight=0;verticalAlign=middle;html=1;labelBackgroundColor=#ffffff;rounded=0;entryX=0.625;entryY=1;entryDx=0;entryDy=0;entryPerimeter=0;jumpStyle=arc;" parent="1" source="37" target="12" edge="1">
            <mxGeometry relative="1" as="geometry">
              <mxPoint as="offset" />
              <Array as="points">
                <mxPoint x="841.67" y="676" />
                <mxPoint x="607" y="676" />
              </Array>
            </mxGeometry>
          </mxCell>
        </UserObject>
        <mxCell id="39" parent="1" vertex="1">
          <mxGeometry x="996" y="552" as="geometry" />
        </mxCell>
        <UserObject label="" tags="Connector" id="40">
          <mxCell style="vsdxID=39;edgeStyle=none;startArrow=none;endArrow=block;startSize=5;endSize=5;strokeColor=#000000;spacingTop=-1;spacingBottom=-1;spacingLeft=-1;spacingRight=-1;verticalAlign=middle;html=1;labelBackgroundColor=#ffffff;rounded=1;entryX=0.375;entryY=1;entryDx=0;entryDy=0;entryPerimeter=0;" parent="1" source="39" target="12" edge="1">
            <mxGeometry relative="1" as="geometry">
              <Array as="points" />
            </mxGeometry>
          </mxCell>
        </UserObject>
        <mxCell id="41" parent="1" vertex="1">
          <mxGeometry x="835" y="637" as="geometry" />
        </mxCell>
        <UserObject label="" tags="Connector" id="42">
          <mxCell style="vsdxID=38;edgeStyle=none;startArrow=none;endArrow=block;startSize=5;endSize=5;strokeColor=#000000;spacingTop=0;spacingBottom=0;spacingLeft=0;spacingRight=0;verticalAlign=middle;html=1;labelBackgroundColor=#ffffff;rounded=0;entryX=0.875;entryY=1;entryDx=0;entryDy=0;entryPerimeter=0;" parent="1" source="41" target="12" edge="1">
            <mxGeometry relative="1" as="geometry">
              <mxPoint x="-1" as="offset" />
              <Array as="points">
                <mxPoint x="637" y="637" />
              </Array>
            </mxGeometry>
          </mxCell>
        </UserObject>
        <mxCell id="43" parent="1" vertex="1">
          <mxGeometry x="353" y="112" as="geometry" />
        </mxCell>
        <UserObject label="" tags="Connector" id="44">
          <mxCell style="vsdxID=37;edgeStyle=none;startArrow=none;endArrow=block;startSize=5;endSize=5;strokeColor=#000000;spacingTop=0;spacingBottom=0;spacingLeft=0;spacingRight=0;verticalAlign=middle;html=1;labelBackgroundColor=#ffffff;rounded=1;entryX=0.625;entryY=0;entryDx=0;entryDy=0;entryPerimeter=0;" parent="1" source="43" target="2" edge="1">
            <mxGeometry relative="1" as="geometry">
              <Array as="points" />
            </mxGeometry>
          </mxCell>
        </UserObject>
        <mxCell id="45" value="&lt;div style=&quot;font-size: 1px&quot;&gt;&lt;font style=&quot;font-size:11.29px;font-family:Calibri;color:#000000;direction:ltr;letter-spacing:0px;line-height:120%;opacity:1&quot;&gt;K4&lt;/font&gt;&lt;font style=&quot;font-size:11.29px;font-family:Themed;color:#000000;direction:ltr;letter-spacing:0px;line-height:120%;opacity:1&quot;&gt;&lt;br/&gt;&lt;/font&gt;&lt;/div&gt;" style="text;vsdxID=37;edgeStyle=none;startArrow=none;endArrow=block;startSize=5;endSize=5;strokeColor=none;spacingTop=0;spacingBottom=0;spacingLeft=0;spacingRight=0;verticalAlign=middle;html=1;labelBackgroundColor=#ffffff;rounded=1;align=center;overflow=width;fillColor=none;gradientColor=none;whiteSpace=wrap;;html=1;;rotation=270.05" parent="44" vertex="1">
          <mxGeometry width="25.43" height="24.84" relative="1" as="geometry">
            <mxPoint x="43.285" y="-12.42" as="offset" />
          </mxGeometry>
        </mxCell>
        <mxCell id="46" parent="1" vertex="1">
          <mxGeometry x="607" y="332" as="geometry" />
        </mxCell>
        <UserObject label="" tags="Connector" id="47">
          <mxCell style="vsdxID=32;edgeStyle=none;startArrow=none;endArrow=block;startSize=5;endSize=5;strokeColor=#000000;spacingTop=0;spacingBottom=0;spacingLeft=0;spacingRight=0;verticalAlign=middle;html=1;labelBackgroundColor=#ffffff;rounded=0;entryX=0.375;entryY=0;entryDx=0;entryDy=0;entryPerimeter=0;" parent="1" source="46" target="7" edge="1">
            <mxGeometry relative="1" as="geometry">
              <mxPoint as="offset" />
              <Array as="points">
                <mxPoint x="835" y="332" />
              </Array>
            </mxGeometry>
          </mxCell>
        </UserObject>
        <mxCell id="48" parent="1" vertex="1">
          <mxGeometry x="577" y="292" as="geometry" />
        </mxCell>
        <UserObject label="" tags="Connector" id="49">
          <mxCell style="vsdxID=31;edgeStyle=none;startArrow=none;endArrow=block;startSize=5;endSize=5;strokeColor=#000000;spacingTop=0;spacingBottom=0;spacingLeft=0;spacingRight=0;verticalAlign=middle;html=1;labelBackgroundColor=#ffffff;rounded=0;entryX=0.625;entryY=0;entryDx=0;entryDy=0;entryPerimeter=0;jumpStyle=arc;" parent="1" source="48" target="7" edge="1">
            <mxGeometry relative="1" as="geometry">
              <mxPoint as="offset" />
              <Array as="points">
                <mxPoint x="600.33" y="292" />
                <mxPoint x="865" y="292" />
              </Array>
            </mxGeometry>
          </mxCell>
        </UserObject>
        <mxCell id="50" parent="1" vertex="1">
          <mxGeometry x="577" y="260" as="geometry" />
        </mxCell>
        <UserObject label="" tags="Connector" id="51">
          <mxCell style="vsdxID=30;edgeStyle=none;startArrow=none;endArrow=block;startSize=5;endSize=5;strokeColor=#000000;spacingTop=0;spacingBottom=0;spacingLeft=0;spacingRight=0;verticalAlign=middle;html=1;labelBackgroundColor=#ffffff;rounded=1;entryX=0.375;entryY=0;entryDx=0;entryDy=0;entryPerimeter=0;" parent="1" source="50" target="12" edge="1">
            <mxGeometry relative="1" as="geometry">
              <Array as="points" />
            </mxGeometry>
          </mxCell>
        </UserObject>
        <mxCell id="52" value="&lt;div style=&quot;font-size: 1px&quot;&gt;&lt;font style=&quot;font-size:11.29px;font-family:Calibri;color:#000000;direction:ltr;letter-spacing:0px;line-height:120%;opacity:1&quot;&gt;K2&lt;/font&gt;&lt;font style=&quot;font-size:11.29px;font-family:Themed;color:#000000;direction:ltr;letter-spacing:0px;line-height:120%;opacity:1&quot;&gt;&lt;br/&gt;&lt;/font&gt;&lt;/div&gt;" style="text;vsdxID=30;edgeStyle=none;startArrow=none;endArrow=block;startSize=5;endSize=5;strokeColor=none;spacingTop=0;spacingBottom=0;spacingLeft=0;spacingRight=0;verticalAlign=middle;html=1;labelBackgroundColor=#ffffff;rounded=1;align=center;overflow=width;fillColor=none;gradientColor=none;whiteSpace=wrap;;html=1;;rotation=270.05" parent="51" vertex="1">
          <mxGeometry width="25.43" height="24.84" relative="1" as="geometry">
            <mxPoint x="43.285" y="-12.42" as="offset" />
          </mxGeometry>
        </mxCell>
        <mxCell id="53" parent="1" vertex="1">
          <mxGeometry x="323" y="112" as="geometry" />
        </mxCell>
        <UserObject label="" tags="Connector" id="54">
          <mxCell style="vsdxID=29;edgeStyle=none;startArrow=none;endArrow=block;startSize=5;endSize=5;strokeColor=#000000;spacingTop=0;spacingBottom=0;spacingLeft=0;spacingRight=0;verticalAlign=middle;html=1;labelBackgroundColor=#ffffff;rounded=1;entryX=0.375;entryY=0;entryDx=0;entryDy=0;entryPerimeter=0;" parent="1" source="53" target="2" edge="1">
            <mxGeometry relative="1" as="geometry">
              <Array as="points" />
            </mxGeometry>
          </mxCell>
        </UserObject>
        <mxCell id="55" value="&lt;div style=&quot;font-size: 1px&quot;&gt;&lt;font style=&quot;font-size:11.29px;font-family:Calibri;color:#000000;direction:ltr;letter-spacing:0px;line-height:120%;opacity:1&quot;&gt;K1&lt;/font&gt;&lt;font style=&quot;font-size:11.29px;font-family:Themed;color:#000000;direction:ltr;letter-spacing:0px;line-height:120%;opacity:1&quot;&gt;&lt;br/&gt;&lt;/font&gt;&lt;/div&gt;" style="text;vsdxID=29;edgeStyle=none;startArrow=none;endArrow=block;startSize=5;endSize=5;strokeColor=none;spacingTop=0;spacingBottom=0;spacingLeft=0;spacingRight=0;verticalAlign=middle;html=1;labelBackgroundColor=#ffffff;rounded=1;align=center;overflow=width;fillColor=none;gradientColor=none;whiteSpace=wrap;;html=1;;rotation=270.05" parent="54" vertex="1">
          <mxGeometry width="25.43" height="24.84" relative="1" as="geometry">
            <mxPoint x="43.285" y="-12.42" as="offset" />
          </mxGeometry>
        </mxCell>
        <mxCell id="56" parent="1" vertex="1">
          <mxGeometry x="865" y="707" as="geometry" />
        </mxCell>
        <UserObject label="" tags="Connector" id="57">
          <mxCell style="vsdxID=28;edgeStyle=none;startArrow=none;endArrow=block;startSize=5;endSize=5;strokeColor=#000000;spacingTop=0;spacingBottom=0;spacingLeft=0;spacingRight=0;verticalAlign=middle;html=1;labelBackgroundColor=#ffffff;rounded=1;entryX=0.625;entryY=1;entryDx=0;entryDy=0;entryPerimeter=0;" parent="1" source="56" target="7" edge="1">
            <mxGeometry relative="1" as="geometry">
              <Array as="points" />
            </mxGeometry>
          </mxCell>
        </UserObject>
        <mxCell id="58" value="&lt;div style=&quot;font-size: 1px&quot;&gt;&lt;font style=&quot;font-size:11.29px;font-family:Calibri;color:#000000;direction:ltr;letter-spacing:0px;line-height:120%;opacity:1&quot;&gt;R2&lt;br/&gt;&lt;/font&gt;&lt;/div&gt;" style="text;vsdxID=28;edgeStyle=none;startArrow=none;endArrow=block;startSize=5;endSize=5;strokeColor=none;spacingTop=0;spacingBottom=0;spacingLeft=0;spacingRight=0;verticalAlign=middle;html=1;labelBackgroundColor=#ffffff;rounded=1;align=center;overflow=width;fillColor=none;gradientColor=none;whiteSpace=wrap;;html=1;;rotation=629.95" parent="57" vertex="1">
          <mxGeometry width="25.7" height="24.84" relative="1" as="geometry">
            <mxPoint x="44.15" y="-12.42" as="offset" />
          </mxGeometry>
        </mxCell>
        <mxCell id="59" parent="1" vertex="1">
          <mxGeometry x="104" y="264" as="geometry" />
        </mxCell>
        <UserObject label="&lt;div style=&quot;font-size: 1px&quot;&gt;&lt;font style=&quot;font-size:14.11px;font-family:Calibri;color:#000000;direction:ltr;letter-spacing:0px;line-height:120%;opacity:1&quot;&gt;Image/Video data&lt;br/&gt;&lt;/font&gt;&lt;/div&gt;" tags="Connector" id="60">
          <mxCell style="vsdxID=16;edgeStyle=none;startArrow=none;endArrow=block;startSize=5;endSize=5;strokeColor=#000000;spacingTop=0;spacingBottom=0;spacingLeft=0;spacingRight=0;verticalAlign=middle;html=1;labelBackgroundColor=#ffffff;rounded=1;align=center;entryX=0;entryY=0.5;entryDx=0;entryDy=0;entryPerimeter=0;" parent="1" source="59" target="2" edge="1">
            <mxGeometry relative="1" as="geometry">
              <mxPoint as="offset" />
              <Array as="points" />
            </mxGeometry>
          </mxCell>
        </UserObject>
        <mxCell id="61" parent="1" vertex="1">
          <mxGeometry x="1082" y="552" as="geometry" />
        </mxCell>
        <UserObject label="&lt;div style=&quot;font-size: 1px&quot;&gt;&lt;/div&gt;" tags="Connector" id="62">
          <mxCell style="vsdxID=17;edgeStyle=none;startArrow=none;endArrow=block;startSize=5;endSize=5;strokeColor=#000000;spacingTop=0;spacingBottom=0;spacingLeft=0;spacingRight=0;verticalAlign=middle;html=1;labelBackgroundColor=#ffffff;rounded=1;align=center;exitX=1;exitY=0.5;exitDx=0;exitDy=0;exitPerimeter=0;" parent="1" source="7" target="61" edge="1">
            <mxGeometry relative="1" as="geometry">
              <mxPoint as="offset" />
              <Array as="points" />
            </mxGeometry>
          </mxCell>
        </UserObject>
        <UserObject label="&lt;div style=&quot;font-size: 1px&quot;&gt;&lt;/div&gt;" tags="Connector" id="63">
          <mxCell style="vsdxID=18;edgeStyle=none;startArrow=none;endArrow=block;startSize=5;endSize=5;strokeColor=#000000;spacingTop=-1;spacingBottom=-1;spacingLeft=-1;spacingRight=-1;verticalAlign=middle;html=1;labelBackgroundColor=#ffffff;rounded=1;align=center;exitX=1;exitY=0.5;exitDx=0;exitDy=0;exitPerimeter=0;entryX=0;entryY=0.3375;entryDx=0;entryDy=0;entryPerimeter=0;" parent="1" source="2" target="12" edge="1">
            <mxGeometry x="-0.051" y="68" relative="1" as="geometry">
              <Array as="points" />
              <mxPoint as="offset" />
            </mxGeometry>
          </mxCell>
        </UserObject>
        <UserObject label="&lt;div style=&quot;font-size: 1px&quot;&gt;&lt;/div&gt;" tags="Connector" id="64">
          <mxCell style="vsdxID=22;edgeStyle=none;startArrow=none;endArrow=block;startSize=5;endSize=5;strokeColor=#000000;spacingTop=-1;spacingBottom=-1;spacingLeft=-1;spacingRight=-1;verticalAlign=middle;html=1;labelBackgroundColor=#ffffff;rounded=1;align=center;exitX=1;exitY=0.5;exitDx=0;exitDy=0;exitPerimeter=0;entryX=0;entryY=0.5;entryDx=0;entryDy=0;entryPerimeter=0;" parent="1" source="12" target="7" edge="1">
            <mxGeometry relative="1" as="geometry">
              <Array as="points" />
            </mxGeometry>
          </mxCell>
        </UserObject>
        <mxCell id="65" parent="1" vertex="1">
          <mxGeometry x="547" y="573" as="geometry" />
        </mxCell>
        <UserObject label="" tags="Connector" id="66">
          <mxCell style="vsdxID=26;edgeStyle=none;startArrow=none;endArrow=block;startSize=5;endSize=5;strokeColor=#000000;spacingTop=0;spacingBottom=0;spacingLeft=0;spacingRight=0;verticalAlign=middle;html=1;labelBackgroundColor=#ffffff;rounded=1;entryX=0.125;entryY=1;entryDx=0;entryDy=0;entryPerimeter=0;" parent="1" source="65" target="12" edge="1">
            <mxGeometry relative="1" as="geometry">
              <Array as="points" />
            </mxGeometry>
          </mxCell>
        </UserObject>
        <mxCell id="67" value="&lt;div style=&quot;font-size: 1px&quot;&gt;&lt;font style=&quot;font-size:11.29px;font-family:Calibri;color:#000000;direction:ltr;letter-spacing:0px;line-height:120%;opacity:1&quot;&gt;R3&lt;br/&gt;&lt;/font&gt;&lt;/div&gt;" style="text;vsdxID=26;edgeStyle=none;startArrow=none;endArrow=block;startSize=5;endSize=5;strokeColor=none;spacingTop=0;spacingBottom=0;spacingLeft=0;spacingRight=0;verticalAlign=middle;html=1;labelBackgroundColor=#ffffff;rounded=1;align=center;overflow=width;fillColor=none;gradientColor=none;whiteSpace=wrap;;html=1;;rotation=629.95" parent="66" vertex="1">
          <mxGeometry width="25.7" height="24.84" relative="1" as="geometry">
            <mxPoint x="47.15" y="-12.42" as="offset" />
          </mxGeometry>
        </mxCell>
        <mxCell id="68" parent="1" vertex="1">
          <mxGeometry x="323" y="425" as="geometry" />
        </mxCell>
        <UserObject label="" tags="Connector" id="69">
          <mxCell style="vsdxID=27;edgeStyle=none;startArrow=none;endArrow=block;startSize=5;endSize=5;strokeColor=#000000;spacingTop=0;spacingBottom=0;spacingLeft=0;spacingRight=0;verticalAlign=middle;html=1;labelBackgroundColor=#ffffff;rounded=1;entryX=0.375;entryY=1;entryDx=0;entryDy=0;entryPerimeter=0;" parent="1" source="68" target="2" edge="1">
            <mxGeometry relative="1" as="geometry">
              <Array as="points" />
            </mxGeometry>
          </mxCell>
        </UserObject>
        <mxCell id="70" value="&lt;div style=&quot;font-size: 1px&quot;&gt;&lt;font style=&quot;font-size:11.29px;font-family:Calibri;color:#000000;direction:ltr;letter-spacing:0px;line-height:120%;opacity:1&quot;&gt;R4&lt;br/&gt;&lt;/font&gt;&lt;/div&gt;" style="text;vsdxID=27;edgeStyle=none;startArrow=none;endArrow=block;startSize=5;endSize=5;strokeColor=none;spacingTop=0;spacingBottom=0;spacingLeft=0;spacingRight=0;verticalAlign=middle;html=1;labelBackgroundColor=#ffffff;rounded=1;align=center;overflow=width;fillColor=none;gradientColor=none;whiteSpace=wrap;;html=1;;rotation=629.95" parent="69" vertex="1">
          <mxGeometry width="25.7" height="24.84" relative="1" as="geometry">
            <mxPoint x="47.15" y="-12.42" as="offset" />
          </mxGeometry>
        </mxCell>
        <UserObject label="" tags="Connector Container Connector" id="71">
          <mxCell parent="1" vertex="1" visible="0">
            <mxGeometry as="geometry" />
          </mxCell>
        </UserObject>
      </root>
    </mxGraphModel>
  </diagram>
  <diagram name="A1" id="A1">
    <mxGraphModel style="default-style2">
      <root>
        <mxCell id="0" />
        <mxCell id="1" parent="0" />
        <UserObject label="" Node="A1" Title="Data preparation" tags="Фон" id="2">
          <mxCell style="vsdxID=1;fillColor=none;gradientColor=none;strokeColor=none;spacingTop=-1;spacingBottom=-1;spacingLeft=-1;spacingRight=-1;points=[[1,0,0],[1,0,0]];labelBackgroundColor=none;rounded=0;html=1;whiteSpace=wrap;" vertex="1" parent="1">
            <mxGeometry x="50" y="50" width="1088" height="740" as="geometry" />
          </mxCell>
        </UserObject>
        <mxCell id="3" value="&lt;div style=&quot;font-size: 1px&quot;&gt;&lt;p style=&quot;text-align:left;margin-left:0;margin-right:0;margin-top:0px;margin-bottom:0px;text-indent:0;vertical-align:middle;direction:ltr;&quot;&gt;&lt;font style=&quot;font-size:11.29px;font-family:Calibri;color:#000000;direction:ltr;letter-spacing:0px;line-height:120%;opacity:1&quot;&gt;TITLE:&lt;br/&gt;&lt;/font&gt;&lt;/p&gt;&lt;/div&gt;" style="verticalAlign=middle;align=left;overflow=width;vsdxID=2;fillColor=#ffffff;gradientColor=none;shape=stencil(nZBLDoAgDERP0z3SIyjew0SURgSD+Lu9kMZoXLhwN9O+tukAlrNpJg1SzDH4QW/URgNYgZTkjA4UkwJUgGXng+6DX1zLfmoymdXo17xh5zmRJ6Q42BWCfc2oJfdAr+Yv+AP9Cb7OJ3H/2JG1HNGz/84klThPVCc=);strokeColor=#000000;spacingTop=-1;spacingBottom=-1;spacingLeft=-1;spacingRight=-1;points=[[0,0,0],[1,0,0],[1,1,0],[0,1,0]];labelBackgroundColor=none;rounded=0;html=1;whiteSpace=wrap;" vertex="1" parent="2">
          <mxGeometry x="104" y="716" width="880" height="24" as="geometry" />
        </mxCell>
        <mxCell id="4" value="&lt;div style=&quot;font-size: 1px&quot;&gt;&lt;/div&gt;" style="verticalAlign=middle;align=center;overflow=width;vsdxID=3;fillColor=none;gradientColor=none;shape=stencil(nZBLDoAgDERP0z3SIyjew0SURgSD+Lu9kMZoXLhwN9O+tukAlrNpJg1SzDH4QW/URgNYgZTkjA4UkwJUgGXng+6DX1zLfmoymdXo17xh5zmRJ6Q42BWCfc2oJfdAr+Yv+AP9Cb7OJ3H/2JG1HNGz/84klThPVCc=);strokeColor=#000000;spacingTop=-1;spacingBottom=-1;spacingLeft=-1;spacingRight=-1;points=[[0,0,0],[1,0,0],[1,1,0],[0,1,0]];labelBackgroundColor=none;rounded=0;html=1;whiteSpace=wrap;" vertex="1" parent="2">
          <mxGeometry width="1088" height="740" as="geometry" />
        </mxCell>
        <mxCell id="5" value="&lt;div style=&quot;font-size: 1px&quot;&gt;&lt;p style=&quot;text-align:left;margin-left:0;margin-right:0;margin-top:0px;margin-bottom:0px;text-indent:0;vertical-align:middle;direction:ltr;&quot;&gt;&lt;font style=&quot;font-size:11.29px;font-family:Calibri;color:#000000;direction:ltr;letter-spacing:0px;line-height:120%;opacity:1&quot;&gt;NODE: &lt;br/&gt;&lt;/font&gt;&lt;/p&gt;&lt;/div&gt;" style="verticalAlign=middle;align=left;overflow=width;vsdxID=4;fillColor=#ffffff;gradientColor=none;shape=stencil(nZBLDoAgDERP0z3SIyjew0SURgSD+Lu9kMZoXLhwN9O+tukAlrNpJg1SzDH4QW/URgNYgZTkjA4UkwJUgGXng+6DX1zLfmoymdXo17xh5zmRJ6Q42BWCfc2oJfdAr+Yv+AP9Cb7OJ3H/2JG1HNGz/84klThPVCc=);strokeColor=#000000;spacingTop=-1;spacingBottom=-1;spacingLeft=-1;spacingRight=-1;points=[[0,0,0],[1,0,0],[1,1,0],[0,1,0]];labelBackgroundColor=none;rounded=0;html=1;whiteSpace=wrap;" vertex="1" parent="2">
          <mxGeometry y="716" width="104" height="24" as="geometry" />
        </mxCell>
        <mxCell id="6" value="&lt;div style=&quot;font-size: 1px&quot;&gt;&lt;p style=&quot;text-align:left;margin-left:0;margin-right:0;margin-top:0px;margin-bottom:0px;text-indent:0;vertical-align:middle;direction:ltr;&quot;&gt;&lt;font style=&quot;font-size:11.29px;font-family:Calibri;color:#000000;direction:ltr;letter-spacing:0px;line-height:120%;opacity:1&quot;&gt;NO.:&lt;br/&gt;&lt;/font&gt;&lt;/p&gt;&lt;/div&gt;" style="verticalAlign=middle;align=left;overflow=width;vsdxID=5;fillColor=#ffffff;gradientColor=none;shape=stencil(nZBLDoAgDERP0z3SIyjew0SURgSD+Lu9kMZoXLhwN9O+tukAlrNpJg1SzDH4QW/URgNYgZTkjA4UkwJUgGXng+6DX1zLfmoymdXo17xh5zmRJ6Q42BWCfc2oJfdAr+Yv+AP9Cb7OJ3H/2JG1HNGz/84klThPVCc=);strokeColor=#000000;spacingTop=-1;spacingBottom=-1;spacingLeft=-1;spacingRight=-1;points=[[0,0,0],[1,0,0],[1,1,0],[0,1,0]];labelBackgroundColor=none;rounded=0;html=1;whiteSpace=wrap;" vertex="1" parent="2">
          <mxGeometry x="984" y="716" width="104" height="24" as="geometry" />
        </mxCell>
        <mxCell id="7" value="&lt;div style=&quot;font-size: 1px&quot;&gt;&lt;p style=&quot;text-align:center;margin-left:0;margin-right:0;margin-top:0px;margin-bottom:0px;text-indent:0;vertical-align:middle;direction:ltr;&quot;&gt;&lt;font style=&quot;font-size:11.29px;font-family:Calibri;color:#000000;direction:ltr;letter-spacing:0px;line-height:120%;opacity:1&quot;&gt;&lt;br/&gt;&lt;/font&gt;&lt;/p&gt;&lt;/div&gt;" style="verticalAlign=middle;align=center;overflow=width;vsdxID=6;fillColor=none;gradientColor=none;strokeColor=none;spacingTop=-1;spacingBottom=-1;spacingLeft=-1;spacingRight=-1;points=[[0,0,0],[1,0,0],[1,1,0],[0,1,0]];labelBackgroundColor=none;rounded=0;html=1;whiteSpace=wrap;" vertex="1" parent="2">
          <mxGeometry x="1024" y="716" width="64" height="24" as="geometry" />
        </mxCell>
        <mxCell id="8" value="&lt;div style=&quot;font-size: 1px&quot;&gt;&lt;p style=&quot;text-align:center;margin-left:0;margin-right:0;margin-top:0px;margin-bottom:0px;text-indent:0;vertical-align:middle;direction:ltr;&quot;&gt;&lt;font style=&quot;font-size:11.29px;font-family:Calibri;color:#000000;direction:ltr;letter-spacing:0px;line-height:120%;opacity:1&quot;&gt;A1&lt;/font&gt;&lt;font style=&quot;font-size:11.29px;font-family:Calibri;color:#000000;direction:ltr;letter-spacing:0px;line-height:120%;opacity:1&quot;&gt;&lt;br/&gt;&lt;/font&gt;&lt;/p&gt;&lt;/div&gt;" style="verticalAlign=middle;align=center;overflow=width;vsdxID=7;fillColor=none;gradientColor=none;strokeColor=none;spacingTop=-1;spacingBottom=-1;spacingLeft=-1;spacingRight=-1;points=[[0,0,0],[1,0,0],[1,1,0],[0,1,0]];labelBackgroundColor=none;rounded=0;html=1;whiteSpace=wrap;" vertex="1" parent="2">
          <mxGeometry x="56" y="716" width="48" height="24" as="geometry" />
        </mxCell>
        <mxCell id="9" value="&lt;div style=&quot;font-size: 1px&quot;&gt;&lt;p style=&quot;text-align:center;margin-left:0;margin-right:0;margin-top:0px;margin-bottom:0px;text-indent:0;vertical-align:middle;direction:ltr;&quot;&gt;&lt;font style=&quot;font-size:11.29px;font-family:Calibri;color:#000000;direction:ltr;letter-spacing:0px;line-height:120%;opacity:1&quot;&gt;Data preparation&lt;/font&gt;&lt;font style=&quot;font-size:11.29px;font-family:Calibri;color:#000000;direction:ltr;letter-spacing:0px;line-height:120%;opacity:1&quot;&gt;&lt;br/&gt;&lt;/font&gt;&lt;/p&gt;&lt;/div&gt;" style="verticalAlign=middle;align=center;overflow=width;vsdxID=8;fillColor=none;gradientColor=none;strokeColor=none;spacingTop=-1;spacingBottom=-1;spacingLeft=-1;spacingRight=-1;points=[[0,0,0],[1,0,0],[1,1,0],[0,1,0]];labelBackgroundColor=none;rounded=0;html=1;whiteSpace=wrap;" vertex="1" parent="2">
          <mxGeometry x="152" y="716" width="832" height="24" as="geometry" />
        </mxCell>
        <UserObject label="" ID="A1.1" tags="Фон" id="10">
          <mxCell style="vsdxID=18;fillColor=none;gradientColor=none;strokeColor=none;spacingTop=-1;spacingBottom=-1;spacingLeft=-1;spacingRight=-1;points=[[0,0.17,0],[0,0.17,0],[0,0.17,0],[0,0.33,0],[0,0.33,0],[0,0.5,0],[0,0.5,0],[0,0.67,0],[0,0.67,0],[0,0.83,0],[0,0.83,0],[1,0.17,0],[1,0.17,0],[1,0.17,0],[1,0.33,0],[1,0.33,0],[1,0.5,0],[1,0.5,0],[1,0.67,0],[1,0.67,0],[1,0.83,0],[1,0.83,0],[0.13,0,0],[0.13,0,0],[0.13,0,0],[0.25,0,0],[0.25,0,0],[0.37,0,0],[0.37,0,0],[0.5,0,0],[0.5,0,0],[0.63,0,0],[0.63,0,0],[0.75,0,0],[0.75,0,0],[0.88,0,0],[0.88,0,0],[0.13,1,0],[0.13,1,0],[0.13,1,0],[0.25,1,0],[0.25,1,0],[0.37,1,0],[0.37,1,0],[0.5,1,0],[0.5,1,0],[0.63,1,0],[0.63,1,0],[0.75,1,0],[0.75,1,0],[0.88,1,0],[0.88,1,0]];labelBackgroundColor=none;rounded=0;html=1;whiteSpace=wrap;" vertex="1" parent="1">
            <mxGeometry x="316" y="260" width="120" height="80" as="geometry" />
          </mxCell>
        </UserObject>
        <mxCell id="11" style="vsdxID=19;fillColor=#ffffff;gradientColor=none;shape=stencil(nZBLDoAgDERP0z3SIyjew0SURgSD+Lu9kMZoXLhwN9O+tukAlrNpJg1SzDH4QW/URgNYgZTkjA4UkwJUgGXng+6DX1zLfmoymdXo17xh5zmRJ6Q42BWCfc2oJfdAr+Yv+AP9Cb7OJ3H/2JG1HNGz/84klThPVCc=);strokeColor=#000000;spacingTop=-1;spacingBottom=-1;spacingLeft=-1;spacingRight=-1;points=[[0,0.17,0],[0,0.17,0],[0,0.17,0],[0,0.33,0],[0,0.33,0],[0,0.5,0],[0,0.5,0],[0,0.67,0],[0,0.67,0],[0,0.83,0],[0,0.83,0],[1,0.17,0],[1,0.17,0],[1,0.17,0],[1,0.33,0],[1,0.33,0],[1,0.5,0],[1,0.5,0],[1,0.67,0],[1,0.67,0],[1,0.83,0],[1,0.83,0],[0.13,0,0],[0.13,0,0],[0.13,0,0],[0.25,0,0],[0.25,0,0],[0.37,0,0],[0.37,0,0],[0.5,0,0],[0.5,0,0],[0.63,0,0],[0.63,0,0],[0.75,0,0],[0.75,0,0],[0.88,0,0],[0.88,0,0],[0.13,1,0],[0.13,1,0],[0.13,1,0],[0.25,1,0],[0.25,1,0],[0.37,1,0],[0.37,1,0],[0.5,1,0],[0.5,1,0],[0.63,1,0],[0.63,1,0],[0.75,1,0],[0.75,1,0],[0.88,1,0],[0.88,1,0]];labelBackgroundColor=none;rounded=0;html=1;whiteSpace=wrap;" vertex="1" parent="10">
          <mxGeometry width="120" height="80" as="geometry" />
        </mxCell>
        <mxCell id="12" value="&lt;div style=&quot;font-size: 1px&quot;&gt;&lt;p style=&quot;text-align:right;margin-left:0;margin-right:0;margin-top:0px;margin-bottom:0px;text-indent:0;vertical-align:middle;direction:ltr;&quot;&gt;&lt;font style=&quot;font-size:14.11px;font-family:Calibri;color:#000000;direction:ltr;letter-spacing:0px;line-height:120%;opacity:1&quot;&gt;A1.1&lt;/font&gt;&lt;font style=&quot;font-size:14.11px;font-family:Calibri;color:#000000;direction:ltr;letter-spacing:0px;line-height:120%;opacity:1&quot;&gt;&lt;br/&gt;&lt;/font&gt;&lt;/p&gt;&lt;/div&gt;" style="verticalAlign=middle;align=right;overflow=width;vsdxID=20;fillColor=none;gradientColor=none;strokeColor=none;spacingTop=-3;spacingBottom=-3;points=[[0,0.17,0],[0,0.17,0],[0,0.17,0],[0,0.33,0],[0,0.33,0],[0,0.5,0],[0,0.5,0],[0,0.67,0],[0,0.67,0],[0,0.83,0],[0,0.83,0],[1,0.17,0],[1,0.17,0],[1,0.17,0],[1,0.33,0],[1,0.33,0],[1,0.5,0],[1,0.5,0],[1,0.67,0],[1,0.67,0],[1,0.83,0],[1,0.83,0],[0.13,0,0],[0.13,0,0],[0.13,0,0],[0.25,0,0],[0.25,0,0],[0.37,0,0],[0.37,0,0],[0.5,0,0],[0.5,0,0],[0.63,0,0],[0.63,0,0],[0.75,0,0],[0.75,0,0],[0.88,0,0],[0.88,0,0],[0.13,1,0],[0.13,1,0],[0.13,1,0],[0.25,1,0],[0.25,1,0],[0.37,1,0],[0.37,1,0],[0.5,1,0],[0.5,1,0],[0.63,1,0],[0.63,1,0],[0.75,1,0],[0.75,1,0],[0.88,1,0],[0.88,1,0]];labelBackgroundColor=none;rounded=0;html=1;whiteSpace=wrap;" vertex="1" parent="10">
          <mxGeometry x="-10" y="63" width="120" height="16" as="geometry" />
        </mxCell>
        <mxCell id="13" value="&lt;div style=&quot;font-size: 1px&quot;&gt;&lt;p style=&quot;text-align:right;margin-left:0;margin-right:0;margin-top:0px;margin-bottom:0px;text-indent:0;vertical-align:middle;direction:ltr;&quot;&gt;&lt;font style=&quot;font-size:14.11px;font-family:Calibri;color:#000000;direction:ltr;letter-spacing:0px;line-height:120%;opacity:1&quot;&gt;&lt;br/&gt;&lt;/font&gt;&lt;/p&gt;&lt;/div&gt;" style="verticalAlign=middle;align=right;overflow=width;vsdxID=21;fillColor=none;gradientColor=none;strokeColor=none;spacingBottom=-3;points=[[0,0.17,0],[0,0.17,0],[0,0.17,0],[0,0.33,0],[0,0.33,0],[0,0.5,0],[0,0.5,0],[0,0.67,0],[0,0.67,0],[0,0.83,0],[0,0.83,0],[1,0.17,0],[1,0.17,0],[1,0.17,0],[1,0.33,0],[1,0.33,0],[1,0.5,0],[1,0.5,0],[1,0.67,0],[1,0.67,0],[1,0.83,0],[1,0.83,0],[0.13,0,0],[0.13,0,0],[0.13,0,0],[0.25,0,0],[0.25,0,0],[0.37,0,0],[0.37,0,0],[0.5,0,0],[0.5,0,0],[0.63,0,0],[0.63,0,0],[0.75,0,0],[0.75,0,0],[0.88,0,0],[0.88,0,0],[0.13,1,0],[0.13,1,0],[0.13,1,0],[0.25,1,0],[0.25,1,0],[0.37,1,0],[0.37,1,0],[0.5,1,0],[0.5,1,0],[0.63,1,0],[0.63,1,0],[0.75,1,0],[0.75,1,0],[0.88,1,0],[0.88,1,0]];labelBackgroundColor=none;rounded=0;html=1;whiteSpace=wrap;" vertex="1" parent="10">
          <mxGeometry x="-10" y="80" width="120" height="22" as="geometry" />
        </mxCell>
        <mxCell id="14" value="&lt;div style=&quot;font-size: 1px&quot;&gt;&lt;font style=&quot;font-size:14.11px;font-family:Calibri;color:#000000;direction:ltr;letter-spacing:0px;line-height:120%;opacity:1&quot;&gt;Data selecting&lt;br/&gt;&lt;/font&gt;&lt;/div&gt;" style="verticalAlign=middle;align=center;overflow=width;vsdxID=22;fillColor=none;gradientColor=none;strokeColor=none;points=[[0,0.17,0],[0,0.17,0],[0,0.17,0],[0,0.33,0],[0,0.33,0],[0,0.5,0],[0,0.5,0],[0,0.67,0],[0,0.67,0],[0,0.83,0],[0,0.83,0],[1,0.17,0],[1,0.17,0],[1,0.17,0],[1,0.33,0],[1,0.33,0],[1,0.5,0],[1,0.5,0],[1,0.67,0],[1,0.67,0],[1,0.83,0],[1,0.83,0],[0.13,0,0],[0.13,0,0],[0.13,0,0],[0.25,0,0],[0.25,0,0],[0.37,0,0],[0.37,0,0],[0.5,0,0],[0.5,0,0],[0.63,0,0],[0.63,0,0],[0.75,0,0],[0.75,0,0],[0.88,0,0],[0.88,0,0],[0.13,1,0],[0.13,1,0],[0.13,1,0],[0.25,1,0],[0.25,1,0],[0.37,1,0],[0.37,1,0],[0.5,1,0],[0.5,1,0],[0.63,1,0],[0.63,1,0],[0.75,1,0],[0.75,1,0],[0.88,1,0],[0.88,1,0]];labelBackgroundColor=none;rounded=0;html=1;whiteSpace=wrap;" vertex="1" parent="10">
          <mxGeometry width="120" height="63" as="geometry" />
        </mxCell>
        <UserObject label="" Node="A1" Title="Data preparation" tags="Фон" id="15">
          <mxCell style="vsdxID=23;fillColor=none;gradientColor=none;strokeColor=none;spacingTop=-1;spacingBottom=-1;spacingLeft=-1;spacingRight=-1;points=[[1,0,0],[1,0,0]];labelBackgroundColor=none;rounded=0;html=1;whiteSpace=wrap;" vertex="1" parent="1">
            <mxGeometry x="50" y="50" width="1088" height="740" as="geometry" />
          </mxCell>
        </UserObject>
        <mxCell id="16" value="&lt;div style=&quot;font-size: 1px&quot;&gt;&lt;p style=&quot;text-align:left;margin-left:0;margin-right:0;margin-top:0px;margin-bottom:0px;text-indent:0;vertical-align:middle;direction:ltr;&quot;&gt;&lt;font style=&quot;font-size:11.29px;font-family:Calibri;color:#000000;direction:ltr;letter-spacing:0px;line-height:120%;opacity:1&quot;&gt;TITLE:&lt;br/&gt;&lt;/font&gt;&lt;/p&gt;&lt;/div&gt;" style="verticalAlign=middle;align=left;overflow=width;vsdxID=24;fillColor=#ffffff;gradientColor=none;shape=stencil(nZBLDoAgDERP0z3SIyjew0SURgSD+Lu9kMZoXLhwN9O+tukAlrNpJg1SzDH4QW/URgNYgZTkjA4UkwJUgGXng+6DX1zLfmoymdXo17xh5zmRJ6Q42BWCfc2oJfdAr+Yv+AP9Cb7OJ3H/2JG1HNGz/84klThPVCc=);strokeColor=#000000;spacingTop=-1;spacingBottom=-1;spacingLeft=-1;spacingRight=-1;points=[[0,0,0],[1,0,0],[1,1,0],[0,1,0]];labelBackgroundColor=none;rounded=0;html=1;whiteSpace=wrap;" vertex="1" parent="15">
          <mxGeometry x="104" y="716" width="880" height="24" as="geometry" />
        </mxCell>
        <mxCell id="17" value="&lt;div style=&quot;font-size: 1px&quot;&gt;&lt;/div&gt;" style="verticalAlign=middle;align=center;overflow=width;vsdxID=25;fillColor=none;gradientColor=none;shape=stencil(nZBLDoAgDERP0z3SIyjew0SURgSD+Lu9kMZoXLhwN9O+tukAlrNpJg1SzDH4QW/URgNYgZTkjA4UkwJUgGXng+6DX1zLfmoymdXo17xh5zmRJ6Q42BWCfc2oJfdAr+Yv+AP9Cb7OJ3H/2JG1HNGz/84klThPVCc=);strokeColor=#000000;spacingTop=-1;spacingBottom=-1;spacingLeft=-1;spacingRight=-1;points=[[0,0,0],[1,0,0],[1,1,0],[0,1,0]];labelBackgroundColor=none;rounded=0;html=1;whiteSpace=wrap;" vertex="1" parent="15">
          <mxGeometry width="1088" height="740" as="geometry" />
        </mxCell>
        <mxCell id="18" value="&lt;div style=&quot;font-size: 1px&quot;&gt;&lt;p style=&quot;text-align:left;margin-left:0;margin-right:0;margin-top:0px;margin-bottom:0px;text-indent:0;vertical-align:middle;direction:ltr;&quot;&gt;&lt;font style=&quot;font-size:11.29px;font-family:Calibri;color:#000000;direction:ltr;letter-spacing:0px;line-height:120%;opacity:1&quot;&gt;NODE: &lt;br/&gt;&lt;/font&gt;&lt;/p&gt;&lt;/div&gt;" style="verticalAlign=middle;align=left;overflow=width;vsdxID=26;fillColor=#ffffff;gradientColor=none;shape=stencil(nZBLDoAgDERP0z3SIyjew0SURgSD+Lu9kMZoXLhwN9O+tukAlrNpJg1SzDH4QW/URgNYgZTkjA4UkwJUgGXng+6DX1zLfmoymdXo17xh5zmRJ6Q42BWCfc2oJfdAr+Yv+AP9Cb7OJ3H/2JG1HNGz/84klThPVCc=);strokeColor=#000000;spacingTop=-1;spacingBottom=-1;spacingLeft=-1;spacingRight=-1;points=[[0,0,0],[1,0,0],[1,1,0],[0,1,0]];labelBackgroundColor=none;rounded=0;html=1;whiteSpace=wrap;" vertex="1" parent="15">
          <mxGeometry y="716" width="104" height="24" as="geometry" />
        </mxCell>
        <mxCell id="19" value="&lt;div style=&quot;font-size: 1px&quot;&gt;&lt;p style=&quot;text-align:left;margin-left:0;margin-right:0;margin-top:0px;margin-bottom:0px;text-indent:0;vertical-align:middle;direction:ltr;&quot;&gt;&lt;font style=&quot;font-size:11.29px;font-family:Calibri;color:#000000;direction:ltr;letter-spacing:0px;line-height:120%;opacity:1&quot;&gt;NO.:&lt;br/&gt;&lt;/font&gt;&lt;/p&gt;&lt;/div&gt;" style="verticalAlign=middle;align=left;overflow=width;vsdxID=27;fillColor=#ffffff;gradientColor=none;shape=stencil(nZBLDoAgDERP0z3SIyjew0SURgSD+Lu9kMZoXLhwN9O+tukAlrNpJg1SzDH4QW/URgNYgZTkjA4UkwJUgGXng+6DX1zLfmoymdXo17xh5zmRJ6Q42BWCfc2oJfdAr+Yv+AP9Cb7OJ3H/2JG1HNGz/84klThPVCc=);strokeColor=#000000;spacingTop=-1;spacingBottom=-1;spacingLeft=-1;spacingRight=-1;points=[[0,0,0],[1,0,0],[1,1,0],[0,1,0]];labelBackgroundColor=none;rounded=0;html=1;whiteSpace=wrap;" vertex="1" parent="15">
          <mxGeometry x="984" y="716" width="104" height="24" as="geometry" />
        </mxCell>
        <mxCell id="20" value="&lt;div style=&quot;font-size: 1px&quot;&gt;&lt;p style=&quot;text-align:center;margin-left:0;margin-right:0;margin-top:0px;margin-bottom:0px;text-indent:0;vertical-align:middle;direction:ltr;&quot;&gt;&lt;font style=&quot;font-size:11.29px;font-family:Calibri;color:#000000;direction:ltr;letter-spacing:0px;line-height:120%;opacity:1&quot;&gt;&lt;br/&gt;&lt;/font&gt;&lt;/p&gt;&lt;/div&gt;" style="verticalAlign=middle;align=center;overflow=width;vsdxID=28;fillColor=none;gradientColor=none;strokeColor=none;spacingTop=-1;spacingBottom=-1;spacingLeft=-1;spacingRight=-1;points=[[0,0,0],[1,0,0],[1,1,0],[0,1,0]];labelBackgroundColor=none;rounded=0;html=1;whiteSpace=wrap;" vertex="1" parent="15">
          <mxGeometry x="1024" y="716" width="64" height="24" as="geometry" />
        </mxCell>
        <mxCell id="21" value="&lt;div style=&quot;font-size: 1px&quot;&gt;&lt;p style=&quot;text-align:center;margin-left:0;margin-right:0;margin-top:0px;margin-bottom:0px;text-indent:0;vertical-align:middle;direction:ltr;&quot;&gt;&lt;font style=&quot;font-size:11.29px;font-family:Calibri;color:#000000;direction:ltr;letter-spacing:0px;line-height:120%;opacity:1&quot;&gt;A1&lt;/font&gt;&lt;font style=&quot;font-size:11.29px;font-family:Calibri;color:#000000;direction:ltr;letter-spacing:0px;line-height:120%;opacity:1&quot;&gt;&lt;br/&gt;&lt;/font&gt;&lt;/p&gt;&lt;/div&gt;" style="verticalAlign=middle;align=center;overflow=width;vsdxID=29;fillColor=none;gradientColor=none;strokeColor=none;spacingTop=-1;spacingBottom=-1;spacingLeft=-1;spacingRight=-1;points=[[0,0,0],[1,0,0],[1,1,0],[0,1,0]];labelBackgroundColor=none;rounded=0;html=1;whiteSpace=wrap;" vertex="1" parent="15">
          <mxGeometry x="56" y="716" width="48" height="24" as="geometry" />
        </mxCell>
        <mxCell id="22" value="&lt;div style=&quot;font-size: 1px&quot;&gt;&lt;p style=&quot;text-align:center;margin-left:0;margin-right:0;margin-top:0px;margin-bottom:0px;text-indent:0;vertical-align:middle;direction:ltr;&quot;&gt;&lt;font style=&quot;font-size:11.29px;font-family:Calibri;color:#000000;direction:ltr;letter-spacing:0px;line-height:120%;opacity:1&quot;&gt;Data preparation&lt;/font&gt;&lt;font style=&quot;font-size:11.29px;font-family:Calibri;color:#000000;direction:ltr;letter-spacing:0px;line-height:120%;opacity:1&quot;&gt;&lt;br/&gt;&lt;/font&gt;&lt;/p&gt;&lt;/div&gt;" style="verticalAlign=middle;align=center;overflow=width;vsdxID=30;fillColor=none;gradientColor=none;strokeColor=none;spacingTop=-1;spacingBottom=-1;spacingLeft=-1;spacingRight=-1;points=[[0,0,0],[1,0,0],[1,1,0],[0,1,0]];labelBackgroundColor=none;rounded=0;html=1;whiteSpace=wrap;" vertex="1" parent="15">
          <mxGeometry x="152" y="716" width="832" height="24" as="geometry" />
        </mxCell>
        <UserObject label="" ID="A1.2" Name="Data labeling" tags="Фон" id="23">
          <mxCell style="vsdxID=31;fillColor=none;gradientColor=none;strokeColor=none;spacingTop=-1;spacingBottom=-1;spacingLeft=-1;spacingRight=-1;points=[[0,0.17,0],[0,0.17,0],[0,0.17,0],[0,0.33,0],[0,0.33,0],[0,0.5,0],[0,0.5,0],[0,0.67,0],[0,0.67,0],[0,0.83,0],[0,0.83,0],[1,0.17,0],[1,0.17,0],[1,0.17,0],[1,0.33,0],[1,0.33,0],[1,0.5,0],[1,0.5,0],[1,0.67,0],[1,0.67,0],[1,0.83,0],[1,0.83,0],[0.13,0,0],[0.13,0,0],[0.13,0,0],[0.25,0,0],[0.25,0,0],[0.37,0,0],[0.37,0,0],[0.5,0,0],[0.5,0,0],[0.63,0,0],[0.63,0,0],[0.75,0,0],[0.75,0,0],[0.88,0,0],[0.88,0,0],[0.13,1,0],[0.13,1,0],[0.13,1,0],[0.25,1,0],[0.25,1,0],[0.37,1,0],[0.37,1,0],[0.5,1,0],[0.5,1,0],[0.63,1,0],[0.63,1,0],[0.75,1,0],[0.75,1,0],[0.88,1,0],[0.88,1,0]];labelBackgroundColor=none;rounded=0;html=1;whiteSpace=wrap;" vertex="1" parent="1">
            <mxGeometry x="680" y="476" width="120" height="80" as="geometry" />
          </mxCell>
        </UserObject>
        <mxCell id="24" style="vsdxID=32;fillColor=#ffffff;gradientColor=none;shape=stencil(nZBLDoAgDERP0z3SIyjew0SURgSD+Lu9kMZoXLhwN9O+tukAlrNpJg1SzDH4QW/URgNYgZTkjA4UkwJUgGXng+6DX1zLfmoymdXo17xh5zmRJ6Q42BWCfc2oJfdAr+Yv+AP9Cb7OJ3H/2JG1HNGz/84klThPVCc=);strokeColor=#000000;spacingTop=-1;spacingBottom=-1;spacingLeft=-1;spacingRight=-1;points=[[0,0.17,0],[0,0.17,0],[0,0.17,0],[0,0.33,0],[0,0.33,0],[0,0.5,0],[0,0.5,0],[0,0.67,0],[0,0.67,0],[0,0.83,0],[0,0.83,0],[1,0.17,0],[1,0.17,0],[1,0.17,0],[1,0.33,0],[1,0.33,0],[1,0.5,0],[1,0.5,0],[1,0.67,0],[1,0.67,0],[1,0.83,0],[1,0.83,0],[0.13,0,0],[0.13,0,0],[0.13,0,0],[0.25,0,0],[0.25,0,0],[0.37,0,0],[0.37,0,0],[0.5,0,0],[0.5,0,0],[0.63,0,0],[0.63,0,0],[0.75,0,0],[0.75,0,0],[0.88,0,0],[0.88,0,0],[0.13,1,0],[0.13,1,0],[0.13,1,0],[0.25,1,0],[0.25,1,0],[0.37,1,0],[0.37,1,0],[0.5,1,0],[0.5,1,0],[0.63,1,0],[0.63,1,0],[0.75,1,0],[0.75,1,0],[0.88,1,0],[0.88,1,0]];labelBackgroundColor=none;rounded=0;html=1;whiteSpace=wrap;" vertex="1" parent="23">
          <mxGeometry width="120" height="80" as="geometry" />
        </mxCell>
        <mxCell id="25" value="&lt;div style=&quot;font-size: 1px&quot;&gt;&lt;p style=&quot;text-align:right;margin-left:0;margin-right:0;margin-top:0px;margin-bottom:0px;text-indent:0;vertical-align:middle;direction:ltr;&quot;&gt;&lt;font style=&quot;font-size:14.11px;font-family:Calibri;color:#000000;direction:ltr;letter-spacing:0px;line-height:120%;opacity:1&quot;&gt;A1.2&lt;/font&gt;&lt;font style=&quot;font-size:14.11px;font-family:Calibri;color:#000000;direction:ltr;letter-spacing:0px;line-height:120%;opacity:1&quot;&gt;&lt;br/&gt;&lt;/font&gt;&lt;/p&gt;&lt;/div&gt;" style="verticalAlign=middle;align=right;overflow=width;vsdxID=33;fillColor=none;gradientColor=none;strokeColor=none;spacingTop=-3;spacingBottom=-3;points=[[0,0.17,0],[0,0.17,0],[0,0.17,0],[0,0.33,0],[0,0.33,0],[0,0.5,0],[0,0.5,0],[0,0.67,0],[0,0.67,0],[0,0.83,0],[0,0.83,0],[1,0.17,0],[1,0.17,0],[1,0.17,0],[1,0.33,0],[1,0.33,0],[1,0.5,0],[1,0.5,0],[1,0.67,0],[1,0.67,0],[1,0.83,0],[1,0.83,0],[0.13,0,0],[0.13,0,0],[0.13,0,0],[0.25,0,0],[0.25,0,0],[0.37,0,0],[0.37,0,0],[0.5,0,0],[0.5,0,0],[0.63,0,0],[0.63,0,0],[0.75,0,0],[0.75,0,0],[0.88,0,0],[0.88,0,0],[0.13,1,0],[0.13,1,0],[0.13,1,0],[0.25,1,0],[0.25,1,0],[0.37,1,0],[0.37,1,0],[0.5,1,0],[0.5,1,0],[0.63,1,0],[0.63,1,0],[0.75,1,0],[0.75,1,0],[0.88,1,0],[0.88,1,0]];labelBackgroundColor=none;rounded=0;html=1;whiteSpace=wrap;" vertex="1" parent="23">
          <mxGeometry x="-10" y="63" width="120" height="16" as="geometry" />
        </mxCell>
        <mxCell id="26" value="&lt;div style=&quot;font-size: 1px&quot;&gt;&lt;p style=&quot;text-align:right;margin-left:0;margin-right:0;margin-top:0px;margin-bottom:0px;text-indent:0;vertical-align:middle;direction:ltr;&quot;&gt;&lt;font style=&quot;font-size:14.11px;font-family:Calibri;color:#000000;direction:ltr;letter-spacing:0px;line-height:120%;opacity:1&quot;&gt;&lt;br/&gt;&lt;/font&gt;&lt;/p&gt;&lt;/div&gt;" style="verticalAlign=middle;align=right;overflow=width;vsdxID=34;fillColor=none;gradientColor=none;strokeColor=none;spacingBottom=-3;points=[[0,0.17,0],[0,0.17,0],[0,0.17,0],[0,0.33,0],[0,0.33,0],[0,0.5,0],[0,0.5,0],[0,0.67,0],[0,0.67,0],[0,0.83,0],[0,0.83,0],[1,0.17,0],[1,0.17,0],[1,0.17,0],[1,0.33,0],[1,0.33,0],[1,0.5,0],[1,0.5,0],[1,0.67,0],[1,0.67,0],[1,0.83,0],[1,0.83,0],[0.13,0,0],[0.13,0,0],[0.13,0,0],[0.25,0,0],[0.25,0,0],[0.37,0,0],[0.37,0,0],[0.5,0,0],[0.5,0,0],[0.63,0,0],[0.63,0,0],[0.75,0,0],[0.75,0,0],[0.88,0,0],[0.88,0,0],[0.13,1,0],[0.13,1,0],[0.13,1,0],[0.25,1,0],[0.25,1,0],[0.37,1,0],[0.37,1,0],[0.5,1,0],[0.5,1,0],[0.63,1,0],[0.63,1,0],[0.75,1,0],[0.75,1,0],[0.88,1,0],[0.88,1,0]];labelBackgroundColor=none;rounded=0;html=1;whiteSpace=wrap;" vertex="1" parent="23">
          <mxGeometry x="-10" y="80" width="120" height="22" as="geometry" />
        </mxCell>
        <mxCell id="27" value="&lt;div style=&quot;font-size: 1px&quot;&gt;&lt;p style=&quot;text-align:center;margin-left:0;margin-right:0;margin-top:0px;margin-bottom:0px;text-indent:0;vertical-align:middle;direction:ltr;&quot;&gt;&lt;font style=&quot;font-size:14.11px;font-family:Calibri;color:#000000;direction:ltr;letter-spacing:0px;line-height:120%;opacity:1&quot;&gt;Data labeling&lt;/font&gt;&lt;font style=&quot;font-size:14.11px;font-family:Calibri;color:#000000;direction:ltr;letter-spacing:0px;line-height:120%;opacity:1&quot;&gt;&lt;br/&gt;&lt;/font&gt;&lt;/p&gt;&lt;/div&gt;" style="verticalAlign=middle;align=center;overflow=width;vsdxID=35;fillColor=none;gradientColor=none;strokeColor=none;points=[[0,0.17,0],[0,0.17,0],[0,0.17,0],[0,0.33,0],[0,0.33,0],[0,0.5,0],[0,0.5,0],[0,0.67,0],[0,0.67,0],[0,0.83,0],[0,0.83,0],[1,0.17,0],[1,0.17,0],[1,0.17,0],[1,0.33,0],[1,0.33,0],[1,0.5,0],[1,0.5,0],[1,0.67,0],[1,0.67,0],[1,0.83,0],[1,0.83,0],[0.13,0,0],[0.13,0,0],[0.13,0,0],[0.25,0,0],[0.25,0,0],[0.37,0,0],[0.37,0,0],[0.5,0,0],[0.5,0,0],[0.63,0,0],[0.63,0,0],[0.75,0,0],[0.75,0,0],[0.88,0,0],[0.88,0,0],[0.13,1,0],[0.13,1,0],[0.13,1,0],[0.25,1,0],[0.25,1,0],[0.37,1,0],[0.37,1,0],[0.5,1,0],[0.5,1,0],[0.63,1,0],[0.63,1,0],[0.75,1,0],[0.75,1,0],[0.88,1,0],[0.88,1,0]];labelBackgroundColor=none;rounded=0;html=1;whiteSpace=wrap;" vertex="1" parent="23">
          <mxGeometry width="120" height="63" as="geometry" />
        </mxCell>
        <UserObject label="&lt;div style=&quot;font-size: 1px&quot;&gt;&lt;font style=&quot;font-size:14.11px;font-family:Calibri;color:#000000;direction:ltr;letter-spacing:0px;line-height:120%;opacity:1&quot;&gt;Collected data&lt;/font&gt;&lt;font style=&quot;font-size:14.11px;font-family:Themed;color:#000000;direction:ltr;letter-spacing:0px;line-height:120%;opacity:1&quot;&gt;&lt;br/&gt;&lt;/font&gt;&lt;/div&gt;" tags="Фон" id="28">
          <mxCell style="verticalAlign=middle;align=left;overflow=width;vsdxID=48;fillColor=none;gradientColor=none;shape=stencil(nZBLDoAgDERP0z3SIyjew0SURgSD+Lu9kMZoXLhwN9O+tukAlrNpJg1SzDH4QW/URgNYgZTkjA4UkwJUgGXng+6DX1zLfmoymdXo17xh5zmRJ6Q42BWCfc2oJfdAr+Yv+AP9Cb7OJ3H/2JG1HNGz/84klThPVCc=);strokeColor=none;strokeWidth=2;spacingTop=-1;spacingBottom=-1;spacingLeft=-1;spacingRight=-1;points=[];labelBackgroundColor=none;rounded=0;html=1;whiteSpace=wrap;" vertex="1" parent="1">
            <mxGeometry x="515" y="265" width="90" height="30" as="geometry" />
          </mxCell>
        </UserObject>
        <UserObject label="&lt;div style=&quot;font-size: 1px&quot;&gt;&lt;font style=&quot;font-size:11.29px;font-family:Calibri;color:#000000;direction:ltr;letter-spacing:0px;line-height:120%;opacity:1&quot;&gt;K1 – Pothholes parameters: 0.09 sq.m.&lt;br/&gt;K4 – Requirements for data labling&lt;br/&gt;&lt;/font&gt;&lt;/div&gt;" tags="Фон" id="29">
          <mxCell style="verticalAlign=middle;align=left;overflow=width;vsdxID=54;fillColor=none;gradientColor=none;shape=stencil(nZBLDoAgDERP0z3SIyjew0SURgSD+Lu9kMZoXLhwN9O+tukAlrNpJg1SzDH4QW/URgNYgZTkjA4UkwJUgGXng+6DX1zLfmoymdXo17xh5zmRJ6Q42BWCfc2oJfdAr+Yv+AP9Cb7OJ3H/2JG1HNGz/84klThPVCc=);strokeColor=none;strokeWidth=2;spacingTop=-1;spacingBottom=-1;spacingLeft=-1;spacingRight=-1;points=[];labelBackgroundColor=none;rounded=0;html=1;whiteSpace=wrap;" vertex="1" parent="1">
            <mxGeometry x="829" y="140" width="261" height="68" as="geometry" />
          </mxCell>
        </UserObject>
        <UserObject label="&lt;div style=&quot;font-size: 1px&quot;&gt;&lt;font style=&quot;font-size:11.29px;font-family:Calibri;color:#000000;direction:ltr;letter-spacing:0px;line-height:120%;opacity:1&quot;&gt;R4 – Dataset for NN training&lt;br/&gt;R5 – Tools &amp;amp; Technologies for NN preparation&lt;br/&gt;&lt;/font&gt;&lt;/div&gt;" tags="Фон" id="30">
          <mxCell style="verticalAlign=middle;align=left;overflow=width;vsdxID=63;fillColor=none;gradientColor=none;shape=stencil(nZBLDoAgDERP0z3SIyjew0SURgSD+Lu9kMZoXLhwN9O+tukAlrNpJg1SzDH4QW/URgNYgZTkjA4UkwJUgGXng+6DX1zLfmoymdXo17xh5zmRJ6Q42BWCfc2oJfdAr+Yv+AP9Cb7OJ3H/2JG1HNGz/84klThPVCc=);strokeColor=none;strokeWidth=2;spacingTop=-1;spacingBottom=-1;spacingLeft=-1;spacingRight=-1;points=[];labelBackgroundColor=none;rounded=0;html=1;whiteSpace=wrap;" vertex="1" parent="1">
            <mxGeometry x="160" y="580" width="261" height="96" as="geometry" />
          </mxCell>
        </UserObject>
        <mxCell id="31" vertex="1" parent="1">
          <mxGeometry x="755" y="364" as="geometry" />
        </mxCell>
        <UserObject label="" tags="Connector" id="32">
          <mxCell style="vsdxID=55;edgeStyle=none;startArrow=none;endArrow=block;startSize=5;endSize=5;strokeColor=#000000;spacingTop=0;spacingBottom=0;spacingLeft=0;spacingRight=0;verticalAlign=middle;html=1;labelBackgroundColor=#ffffff;rounded=1;entryX=0.625;entryY=0;entryDx=0;entryDy=0;entryPerimeter=0;" edge="1" parent="1" source="31" target="23">
            <mxGeometry relative="1" as="geometry">
              <Array as="points" />
            </mxGeometry>
          </mxCell>
        </UserObject>
        <mxCell id="33" value="&lt;div style=&quot;font-size: 1px&quot;&gt;&lt;font style=&quot;font-size:11.29px;font-family:Calibri;color:#000000;direction:ltr;letter-spacing:0px;line-height:120%;opacity:1&quot;&gt;K4&lt;/font&gt;&lt;font style=&quot;font-size:11.29px;font-family:Themed;color:#000000;direction:ltr;letter-spacing:0px;line-height:120%;opacity:1&quot;&gt;&lt;br/&gt;&lt;/font&gt;&lt;/div&gt;" style="text;vsdxID=55;edgeStyle=none;startArrow=none;endArrow=block;startSize=5;endSize=5;strokeColor=none;spacingTop=0;spacingBottom=0;spacingLeft=0;spacingRight=0;verticalAlign=middle;html=1;labelBackgroundColor=#ffffff;rounded=1;align=center;overflow=width;fillColor=none;gradientColor=none;whiteSpace=wrap;;html=1;;rotation=270.05" vertex="1" parent="32">
          <mxGeometry width="25.43" height="24.84" relative="1" as="geometry">
            <mxPoint x="43.285" y="-12.42" as="offset" />
          </mxGeometry>
        </mxCell>
        <mxCell id="34" vertex="1" parent="1">
          <mxGeometry x="1008" y="516" as="geometry" />
        </mxCell>
        <UserObject label="&lt;div style=&quot;font-size: 1px&quot;&gt;&lt;font style=&quot;font-size:14.11px;font-family:Calibri;color:#000000;direction:ltr;letter-spacing:0px;line-height:120%;opacity:1&quot;&gt;Labeled data&lt;br/&gt;&lt;/font&gt;&lt;/div&gt;" tags="Connector" id="35">
          <mxCell style="vsdxID=17;edgeStyle=none;startArrow=none;endArrow=block;startSize=5;endSize=5;strokeColor=#000000;spacingTop=0;spacingBottom=0;spacingLeft=0;spacingRight=0;verticalAlign=middle;html=1;labelBackgroundColor=#ffffff;rounded=1;align=center;exitX=1;exitY=0.5;exitDx=0;exitDy=0;exitPerimeter=0;" edge="1" parent="1" source="23" target="34">
            <mxGeometry relative="1" as="geometry">
              <mxPoint as="offset" />
              <Array as="points" />
            </mxGeometry>
          </mxCell>
        </UserObject>
        <UserObject label="&lt;div style=&quot;font-size: 1px&quot;&gt;&lt;/div&gt;" tags="Connector" id="36">
          <mxCell style="vsdxID=36;edgeStyle=none;startArrow=none;endArrow=block;startSize=5;endSize=5;strokeColor=#000000;spacingTop=-1;spacingBottom=-1;spacingLeft=-1;spacingRight=-1;verticalAlign=middle;html=1;labelBackgroundColor=#ffffff;rounded=1;align=center;exitX=1;exitY=0.5;exitDx=0;exitDy=0;exitPerimeter=0;entryX=0;entryY=0.5;entryDx=0;entryDy=0;entryPerimeter=0;" edge="1" parent="1" source="10" target="23">
            <mxGeometry relative="1" as="geometry">
              <Array as="points" />
            </mxGeometry>
          </mxCell>
        </UserObject>
        <mxCell id="37" vertex="1" parent="1">
          <mxGeometry x="376" y="460" as="geometry" />
        </mxCell>
        <UserObject label="" tags="Connector" id="38">
          <mxCell style="vsdxID=40;edgeStyle=none;startArrow=none;endArrow=block;startSize=5;endSize=5;strokeColor=#000000;spacingTop=0;spacingBottom=0;spacingLeft=0;spacingRight=0;verticalAlign=middle;html=1;labelBackgroundColor=#ffffff;rounded=1;entryX=0.5;entryY=1;entryDx=0;entryDy=0;entryPerimeter=0;" edge="1" parent="1" source="37" target="10">
            <mxGeometry relative="1" as="geometry">
              <Array as="points" />
            </mxGeometry>
          </mxCell>
        </UserObject>
        <mxCell id="39" value="&lt;div style=&quot;font-size: 1px&quot;&gt;&lt;font style=&quot;font-size:11.29px;font-family:Calibri;color:#000000;direction:ltr;letter-spacing:0px;line-height:120%;opacity:1&quot;&gt;R4&lt;br/&gt;&lt;/font&gt;&lt;/div&gt;" style="text;vsdxID=40;edgeStyle=none;startArrow=none;endArrow=block;startSize=5;endSize=5;strokeColor=none;spacingTop=0;spacingBottom=0;spacingLeft=0;spacingRight=0;verticalAlign=middle;html=1;labelBackgroundColor=#ffffff;rounded=1;align=center;overflow=width;fillColor=none;gradientColor=none;whiteSpace=wrap;;html=1;;rotation=629.95" vertex="1" parent="38">
          <mxGeometry width="25.7" height="24.84" relative="1" as="geometry">
            <mxPoint x="47.15" y="-12.42" as="offset" />
          </mxGeometry>
        </mxCell>
        <mxCell id="40" vertex="1" parent="1">
          <mxGeometry x="740" y="676" as="geometry" />
        </mxCell>
        <UserObject label="" tags="Connector" id="41">
          <mxCell style="vsdxID=41;edgeStyle=none;startArrow=none;endArrow=block;startSize=5;endSize=5;strokeColor=#000000;spacingTop=0;spacingBottom=0;spacingLeft=0;spacingRight=0;verticalAlign=middle;html=1;labelBackgroundColor=#ffffff;rounded=1;entryX=0.5;entryY=1;entryDx=0;entryDy=0;entryPerimeter=0;" edge="1" parent="1" source="40" target="23">
            <mxGeometry relative="1" as="geometry">
              <Array as="points" />
            </mxGeometry>
          </mxCell>
        </UserObject>
        <mxCell id="42" value="&lt;div style=&quot;font-size: 1px&quot;&gt;&lt;font style=&quot;font-size:11.29px;font-family:Calibri;color:#000000;direction:ltr;letter-spacing:0px;line-height:120%;opacity:1&quot;&gt;R5&lt;br/&gt;&lt;/font&gt;&lt;/div&gt;" style="text;vsdxID=41;edgeStyle=none;startArrow=none;endArrow=block;startSize=5;endSize=5;strokeColor=none;spacingTop=0;spacingBottom=0;spacingLeft=0;spacingRight=0;verticalAlign=middle;html=1;labelBackgroundColor=#ffffff;rounded=1;align=center;overflow=width;fillColor=none;gradientColor=none;whiteSpace=wrap;;html=1;;rotation=629.95" vertex="1" parent="41">
          <mxGeometry width="25.7" height="24.84" relative="1" as="geometry">
            <mxPoint x="47.15" y="-12.42" as="offset" />
          </mxGeometry>
        </mxCell>
        <mxCell id="43" vertex="1" parent="1">
          <mxGeometry x="725" y="166" as="geometry" />
        </mxCell>
        <UserObject label="" tags="Connector" id="44">
          <mxCell style="vsdxID=44;edgeStyle=none;startArrow=none;endArrow=block;startSize=5;endSize=5;strokeColor=#000000;spacingTop=0;spacingBottom=0;spacingLeft=0;spacingRight=0;verticalAlign=middle;html=1;labelBackgroundColor=#ffffff;rounded=1;entryX=0.375;entryY=0;entryDx=0;entryDy=0;entryPerimeter=0;" edge="1" parent="1" source="43" target="23">
            <mxGeometry relative="1" as="geometry">
              <Array as="points" />
            </mxGeometry>
          </mxCell>
        </UserObject>
        <mxCell id="45" value="&lt;div style=&quot;font-size: 1px&quot;&gt;&lt;font style=&quot;font-size:11.29px;font-family:Calibri;color:#000000;direction:ltr;letter-spacing:0px;line-height:120%;opacity:1&quot;&gt;K1&lt;/font&gt;&lt;font style=&quot;font-size:11.29px;font-family:Themed;color:#000000;direction:ltr;letter-spacing:0px;line-height:120%;opacity:1&quot;&gt;&lt;br/&gt;&lt;/font&gt;&lt;/div&gt;" style="text;vsdxID=44;edgeStyle=none;startArrow=none;endArrow=block;startSize=5;endSize=5;strokeColor=none;spacingTop=0;spacingBottom=0;spacingLeft=0;spacingRight=0;verticalAlign=middle;html=1;labelBackgroundColor=#ffffff;rounded=1;align=center;overflow=width;fillColor=none;gradientColor=none;whiteSpace=wrap;;html=1;;rotation=270.05" vertex="1" parent="44">
          <mxGeometry width="25.43" height="24.84" relative="1" as="geometry">
            <mxPoint x="141.285" y="-12.42" as="offset" />
          </mxGeometry>
        </mxCell>
        <mxCell id="46" vertex="1" parent="1">
          <mxGeometry x="151" y="300" as="geometry" />
        </mxCell>
        <UserObject label="&lt;div style=&quot;font-size: 1px&quot;&gt;&lt;font style=&quot;font-size:14.11px;font-family:Calibri;color:#000000;direction:ltr;letter-spacing:0px;line-height:120%;opacity:1&quot;&gt;Image/Video data&lt;br/&gt;&lt;/font&gt;&lt;/div&gt;" tags="Connector" id="47">
          <mxCell style="vsdxID=50;edgeStyle=none;startArrow=none;endArrow=block;startSize=5;endSize=5;strokeColor=#000000;spacingTop=0;spacingBottom=0;spacingLeft=0;spacingRight=0;verticalAlign=middle;html=1;labelBackgroundColor=#ffffff;rounded=1;align=center;entryX=0;entryY=0.5;entryDx=0;entryDy=0;entryPerimeter=0;" edge="1" parent="1" source="46" target="10">
            <mxGeometry relative="1" as="geometry">
              <mxPoint as="offset" />
              <Array as="points" />
            </mxGeometry>
          </mxCell>
        </UserObject>
        <mxCell id="48" vertex="1" parent="1">
          <mxGeometry x="725" y="214" as="geometry" />
        </mxCell>
        <UserObject label="" tags="Connector" id="49">
          <mxCell style="vsdxID=51;edgeStyle=none;startArrow=none;endArrow=block;startSize=5;endSize=5;strokeColor=#000000;spacingTop=0;spacingBottom=0;spacingLeft=0;spacingRight=0;verticalAlign=middle;html=1;labelBackgroundColor=#ffffff;rounded=0;entryX=0.375;entryY=0;entryDx=0;entryDy=0;entryPerimeter=0;" edge="1" parent="1" source="48" target="10">
            <mxGeometry relative="1" as="geometry">
              <mxPoint as="offset" />
              <Array as="points">
                <mxPoint x="361" y="214" />
              </Array>
            </mxGeometry>
          </mxCell>
        </UserObject>
        <UserObject label="" tags="Connector Container Connector Connector" id="50">
          <mxCell vertex="1" parent="1" visible="0">
            <mxGeometry as="geometry" />
          </mxCell>
        </UserObject>
      </root>
    </mxGraphModel>
  </diagram>
  <diagram name="A2" id="A2">
    <mxGraphModel style="default-style2">
      <root>
        <mxCell id="0" />
        <mxCell id="1" parent="0" />
        <UserObject label="" ID="A2.2" Name="NN Architecture" tags="Фон" id="2">
          <mxCell style="vsdxID=1;fillColor=none;gradientColor=none;strokeColor=none;spacingTop=-1;spacingBottom=-1;spacingLeft=-1;spacingRight=-1;points=[[0,0.17,0],[0,0.17,0],[0,0.17,0],[0,0.33,0],[0,0.33,0],[0,0.5,0],[0,0.5,0],[0,0.67,0],[0,0.67,0],[0,0.83,0],[0,0.83,0],[1,0.17,0],[1,0.17,0],[1,0.17,0],[1,0.33,0],[1,0.33,0],[1,0.5,0],[1,0.5,0],[1,0.67,0],[1,0.67,0],[1,0.83,0],[1,0.83,0],[0.13,0,0],[0.13,0,0],[0.13,0,0],[0.25,0,0],[0.25,0,0],[0.37,0,0],[0.37,0,0],[0.5,0,0],[0.5,0,0],[0.63,0,0],[0.63,0,0],[0.75,0,0],[0.75,0,0],[0.88,0,0],[0.88,0,0],[0.13,1,0],[0.13,1,0],[0.13,1,0],[0.25,1,0],[0.25,1,0],[0.37,1,0],[0.37,1,0],[0.5,1,0],[0.5,1,0],[0.63,1,0],[0.63,1,0],[0.75,1,0],[0.75,1,0],[0.88,1,0],[0.88,1,0]];labelBackgroundColor=none;rounded=0;html=1;whiteSpace=wrap;" vertex="1" parent="1">
            <mxGeometry x="416" y="352" width="120" height="80" as="geometry" />
          </mxCell>
        </UserObject>
        <mxCell id="3" style="vsdxID=2;fillColor=#ffffff;gradientColor=none;shape=stencil(nZBLDoAgDERP0z3SIyjew0SURgSD+Lu9kMZoXLhwN9O+tukAlrNpJg1SzDH4QW/URgNYgZTkjA4UkwJUgGXng+6DX1zLfmoymdXo17xh5zmRJ6Q42BWCfc2oJfdAr+Yv+AP9Cb7OJ3H/2JG1HNGz/84klThPVCc=);strokeColor=#000000;spacingTop=-1;spacingBottom=-1;spacingLeft=-1;spacingRight=-1;points=[[0,0.17,0],[0,0.17,0],[0,0.17,0],[0,0.33,0],[0,0.33,0],[0,0.5,0],[0,0.5,0],[0,0.67,0],[0,0.67,0],[0,0.83,0],[0,0.83,0],[1,0.17,0],[1,0.17,0],[1,0.17,0],[1,0.33,0],[1,0.33,0],[1,0.5,0],[1,0.5,0],[1,0.67,0],[1,0.67,0],[1,0.83,0],[1,0.83,0],[0.13,0,0],[0.13,0,0],[0.13,0,0],[0.25,0,0],[0.25,0,0],[0.37,0,0],[0.37,0,0],[0.5,0,0],[0.5,0,0],[0.63,0,0],[0.63,0,0],[0.75,0,0],[0.75,0,0],[0.88,0,0],[0.88,0,0],[0.13,1,0],[0.13,1,0],[0.13,1,0],[0.25,1,0],[0.25,1,0],[0.37,1,0],[0.37,1,0],[0.5,1,0],[0.5,1,0],[0.63,1,0],[0.63,1,0],[0.75,1,0],[0.75,1,0],[0.88,1,0],[0.88,1,0]];labelBackgroundColor=none;rounded=0;html=1;whiteSpace=wrap;" vertex="1" parent="2">
          <mxGeometry width="120" height="80" as="geometry" />
        </mxCell>
        <mxCell id="4" value="&lt;div style=&quot;font-size: 1px&quot;&gt;&lt;p style=&quot;text-align:right;margin-left:0;margin-right:0;margin-top:0px;margin-bottom:0px;text-indent:0;vertical-align:middle;direction:ltr;&quot;&gt;&lt;font style=&quot;font-size:14.11px;font-family:Calibri;color:#000000;direction:ltr;letter-spacing:0px;line-height:120%;opacity:1&quot;&gt;A2.2&lt;/font&gt;&lt;font style=&quot;font-size:14.11px;font-family:Calibri;color:#000000;direction:ltr;letter-spacing:0px;line-height:120%;opacity:1&quot;&gt;&lt;br/&gt;&lt;/font&gt;&lt;/p&gt;&lt;/div&gt;" style="verticalAlign=middle;align=right;overflow=width;vsdxID=3;fillColor=none;gradientColor=none;strokeColor=none;spacingTop=-3;spacingBottom=-3;points=[[0,0.17,0],[0,0.17,0],[0,0.17,0],[0,0.33,0],[0,0.33,0],[0,0.5,0],[0,0.5,0],[0,0.67,0],[0,0.67,0],[0,0.83,0],[0,0.83,0],[1,0.17,0],[1,0.17,0],[1,0.17,0],[1,0.33,0],[1,0.33,0],[1,0.5,0],[1,0.5,0],[1,0.67,0],[1,0.67,0],[1,0.83,0],[1,0.83,0],[0.13,0,0],[0.13,0,0],[0.13,0,0],[0.25,0,0],[0.25,0,0],[0.37,0,0],[0.37,0,0],[0.5,0,0],[0.5,0,0],[0.63,0,0],[0.63,0,0],[0.75,0,0],[0.75,0,0],[0.88,0,0],[0.88,0,0],[0.13,1,0],[0.13,1,0],[0.13,1,0],[0.25,1,0],[0.25,1,0],[0.37,1,0],[0.37,1,0],[0.5,1,0],[0.5,1,0],[0.63,1,0],[0.63,1,0],[0.75,1,0],[0.75,1,0],[0.88,1,0],[0.88,1,0]];labelBackgroundColor=none;rounded=0;html=1;whiteSpace=wrap;" vertex="1" parent="2">
          <mxGeometry x="-10" y="63" width="120" height="16" as="geometry" />
        </mxCell>
        <mxCell id="5" value="&lt;div style=&quot;font-size: 1px&quot;&gt;&lt;p style=&quot;text-align:right;margin-left:0;margin-right:0;margin-top:0px;margin-bottom:0px;text-indent:0;vertical-align:middle;direction:ltr;&quot;&gt;&lt;font style=&quot;font-size:14.11px;font-family:Calibri;color:#000000;direction:ltr;letter-spacing:0px;line-height:120%;opacity:1&quot;&gt;&lt;br/&gt;&lt;/font&gt;&lt;/p&gt;&lt;/div&gt;" style="verticalAlign=middle;align=right;overflow=width;vsdxID=4;fillColor=none;gradientColor=none;strokeColor=none;spacingBottom=-3;points=[[0,0.17,0],[0,0.17,0],[0,0.17,0],[0,0.33,0],[0,0.33,0],[0,0.5,0],[0,0.5,0],[0,0.67,0],[0,0.67,0],[0,0.83,0],[0,0.83,0],[1,0.17,0],[1,0.17,0],[1,0.17,0],[1,0.33,0],[1,0.33,0],[1,0.5,0],[1,0.5,0],[1,0.67,0],[1,0.67,0],[1,0.83,0],[1,0.83,0],[0.13,0,0],[0.13,0,0],[0.13,0,0],[0.25,0,0],[0.25,0,0],[0.37,0,0],[0.37,0,0],[0.5,0,0],[0.5,0,0],[0.63,0,0],[0.63,0,0],[0.75,0,0],[0.75,0,0],[0.88,0,0],[0.88,0,0],[0.13,1,0],[0.13,1,0],[0.13,1,0],[0.25,1,0],[0.25,1,0],[0.37,1,0],[0.37,1,0],[0.5,1,0],[0.5,1,0],[0.63,1,0],[0.63,1,0],[0.75,1,0],[0.75,1,0],[0.88,1,0],[0.88,1,0]];labelBackgroundColor=none;rounded=0;html=1;whiteSpace=wrap;" vertex="1" parent="2">
          <mxGeometry x="-10" y="80" width="120" height="22" as="geometry" />
        </mxCell>
        <mxCell id="6" value="&lt;div style=&quot;font-size: 1px&quot;&gt;&lt;p style=&quot;text-align:center;margin-left:0;margin-right:0;margin-top:0px;margin-bottom:0px;text-indent:0;vertical-align:middle;direction:ltr;&quot;&gt;&lt;font style=&quot;font-size:14.11px;font-family:Calibri;color:#000000;direction:ltr;letter-spacing:0px;line-height:120%;opacity:1&quot;&gt;NN Architecture&lt;/font&gt;&lt;font style=&quot;font-size:14.11px;font-family:Calibri;color:#000000;direction:ltr;letter-spacing:0px;line-height:120%;opacity:1&quot;&gt;&lt;br/&gt;&lt;/font&gt;&lt;/p&gt;&lt;/div&gt;" style="verticalAlign=middle;align=center;overflow=width;vsdxID=5;fillColor=none;gradientColor=none;strokeColor=none;points=[[0,0.17,0],[0,0.17,0],[0,0.17,0],[0,0.33,0],[0,0.33,0],[0,0.5,0],[0,0.5,0],[0,0.67,0],[0,0.67,0],[0,0.83,0],[0,0.83,0],[1,0.17,0],[1,0.17,0],[1,0.17,0],[1,0.33,0],[1,0.33,0],[1,0.5,0],[1,0.5,0],[1,0.67,0],[1,0.67,0],[1,0.83,0],[1,0.83,0],[0.13,0,0],[0.13,0,0],[0.13,0,0],[0.25,0,0],[0.25,0,0],[0.37,0,0],[0.37,0,0],[0.5,0,0],[0.5,0,0],[0.63,0,0],[0.63,0,0],[0.75,0,0],[0.75,0,0],[0.88,0,0],[0.88,0,0],[0.13,1,0],[0.13,1,0],[0.13,1,0],[0.25,1,0],[0.25,1,0],[0.37,1,0],[0.37,1,0],[0.5,1,0],[0.5,1,0],[0.63,1,0],[0.63,1,0],[0.75,1,0],[0.75,1,0],[0.88,1,0],[0.88,1,0]];labelBackgroundColor=none;rounded=0;html=1;whiteSpace=wrap;" vertex="1" parent="2">
          <mxGeometry width="120" height="63" as="geometry" />
        </mxCell>
        <UserObject label="" ID="A2.1" Name="KB Architecture" tags="Фон" id="7">
          <mxCell style="vsdxID=6;fillColor=none;gradientColor=none;strokeColor=none;spacingTop=-1;spacingBottom=-1;spacingLeft=-1;spacingRight=-1;points=[[0,0.17,0],[0,0.17,0],[0,0.17,0],[0,0.33,0],[0,0.33,0],[0,0.5,0],[0,0.5,0],[0,0.67,0],[0,0.67,0],[0,0.83,0],[0,0.83,0],[1,0.17,0],[1,0.17,0],[1,0.17,0],[1,0.33,0],[1,0.33,0],[1,0.5,0],[1,0.5,0],[1,0.67,0],[1,0.67,0],[1,0.83,0],[1,0.83,0],[0.13,0,0],[0.13,0,0],[0.13,0,0],[0.25,0,0],[0.25,0,0],[0.37,0,0],[0.37,0,0],[0.5,0,0],[0.5,0,0],[0.63,0,0],[0.63,0,0],[0.75,0,0],[0.75,0,0],[0.88,0,0],[0.88,0,0],[0.13,1,0],[0.13,1,0],[0.13,1,0],[0.25,1,0],[0.25,1,0],[0.37,1,0],[0.37,1,0],[0.5,1,0],[0.5,1,0],[0.63,1,0],[0.63,1,0],[0.75,1,0],[0.75,1,0],[0.88,1,0],[0.88,1,0]];labelBackgroundColor=none;rounded=0;html=1;whiteSpace=wrap;" vertex="1" parent="1">
            <mxGeometry x="240" y="212" width="120" height="80" as="geometry" />
          </mxCell>
        </UserObject>
        <mxCell id="8" style="vsdxID=7;fillColor=#ffffff;gradientColor=none;shape=stencil(nZBLDoAgDERP0z3SIyjew0SURgSD+Lu9kMZoXLhwN9O+tukAlrNpJg1SzDH4QW/URgNYgZTkjA4UkwJUgGXng+6DX1zLfmoymdXo17xh5zmRJ6Q42BWCfc2oJfdAr+Yv+AP9Cb7OJ3H/2JG1HNGz/84klThPVCc=);strokeColor=#000000;spacingTop=-1;spacingBottom=-1;spacingLeft=-1;spacingRight=-1;points=[[0,0.17,0],[0,0.17,0],[0,0.17,0],[0,0.33,0],[0,0.33,0],[0,0.5,0],[0,0.5,0],[0,0.67,0],[0,0.67,0],[0,0.83,0],[0,0.83,0],[1,0.17,0],[1,0.17,0],[1,0.17,0],[1,0.33,0],[1,0.33,0],[1,0.5,0],[1,0.5,0],[1,0.67,0],[1,0.67,0],[1,0.83,0],[1,0.83,0],[0.13,0,0],[0.13,0,0],[0.13,0,0],[0.25,0,0],[0.25,0,0],[0.37,0,0],[0.37,0,0],[0.5,0,0],[0.5,0,0],[0.63,0,0],[0.63,0,0],[0.75,0,0],[0.75,0,0],[0.88,0,0],[0.88,0,0],[0.13,1,0],[0.13,1,0],[0.13,1,0],[0.25,1,0],[0.25,1,0],[0.37,1,0],[0.37,1,0],[0.5,1,0],[0.5,1,0],[0.63,1,0],[0.63,1,0],[0.75,1,0],[0.75,1,0],[0.88,1,0],[0.88,1,0]];labelBackgroundColor=none;rounded=0;html=1;whiteSpace=wrap;" vertex="1" parent="7">
          <mxGeometry width="120" height="80" as="geometry" />
        </mxCell>
        <mxCell id="9" value="&lt;div style=&quot;font-size: 1px&quot;&gt;&lt;p style=&quot;text-align:right;margin-left:0;margin-right:0;margin-top:0px;margin-bottom:0px;text-indent:0;vertical-align:middle;direction:ltr;&quot;&gt;&lt;font style=&quot;font-size:14.11px;font-family:Calibri;color:#000000;direction:ltr;letter-spacing:0px;line-height:120%;opacity:1&quot;&gt;A2.1&lt;/font&gt;&lt;font style=&quot;font-size:14.11px;font-family:Calibri;color:#000000;direction:ltr;letter-spacing:0px;line-height:120%;opacity:1&quot;&gt;&lt;br/&gt;&lt;/font&gt;&lt;/p&gt;&lt;/div&gt;" style="verticalAlign=middle;align=right;overflow=width;vsdxID=8;fillColor=none;gradientColor=none;strokeColor=none;spacingTop=-3;spacingBottom=-3;points=[[0,0.17,0],[0,0.17,0],[0,0.17,0],[0,0.33,0],[0,0.33,0],[0,0.5,0],[0,0.5,0],[0,0.67,0],[0,0.67,0],[0,0.83,0],[0,0.83,0],[1,0.17,0],[1,0.17,0],[1,0.17,0],[1,0.33,0],[1,0.33,0],[1,0.5,0],[1,0.5,0],[1,0.67,0],[1,0.67,0],[1,0.83,0],[1,0.83,0],[0.13,0,0],[0.13,0,0],[0.13,0,0],[0.25,0,0],[0.25,0,0],[0.37,0,0],[0.37,0,0],[0.5,0,0],[0.5,0,0],[0.63,0,0],[0.63,0,0],[0.75,0,0],[0.75,0,0],[0.88,0,0],[0.88,0,0],[0.13,1,0],[0.13,1,0],[0.13,1,0],[0.25,1,0],[0.25,1,0],[0.37,1,0],[0.37,1,0],[0.5,1,0],[0.5,1,0],[0.63,1,0],[0.63,1,0],[0.75,1,0],[0.75,1,0],[0.88,1,0],[0.88,1,0]];labelBackgroundColor=none;rounded=0;html=1;whiteSpace=wrap;" vertex="1" parent="7">
          <mxGeometry x="-10" y="63" width="120" height="16" as="geometry" />
        </mxCell>
        <mxCell id="10" value="&lt;div style=&quot;font-size: 1px&quot;&gt;&lt;p style=&quot;text-align:right;margin-left:0;margin-right:0;margin-top:0px;margin-bottom:0px;text-indent:0;vertical-align:middle;direction:ltr;&quot;&gt;&lt;font style=&quot;font-size:14.11px;font-family:Calibri;color:#000000;direction:ltr;letter-spacing:0px;line-height:120%;opacity:1&quot;&gt;&lt;br/&gt;&lt;/font&gt;&lt;/p&gt;&lt;/div&gt;" style="verticalAlign=middle;align=right;overflow=width;vsdxID=9;fillColor=none;gradientColor=none;strokeColor=none;spacingBottom=-3;points=[[0,0.17,0],[0,0.17,0],[0,0.17,0],[0,0.33,0],[0,0.33,0],[0,0.5,0],[0,0.5,0],[0,0.67,0],[0,0.67,0],[0,0.83,0],[0,0.83,0],[1,0.17,0],[1,0.17,0],[1,0.17,0],[1,0.33,0],[1,0.33,0],[1,0.5,0],[1,0.5,0],[1,0.67,0],[1,0.67,0],[1,0.83,0],[1,0.83,0],[0.13,0,0],[0.13,0,0],[0.13,0,0],[0.25,0,0],[0.25,0,0],[0.37,0,0],[0.37,0,0],[0.5,0,0],[0.5,0,0],[0.63,0,0],[0.63,0,0],[0.75,0,0],[0.75,0,0],[0.88,0,0],[0.88,0,0],[0.13,1,0],[0.13,1,0],[0.13,1,0],[0.25,1,0],[0.25,1,0],[0.37,1,0],[0.37,1,0],[0.5,1,0],[0.5,1,0],[0.63,1,0],[0.63,1,0],[0.75,1,0],[0.75,1,0],[0.88,1,0],[0.88,1,0]];labelBackgroundColor=none;rounded=0;html=1;whiteSpace=wrap;" vertex="1" parent="7">
          <mxGeometry x="-10" y="80" width="120" height="22" as="geometry" />
        </mxCell>
        <mxCell id="11" value="&lt;div style=&quot;font-size: 1px&quot;&gt;&lt;p style=&quot;text-align:center;margin-left:0;margin-right:0;margin-top:0px;margin-bottom:0px;text-indent:0;vertical-align:middle;direction:ltr;&quot;&gt;&lt;font style=&quot;font-size:14.11px;font-family:Calibri;color:#000000;direction:ltr;letter-spacing:0px;line-height:120%;opacity:1&quot;&gt;KB Architecture&lt;/font&gt;&lt;font style=&quot;font-size:14.11px;font-family:Calibri;color:#000000;direction:ltr;letter-spacing:0px;line-height:120%;opacity:1&quot;&gt;&lt;br/&gt;&lt;/font&gt;&lt;/p&gt;&lt;/div&gt;" style="verticalAlign=middle;align=center;overflow=width;vsdxID=10;fillColor=none;gradientColor=none;strokeColor=none;points=[[0,0.17,0],[0,0.17,0],[0,0.17,0],[0,0.33,0],[0,0.33,0],[0,0.5,0],[0,0.5,0],[0,0.67,0],[0,0.67,0],[0,0.83,0],[0,0.83,0],[1,0.17,0],[1,0.17,0],[1,0.17,0],[1,0.33,0],[1,0.33,0],[1,0.5,0],[1,0.5,0],[1,0.67,0],[1,0.67,0],[1,0.83,0],[1,0.83,0],[0.13,0,0],[0.13,0,0],[0.13,0,0],[0.25,0,0],[0.25,0,0],[0.37,0,0],[0.37,0,0],[0.5,0,0],[0.5,0,0],[0.63,0,0],[0.63,0,0],[0.75,0,0],[0.75,0,0],[0.88,0,0],[0.88,0,0],[0.13,1,0],[0.13,1,0],[0.13,1,0],[0.25,1,0],[0.25,1,0],[0.37,1,0],[0.37,1,0],[0.5,1,0],[0.5,1,0],[0.63,1,0],[0.63,1,0],[0.75,1,0],[0.75,1,0],[0.88,1,0],[0.88,1,0]];labelBackgroundColor=none;rounded=0;html=1;whiteSpace=wrap;" vertex="1" parent="7">
          <mxGeometry width="120" height="63" as="geometry" />
        </mxCell>
        <UserObject label="" ID="A2.3" Name="UI Client Architecture" tags="Фон" id="12">
          <mxCell style="vsdxID=11;fillColor=none;gradientColor=none;strokeColor=none;spacingTop=-1;spacingBottom=-1;spacingLeft=-1;spacingRight=-1;points=[[0,0.17,0],[0,0.17,0],[0,0.17,0],[0,0.33,0],[0,0.33,0],[0,0.5,0],[0,0.5,0],[0,0.67,0],[0,0.67,0],[0,0.83,0],[0,0.83,0],[1,0.17,0],[1,0.17,0],[1,0.17,0],[1,0.33,0],[1,0.33,0],[1,0.5,0],[1,0.5,0],[1,0.67,0],[1,0.67,0],[1,0.83,0],[1,0.83,0],[0.13,0,0],[0.13,0,0],[0.13,0,0],[0.25,0,0],[0.25,0,0],[0.37,0,0],[0.37,0,0],[0.5,0,0],[0.5,0,0],[0.63,0,0],[0.63,0,0],[0.75,0,0],[0.75,0,0],[0.88,0,0],[0.88,0,0],[0.13,1,0],[0.13,1,0],[0.13,1,0],[0.25,1,0],[0.25,1,0],[0.37,1,0],[0.37,1,0],[0.5,1,0],[0.5,1,0],[0.63,1,0],[0.63,1,0],[0.75,1,0],[0.75,1,0],[0.88,1,0],[0.88,1,0]];labelBackgroundColor=none;rounded=0;html=1;whiteSpace=wrap;" vertex="1" parent="1">
            <mxGeometry x="612" y="460" width="120" height="80" as="geometry" />
          </mxCell>
        </UserObject>
        <mxCell id="13" style="vsdxID=12;fillColor=#ffffff;gradientColor=none;shape=stencil(nZBLDoAgDERP0z3SIyjew0SURgSD+Lu9kMZoXLhwN9O+tukAlrNpJg1SzDH4QW/URgNYgZTkjA4UkwJUgGXng+6DX1zLfmoymdXo17xh5zmRJ6Q42BWCfc2oJfdAr+Yv+AP9Cb7OJ3H/2JG1HNGz/84klThPVCc=);strokeColor=#000000;spacingTop=-1;spacingBottom=-1;spacingLeft=-1;spacingRight=-1;points=[[0,0.17,0],[0,0.17,0],[0,0.17,0],[0,0.33,0],[0,0.33,0],[0,0.5,0],[0,0.5,0],[0,0.67,0],[0,0.67,0],[0,0.83,0],[0,0.83,0],[1,0.17,0],[1,0.17,0],[1,0.17,0],[1,0.33,0],[1,0.33,0],[1,0.5,0],[1,0.5,0],[1,0.67,0],[1,0.67,0],[1,0.83,0],[1,0.83,0],[0.13,0,0],[0.13,0,0],[0.13,0,0],[0.25,0,0],[0.25,0,0],[0.37,0,0],[0.37,0,0],[0.5,0,0],[0.5,0,0],[0.63,0,0],[0.63,0,0],[0.75,0,0],[0.75,0,0],[0.88,0,0],[0.88,0,0],[0.13,1,0],[0.13,1,0],[0.13,1,0],[0.25,1,0],[0.25,1,0],[0.37,1,0],[0.37,1,0],[0.5,1,0],[0.5,1,0],[0.63,1,0],[0.63,1,0],[0.75,1,0],[0.75,1,0],[0.88,1,0],[0.88,1,0]];labelBackgroundColor=none;rounded=0;html=1;whiteSpace=wrap;" vertex="1" parent="12">
          <mxGeometry width="120" height="80" as="geometry" />
        </mxCell>
        <mxCell id="14" value="&lt;div style=&quot;font-size: 1px&quot;&gt;&lt;p style=&quot;text-align:right;margin-left:0;margin-right:0;margin-top:0px;margin-bottom:0px;text-indent:0;vertical-align:middle;direction:ltr;&quot;&gt;&lt;font style=&quot;font-size:14.11px;font-family:Calibri;color:#000000;direction:ltr;letter-spacing:0px;line-height:120%;opacity:1&quot;&gt;A2.3&lt;/font&gt;&lt;font style=&quot;font-size:14.11px;font-family:Calibri;color:#000000;direction:ltr;letter-spacing:0px;line-height:120%;opacity:1&quot;&gt;&lt;br/&gt;&lt;/font&gt;&lt;/p&gt;&lt;/div&gt;" style="verticalAlign=middle;align=right;overflow=width;vsdxID=13;fillColor=none;gradientColor=none;strokeColor=none;spacingTop=-3;spacingBottom=-3;points=[[0,0.17,0],[0,0.17,0],[0,0.17,0],[0,0.33,0],[0,0.33,0],[0,0.5,0],[0,0.5,0],[0,0.67,0],[0,0.67,0],[0,0.83,0],[0,0.83,0],[1,0.17,0],[1,0.17,0],[1,0.17,0],[1,0.33,0],[1,0.33,0],[1,0.5,0],[1,0.5,0],[1,0.67,0],[1,0.67,0],[1,0.83,0],[1,0.83,0],[0.13,0,0],[0.13,0,0],[0.13,0,0],[0.25,0,0],[0.25,0,0],[0.37,0,0],[0.37,0,0],[0.5,0,0],[0.5,0,0],[0.63,0,0],[0.63,0,0],[0.75,0,0],[0.75,0,0],[0.88,0,0],[0.88,0,0],[0.13,1,0],[0.13,1,0],[0.13,1,0],[0.25,1,0],[0.25,1,0],[0.37,1,0],[0.37,1,0],[0.5,1,0],[0.5,1,0],[0.63,1,0],[0.63,1,0],[0.75,1,0],[0.75,1,0],[0.88,1,0],[0.88,1,0]];labelBackgroundColor=none;rounded=0;html=1;whiteSpace=wrap;" vertex="1" parent="12">
          <mxGeometry x="-10" y="63" width="120" height="16" as="geometry" />
        </mxCell>
        <mxCell id="15" value="&lt;div style=&quot;font-size: 1px&quot;&gt;&lt;p style=&quot;text-align:right;margin-left:0;margin-right:0;margin-top:0px;margin-bottom:0px;text-indent:0;vertical-align:middle;direction:ltr;&quot;&gt;&lt;font style=&quot;font-size:14.11px;font-family:Calibri;color:#000000;direction:ltr;letter-spacing:0px;line-height:120%;opacity:1&quot;&gt;&lt;br/&gt;&lt;/font&gt;&lt;/p&gt;&lt;/div&gt;" style="verticalAlign=middle;align=right;overflow=width;vsdxID=14;fillColor=none;gradientColor=none;strokeColor=none;spacingBottom=-3;points=[[0,0.17,0],[0,0.17,0],[0,0.17,0],[0,0.33,0],[0,0.33,0],[0,0.5,0],[0,0.5,0],[0,0.67,0],[0,0.67,0],[0,0.83,0],[0,0.83,0],[1,0.17,0],[1,0.17,0],[1,0.17,0],[1,0.33,0],[1,0.33,0],[1,0.5,0],[1,0.5,0],[1,0.67,0],[1,0.67,0],[1,0.83,0],[1,0.83,0],[0.13,0,0],[0.13,0,0],[0.13,0,0],[0.25,0,0],[0.25,0,0],[0.37,0,0],[0.37,0,0],[0.5,0,0],[0.5,0,0],[0.63,0,0],[0.63,0,0],[0.75,0,0],[0.75,0,0],[0.88,0,0],[0.88,0,0],[0.13,1,0],[0.13,1,0],[0.13,1,0],[0.25,1,0],[0.25,1,0],[0.37,1,0],[0.37,1,0],[0.5,1,0],[0.5,1,0],[0.63,1,0],[0.63,1,0],[0.75,1,0],[0.75,1,0],[0.88,1,0],[0.88,1,0]];labelBackgroundColor=none;rounded=0;html=1;whiteSpace=wrap;" vertex="1" parent="12">
          <mxGeometry x="-10" y="80" width="120" height="22" as="geometry" />
        </mxCell>
        <mxCell id="16" value="&lt;div style=&quot;font-size: 1px&quot;&gt;&lt;font style=&quot;font-size:14.11px;font-family:Calibri;color:#000000;direction:ltr;letter-spacing:0px;line-height:120%;opacity:1&quot;&gt;Client-Server Architecture&lt;br/&gt;&lt;/font&gt;&lt;/div&gt;" style="verticalAlign=middle;align=center;overflow=width;vsdxID=15;fillColor=none;gradientColor=none;strokeColor=none;points=[[0,0.17,0],[0,0.17,0],[0,0.17,0],[0,0.33,0],[0,0.33,0],[0,0.5,0],[0,0.5,0],[0,0.67,0],[0,0.67,0],[0,0.83,0],[0,0.83,0],[1,0.17,0],[1,0.17,0],[1,0.17,0],[1,0.33,0],[1,0.33,0],[1,0.5,0],[1,0.5,0],[1,0.67,0],[1,0.67,0],[1,0.83,0],[1,0.83,0],[0.13,0,0],[0.13,0,0],[0.13,0,0],[0.25,0,0],[0.25,0,0],[0.37,0,0],[0.37,0,0],[0.5,0,0],[0.5,0,0],[0.63,0,0],[0.63,0,0],[0.75,0,0],[0.75,0,0],[0.88,0,0],[0.88,0,0],[0.13,1,0],[0.13,1,0],[0.13,1,0],[0.25,1,0],[0.25,1,0],[0.37,1,0],[0.37,1,0],[0.5,1,0],[0.5,1,0],[0.63,1,0],[0.63,1,0],[0.75,1,0],[0.75,1,0],[0.88,1,0],[0.88,1,0]];labelBackgroundColor=none;rounded=0;html=1;whiteSpace=wrap;" vertex="1" parent="12">
          <mxGeometry width="120" height="63" as="geometry" />
        </mxCell>
        <UserObject label="" ID="A2.4" Name="Modules Integration" tags="Фон" id="17">
          <mxCell style="vsdxID=16;fillColor=none;gradientColor=none;strokeColor=none;spacingTop=-1;spacingBottom=-1;spacingLeft=-1;spacingRight=-1;points=[[0,0.17,0],[0,0.17,0],[0,0.17,0],[0,0.33,0],[0,0.33,0],[0,0.5,0],[0,0.5,0],[0,0.67,0],[0,0.67,0],[0,0.83,0],[0,0.83,0],[1,0.17,0],[1,0.17,0],[1,0.17,0],[1,0.33,0],[1,0.33,0],[1,0.5,0],[1,0.5,0],[1,0.67,0],[1,0.67,0],[1,0.83,0],[1,0.83,0],[0.13,0,0],[0.13,0,0],[0.13,0,0],[0.25,0,0],[0.25,0,0],[0.37,0,0],[0.37,0,0],[0.5,0,0],[0.5,0,0],[0.63,0,0],[0.63,0,0],[0.75,0,0],[0.75,0,0],[0.88,0,0],[0.88,0,0],[0.13,1,0],[0.13,1,0],[0.13,1,0],[0.25,1,0],[0.25,1,0],[0.37,1,0],[0.37,1,0],[0.5,1,0],[0.5,1,0],[0.63,1,0],[0.63,1,0],[0.75,1,0],[0.75,1,0],[0.88,1,0],[0.88,1,0]];labelBackgroundColor=none;rounded=0;html=1;whiteSpace=wrap;" vertex="1" parent="1">
            <mxGeometry x="820" y="556" width="120" height="80" as="geometry" />
          </mxCell>
        </UserObject>
        <mxCell id="18" style="vsdxID=17;fillColor=#ffffff;gradientColor=none;shape=stencil(nZBLDoAgDERP0z3SIyjew0SURgSD+Lu9kMZoXLhwN9O+tukAlrNpJg1SzDH4QW/URgNYgZTkjA4UkwJUgGXng+6DX1zLfmoymdXo17xh5zmRJ6Q42BWCfc2oJfdAr+Yv+AP9Cb7OJ3H/2JG1HNGz/84klThPVCc=);strokeColor=#000000;spacingTop=-1;spacingBottom=-1;spacingLeft=-1;spacingRight=-1;points=[[0,0.17,0],[0,0.17,0],[0,0.17,0],[0,0.33,0],[0,0.33,0],[0,0.5,0],[0,0.5,0],[0,0.67,0],[0,0.67,0],[0,0.83,0],[0,0.83,0],[1,0.17,0],[1,0.17,0],[1,0.17,0],[1,0.33,0],[1,0.33,0],[1,0.5,0],[1,0.5,0],[1,0.67,0],[1,0.67,0],[1,0.83,0],[1,0.83,0],[0.13,0,0],[0.13,0,0],[0.13,0,0],[0.25,0,0],[0.25,0,0],[0.37,0,0],[0.37,0,0],[0.5,0,0],[0.5,0,0],[0.63,0,0],[0.63,0,0],[0.75,0,0],[0.75,0,0],[0.88,0,0],[0.88,0,0],[0.13,1,0],[0.13,1,0],[0.13,1,0],[0.25,1,0],[0.25,1,0],[0.37,1,0],[0.37,1,0],[0.5,1,0],[0.5,1,0],[0.63,1,0],[0.63,1,0],[0.75,1,0],[0.75,1,0],[0.88,1,0],[0.88,1,0]];labelBackgroundColor=none;rounded=0;html=1;whiteSpace=wrap;" vertex="1" parent="17">
          <mxGeometry width="120" height="80" as="geometry" />
        </mxCell>
        <mxCell id="19" value="&lt;div style=&quot;font-size: 1px&quot;&gt;&lt;p style=&quot;text-align:right;margin-left:0;margin-right:0;margin-top:0px;margin-bottom:0px;text-indent:0;vertical-align:middle;direction:ltr;&quot;&gt;&lt;font style=&quot;font-size:14.11px;font-family:Calibri;color:#000000;direction:ltr;letter-spacing:0px;line-height:120%;opacity:1&quot;&gt;A2.4&lt;/font&gt;&lt;font style=&quot;font-size:14.11px;font-family:Calibri;color:#000000;direction:ltr;letter-spacing:0px;line-height:120%;opacity:1&quot;&gt;&lt;br/&gt;&lt;/font&gt;&lt;/p&gt;&lt;/div&gt;" style="verticalAlign=middle;align=right;overflow=width;vsdxID=18;fillColor=none;gradientColor=none;strokeColor=none;spacingTop=-3;spacingBottom=-3;points=[[0,0.17,0],[0,0.17,0],[0,0.17,0],[0,0.33,0],[0,0.33,0],[0,0.5,0],[0,0.5,0],[0,0.67,0],[0,0.67,0],[0,0.83,0],[0,0.83,0],[1,0.17,0],[1,0.17,0],[1,0.17,0],[1,0.33,0],[1,0.33,0],[1,0.5,0],[1,0.5,0],[1,0.67,0],[1,0.67,0],[1,0.83,0],[1,0.83,0],[0.13,0,0],[0.13,0,0],[0.13,0,0],[0.25,0,0],[0.25,0,0],[0.37,0,0],[0.37,0,0],[0.5,0,0],[0.5,0,0],[0.63,0,0],[0.63,0,0],[0.75,0,0],[0.75,0,0],[0.88,0,0],[0.88,0,0],[0.13,1,0],[0.13,1,0],[0.13,1,0],[0.25,1,0],[0.25,1,0],[0.37,1,0],[0.37,1,0],[0.5,1,0],[0.5,1,0],[0.63,1,0],[0.63,1,0],[0.75,1,0],[0.75,1,0],[0.88,1,0],[0.88,1,0]];labelBackgroundColor=none;rounded=0;html=1;whiteSpace=wrap;" vertex="1" parent="17">
          <mxGeometry x="-10" y="63" width="120" height="16" as="geometry" />
        </mxCell>
        <mxCell id="20" value="&lt;div style=&quot;font-size: 1px&quot;&gt;&lt;p style=&quot;text-align:right;margin-left:0;margin-right:0;margin-top:0px;margin-bottom:0px;text-indent:0;vertical-align:middle;direction:ltr;&quot;&gt;&lt;font style=&quot;font-size:14.11px;font-family:Calibri;color:#000000;direction:ltr;letter-spacing:0px;line-height:120%;opacity:1&quot;&gt;&lt;br/&gt;&lt;/font&gt;&lt;/p&gt;&lt;/div&gt;" style="verticalAlign=middle;align=right;overflow=width;vsdxID=19;fillColor=none;gradientColor=none;strokeColor=none;spacingBottom=-3;points=[[0,0.17,0],[0,0.17,0],[0,0.17,0],[0,0.33,0],[0,0.33,0],[0,0.5,0],[0,0.5,0],[0,0.67,0],[0,0.67,0],[0,0.83,0],[0,0.83,0],[1,0.17,0],[1,0.17,0],[1,0.17,0],[1,0.33,0],[1,0.33,0],[1,0.5,0],[1,0.5,0],[1,0.67,0],[1,0.67,0],[1,0.83,0],[1,0.83,0],[0.13,0,0],[0.13,0,0],[0.13,0,0],[0.25,0,0],[0.25,0,0],[0.37,0,0],[0.37,0,0],[0.5,0,0],[0.5,0,0],[0.63,0,0],[0.63,0,0],[0.75,0,0],[0.75,0,0],[0.88,0,0],[0.88,0,0],[0.13,1,0],[0.13,1,0],[0.13,1,0],[0.25,1,0],[0.25,1,0],[0.37,1,0],[0.37,1,0],[0.5,1,0],[0.5,1,0],[0.63,1,0],[0.63,1,0],[0.75,1,0],[0.75,1,0],[0.88,1,0],[0.88,1,0]];labelBackgroundColor=none;rounded=0;html=1;whiteSpace=wrap;" vertex="1" parent="17">
          <mxGeometry x="-10" y="80" width="120" height="22" as="geometry" />
        </mxCell>
        <mxCell id="21" value="&lt;div style=&quot;font-size: 1px&quot;&gt;&lt;p style=&quot;text-align:center;margin-left:0;margin-right:0;margin-top:0px;margin-bottom:0px;text-indent:0;vertical-align:middle;direction:ltr;&quot;&gt;&lt;font style=&quot;font-size:14.11px;font-family:Calibri;color:#000000;direction:ltr;letter-spacing:0px;line-height:120%;opacity:1&quot;&gt;Modules Integration&lt;/font&gt;&lt;font style=&quot;font-size:14.11px;font-family:Calibri;color:#000000;direction:ltr;letter-spacing:0px;line-height:120%;opacity:1&quot;&gt;&lt;br/&gt;&lt;/font&gt;&lt;/p&gt;&lt;/div&gt;" style="verticalAlign=middle;align=center;overflow=width;vsdxID=20;fillColor=none;gradientColor=none;strokeColor=none;points=[[0,0.17,0],[0,0.17,0],[0,0.17,0],[0,0.33,0],[0,0.33,0],[0,0.5,0],[0,0.5,0],[0,0.67,0],[0,0.67,0],[0,0.83,0],[0,0.83,0],[1,0.17,0],[1,0.17,0],[1,0.17,0],[1,0.33,0],[1,0.33,0],[1,0.5,0],[1,0.5,0],[1,0.67,0],[1,0.67,0],[1,0.83,0],[1,0.83,0],[0.13,0,0],[0.13,0,0],[0.13,0,0],[0.25,0,0],[0.25,0,0],[0.37,0,0],[0.37,0,0],[0.5,0,0],[0.5,0,0],[0.63,0,0],[0.63,0,0],[0.75,0,0],[0.75,0,0],[0.88,0,0],[0.88,0,0],[0.13,1,0],[0.13,1,0],[0.13,1,0],[0.25,1,0],[0.25,1,0],[0.37,1,0],[0.37,1,0],[0.5,1,0],[0.5,1,0],[0.63,1,0],[0.63,1,0],[0.75,1,0],[0.75,1,0],[0.88,1,0],[0.88,1,0]];labelBackgroundColor=none;rounded=0;html=1;whiteSpace=wrap;" vertex="1" parent="17">
          <mxGeometry width="120" height="63" as="geometry" />
        </mxCell>
        <UserObject label="" Node="A2" Title="Intelligent System Architecture" tags="Фон" id="22">
          <mxCell style="vsdxID=21;fillColor=none;gradientColor=none;strokeColor=none;spacingTop=-1;spacingBottom=-1;spacingLeft=-1;spacingRight=-1;points=[[1,0,0],[1,0,0]];labelBackgroundColor=none;rounded=0;html=1;whiteSpace=wrap;" vertex="1" parent="1">
            <mxGeometry x="50" y="50" width="1088" height="740" as="geometry" />
          </mxCell>
        </UserObject>
        <mxCell id="23" value="&lt;div style=&quot;font-size: 1px&quot;&gt;&lt;p style=&quot;text-align:left;margin-left:0;margin-right:0;margin-top:0px;margin-bottom:0px;text-indent:0;vertical-align:middle;direction:ltr;&quot;&gt;&lt;font style=&quot;font-size:11.29px;font-family:Calibri;color:#000000;direction:ltr;letter-spacing:0px;line-height:120%;opacity:1&quot;&gt;TITLE:&lt;br/&gt;&lt;/font&gt;&lt;/p&gt;&lt;/div&gt;" style="verticalAlign=middle;align=left;overflow=width;vsdxID=22;fillColor=#ffffff;gradientColor=none;shape=stencil(nZBLDoAgDERP0z3SIyjew0SURgSD+Lu9kMZoXLhwN9O+tukAlrNpJg1SzDH4QW/URgNYgZTkjA4UkwJUgGXng+6DX1zLfmoymdXo17xh5zmRJ6Q42BWCfc2oJfdAr+Yv+AP9Cb7OJ3H/2JG1HNGz/84klThPVCc=);strokeColor=#000000;spacingTop=-1;spacingBottom=-1;spacingLeft=-1;spacingRight=-1;points=[[0,0,0],[1,0,0],[1,1,0],[0,1,0]];labelBackgroundColor=none;rounded=0;html=1;whiteSpace=wrap;" vertex="1" parent="22">
          <mxGeometry x="104" y="716" width="880" height="24" as="geometry" />
        </mxCell>
        <mxCell id="24" value="&lt;div style=&quot;font-size: 1px&quot;&gt;&lt;/div&gt;" style="verticalAlign=middle;align=center;overflow=width;vsdxID=23;fillColor=none;gradientColor=none;shape=stencil(nZBLDoAgDERP0z3SIyjew0SURgSD+Lu9kMZoXLhwN9O+tukAlrNpJg1SzDH4QW/URgNYgZTkjA4UkwJUgGXng+6DX1zLfmoymdXo17xh5zmRJ6Q42BWCfc2oJfdAr+Yv+AP9Cb7OJ3H/2JG1HNGz/84klThPVCc=);strokeColor=#000000;spacingTop=-1;spacingBottom=-1;spacingLeft=-1;spacingRight=-1;points=[[0,0,0],[1,0,0],[1,1,0],[0,1,0]];labelBackgroundColor=none;rounded=0;html=1;whiteSpace=wrap;" vertex="1" parent="22">
          <mxGeometry width="1088" height="740" as="geometry" />
        </mxCell>
        <mxCell id="25" value="&lt;div style=&quot;font-size: 1px&quot;&gt;&lt;p style=&quot;text-align:left;margin-left:0;margin-right:0;margin-top:0px;margin-bottom:0px;text-indent:0;vertical-align:middle;direction:ltr;&quot;&gt;&lt;font style=&quot;font-size:11.29px;font-family:Calibri;color:#000000;direction:ltr;letter-spacing:0px;line-height:120%;opacity:1&quot;&gt;NODE: &lt;br/&gt;&lt;/font&gt;&lt;/p&gt;&lt;/div&gt;" style="verticalAlign=middle;align=left;overflow=width;vsdxID=24;fillColor=#ffffff;gradientColor=none;shape=stencil(nZBLDoAgDERP0z3SIyjew0SURgSD+Lu9kMZoXLhwN9O+tukAlrNpJg1SzDH4QW/URgNYgZTkjA4UkwJUgGXng+6DX1zLfmoymdXo17xh5zmRJ6Q42BWCfc2oJfdAr+Yv+AP9Cb7OJ3H/2JG1HNGz/84klThPVCc=);strokeColor=#000000;spacingTop=-1;spacingBottom=-1;spacingLeft=-1;spacingRight=-1;points=[[0,0,0],[1,0,0],[1,1,0],[0,1,0]];labelBackgroundColor=none;rounded=0;html=1;whiteSpace=wrap;" vertex="1" parent="22">
          <mxGeometry y="716" width="104" height="24" as="geometry" />
        </mxCell>
        <mxCell id="26" value="&lt;div style=&quot;font-size: 1px&quot;&gt;&lt;p style=&quot;text-align:left;margin-left:0;margin-right:0;margin-top:0px;margin-bottom:0px;text-indent:0;vertical-align:middle;direction:ltr;&quot;&gt;&lt;font style=&quot;font-size:11.29px;font-family:Calibri;color:#000000;direction:ltr;letter-spacing:0px;line-height:120%;opacity:1&quot;&gt;NO.:&lt;br/&gt;&lt;/font&gt;&lt;/p&gt;&lt;/div&gt;" style="verticalAlign=middle;align=left;overflow=width;vsdxID=25;fillColor=#ffffff;gradientColor=none;shape=stencil(nZBLDoAgDERP0z3SIyjew0SURgSD+Lu9kMZoXLhwN9O+tukAlrNpJg1SzDH4QW/URgNYgZTkjA4UkwJUgGXng+6DX1zLfmoymdXo17xh5zmRJ6Q42BWCfc2oJfdAr+Yv+AP9Cb7OJ3H/2JG1HNGz/84klThPVCc=);strokeColor=#000000;spacingTop=-1;spacingBottom=-1;spacingLeft=-1;spacingRight=-1;points=[[0,0,0],[1,0,0],[1,1,0],[0,1,0]];labelBackgroundColor=none;rounded=0;html=1;whiteSpace=wrap;" vertex="1" parent="22">
          <mxGeometry x="984" y="716" width="104" height="24" as="geometry" />
        </mxCell>
        <mxCell id="27" value="&lt;div style=&quot;font-size: 1px&quot;&gt;&lt;p style=&quot;text-align:center;margin-left:0;margin-right:0;margin-top:0px;margin-bottom:0px;text-indent:0;vertical-align:middle;direction:ltr;&quot;&gt;&lt;font style=&quot;font-size:11.29px;font-family:Calibri;color:#000000;direction:ltr;letter-spacing:0px;line-height:120%;opacity:1&quot;&gt;&lt;br/&gt;&lt;/font&gt;&lt;/p&gt;&lt;/div&gt;" style="verticalAlign=middle;align=center;overflow=width;vsdxID=26;fillColor=none;gradientColor=none;strokeColor=none;spacingTop=-1;spacingBottom=-1;spacingLeft=-1;spacingRight=-1;points=[[0,0,0],[1,0,0],[1,1,0],[0,1,0]];labelBackgroundColor=none;rounded=0;html=1;whiteSpace=wrap;" vertex="1" parent="22">
          <mxGeometry x="1024" y="716" width="64" height="24" as="geometry" />
        </mxCell>
        <mxCell id="28" value="&lt;div style=&quot;font-size: 1px&quot;&gt;&lt;p style=&quot;text-align:center;margin-left:0;margin-right:0;margin-top:0px;margin-bottom:0px;text-indent:0;vertical-align:middle;direction:ltr;&quot;&gt;&lt;font style=&quot;font-size:11.29px;font-family:Calibri;color:#000000;direction:ltr;letter-spacing:0px;line-height:120%;opacity:1&quot;&gt;A2&lt;/font&gt;&lt;font style=&quot;font-size:11.29px;font-family:Calibri;color:#000000;direction:ltr;letter-spacing:0px;line-height:120%;opacity:1&quot;&gt;&lt;br/&gt;&lt;/font&gt;&lt;/p&gt;&lt;/div&gt;" style="verticalAlign=middle;align=center;overflow=width;vsdxID=27;fillColor=none;gradientColor=none;strokeColor=none;spacingTop=-1;spacingBottom=-1;spacingLeft=-1;spacingRight=-1;points=[[0,0,0],[1,0,0],[1,1,0],[0,1,0]];labelBackgroundColor=none;rounded=0;html=1;whiteSpace=wrap;" vertex="1" parent="22">
          <mxGeometry x="56" y="716" width="48" height="24" as="geometry" />
        </mxCell>
        <mxCell id="29" value="&lt;div style=&quot;font-size: 1px&quot;&gt;&lt;p style=&quot;text-align:center;margin-left:0;margin-right:0;margin-top:0px;margin-bottom:0px;text-indent:0;vertical-align:middle;direction:ltr;&quot;&gt;&lt;font style=&quot;font-size:11.29px;font-family:Calibri;color:#000000;direction:ltr;letter-spacing:0px;line-height:120%;opacity:1&quot;&gt;Intelligent System Architecture&lt;/font&gt;&lt;font style=&quot;font-size:11.29px;font-family:Calibri;color:#000000;direction:ltr;letter-spacing:0px;line-height:120%;opacity:1&quot;&gt;&lt;br/&gt;&lt;/font&gt;&lt;/p&gt;&lt;/div&gt;" style="verticalAlign=middle;align=center;overflow=width;vsdxID=28;fillColor=none;gradientColor=none;strokeColor=none;spacingTop=-1;spacingBottom=-1;spacingLeft=-1;spacingRight=-1;points=[[0,0,0],[1,0,0],[1,1,0],[0,1,0]];labelBackgroundColor=none;rounded=0;html=1;whiteSpace=wrap;" vertex="1" parent="22">
          <mxGeometry x="152" y="716" width="832" height="24" as="geometry" />
        </mxCell>
        <UserObject label="&lt;div style=&quot;font-size: 1px&quot;&gt;&lt;font style=&quot;font-size:14.11px;font-family:Calibri;color:#000000;direction:ltr;letter-spacing:0px;line-height:120%;opacity:1&quot;&gt;Labeled data&lt;/font&gt;&lt;font style=&quot;font-size:14.11px;font-family:Themed;color:#000000;direction:ltr;letter-spacing:0px;line-height:120%;opacity:1&quot;&gt;&lt;br/&gt;&lt;/font&gt;&lt;/div&gt;" tags="Фон" id="30">
          <mxCell style="verticalAlign=middle;align=left;overflow=width;vsdxID=67;fillColor=none;gradientColor=none;shape=stencil(nZBLDoAgDERP0z3SIyjew0SURgSD+Lu9kMZoXLhwN9O+tukAlrNpJg1SzDH4QW/URgNYgZTkjA4UkwJUgGXng+6DX1zLfmoymdXo17xh5zmRJ6Q42BWCfc2oJfdAr+Yv+AP9Cb7OJ3H/2JG1HNGz/84klThPVCc=);strokeColor=none;strokeWidth=2;spacingTop=-1;spacingBottom=-1;spacingLeft=-1;spacingRight=-1;points=[];labelBackgroundColor=none;rounded=0;html=1;whiteSpace=wrap;" vertex="1" parent="1">
            <mxGeometry x="106" y="212" width="108" height="30" as="geometry" />
          </mxCell>
        </UserObject>
        <UserObject label="&lt;div style=&quot;font-size: 1px&quot;&gt;&lt;font style=&quot;font-size:11.29px;font-family:Calibri;color:#000000;direction:ltr;letter-spacing:0px;line-height:120%;opacity:1&quot;&gt;K2 – Performance KPI (processing time, GPU/CPU)&lt;br/&gt;K3 – Accuracy score&lt;br/&gt;&lt;/font&gt;&lt;/div&gt;" tags="Фон" id="31">
          <mxCell style="verticalAlign=middle;align=left;overflow=width;vsdxID=69;fillColor=none;gradientColor=none;shape=stencil(nZBLDoAgDERP0z3SIyjew0SURgSD+Lu9kMZoXLhwN9O+tukAlrNpJg1SzDH4QW/URgNYgZTkjA4UkwJUgGXng+6DX1zLfmoymdXo17xh5zmRJ6Q42BWCfc2oJfdAr+Yv+AP9Cb7OJ3H/2JG1HNGz/84klThPVCc=);strokeColor=none;strokeWidth=2;spacingTop=-1;spacingBottom=-1;spacingLeft=-1;spacingRight=-1;points=[];labelBackgroundColor=none;rounded=0;html=1;whiteSpace=wrap;" vertex="1" parent="1">
            <mxGeometry x="769" y="120" width="261" height="30" as="geometry" />
          </mxCell>
        </UserObject>
        <UserObject label="&lt;div style=&quot;font-size: 1px&quot;&gt;&lt;font style=&quot;font-size:14.11px;font-family:Calibri;color:#000000;direction:ltr;letter-spacing:0px;line-height:120%;opacity:1&quot;&gt;Trained Intelligent System&lt;/font&gt;&lt;font style=&quot;font-size:14.11px;font-family:Themed;color:#000000;direction:ltr;letter-spacing:0px;line-height:120%;opacity:1&quot;&gt;&lt;br/&gt;&lt;/font&gt;&lt;/div&gt;" tags="Фон" id="32">
          <mxCell style="verticalAlign=middle;align=left;overflow=width;vsdxID=83;fillColor=none;gradientColor=none;shape=stencil(nZBLDoAgDERP0z3SIyjew0SURgSD+Lu9kMZoXLhwN9O+tukAlrNpJg1SzDH4QW/URgNYgZTkjA4UkwJUgGXng+6DX1zLfmoymdXo17xh5zmRJ6Q42BWCfc2oJfdAr+Yv+AP9Cb7OJ3H/2JG1HNGz/84klThPVCc=);strokeColor=none;strokeWidth=2;spacingTop=-1;spacingBottom=-1;spacingLeft=-1;spacingRight=-1;points=[];labelBackgroundColor=none;rounded=0;html=1;whiteSpace=wrap;" vertex="1" parent="1">
            <mxGeometry x="949" y="565" width="170" height="30" as="geometry" />
          </mxCell>
        </UserObject>
        <UserObject label="&lt;div style=&quot;font-size: 1px&quot;&gt;&lt;font style=&quot;font-size:14.11px;font-family:Calibri;color:#000000;direction:ltr;letter-spacing:0px;line-height:120%;opacity:1&quot;&gt;Prepared KB&lt;br/&gt;&lt;/font&gt;&lt;/div&gt;" tags="Фон" id="33">
          <mxCell style="verticalAlign=middle;align=left;overflow=width;vsdxID=103;fillColor=none;gradientColor=none;shape=stencil(nZBLDoAgDERP0z3SIyjew0SURgSD+Lu9kMZoXLhwN9O+tukAlrNpJg1SzDH4QW/URgNYgZTkjA4UkwJUgGXng+6DX1zLfmoymdXo17xh5zmRJ6Q42BWCfc2oJfdAr+Yv+AP9Cb7OJ3H/2JG1HNGz/84klThPVCc=);strokeColor=none;strokeWidth=2;spacingTop=-1;spacingBottom=-1;spacingLeft=-1;spacingRight=-1;points=[];labelBackgroundColor=none;rounded=0;html=1;whiteSpace=wrap;" vertex="1" parent="1">
            <mxGeometry x="310" y="320" width="90" height="30" as="geometry" />
          </mxCell>
        </UserObject>
        <UserObject label="" tags="Connector" id="70">
          <mxCell style="vsdxID=74;edgeStyle=none;startArrow=none;endArrow=block;startSize=5;endSize=5;strokeColor=#000000;spacingTop=0;spacingBottom=0;spacingLeft=0;spacingRight=0;verticalAlign=middle;html=1;labelBackgroundColor=#ffffff;rounded=1;" edge="1" parent="1">
            <mxGeometry relative="1" as="geometry">
              <Array as="points" />
              <mxPoint x="646" y="660" as="sourcePoint" />
              <mxPoint x="646" y="539" as="targetPoint" />
            </mxGeometry>
          </mxCell>
        </UserObject>
        <mxCell id="71" value="&lt;div style=&quot;font-size: 1px&quot;&gt;&lt;font style=&quot;font-size:11.29px;font-family:Calibri;color:#000000;direction:ltr;letter-spacing:0px;line-height:120%;opacity:1&quot;&gt;R2&lt;br/&gt;&lt;/font&gt;&lt;/div&gt;" style="text;vsdxID=74;edgeStyle=none;startArrow=none;endArrow=block;startSize=5;endSize=5;strokeColor=none;spacingTop=0;spacingBottom=0;spacingLeft=0;spacingRight=0;verticalAlign=middle;html=1;labelBackgroundColor=#ffffff;rounded=1;align=center;overflow=width;fillColor=none;gradientColor=none;whiteSpace=wrap;;html=1;;rotation=629.95" vertex="1" parent="70">
          <mxGeometry width="25.7" height="24.84" relative="1" as="geometry">
            <mxPoint x="47.15" y="-12.42" as="offset" />
          </mxGeometry>
        </mxCell>
        <UserObject label="&lt;div style=&quot;font-size: 1px&quot;&gt;&lt;font style=&quot;font-size:14.11px;font-family:Calibri;color:#000000;direction:ltr;letter-spacing:0px;line-height:120%;opacity:1&quot;&gt;Trained NN&lt;br/&gt;&lt;/font&gt;&lt;/div&gt;" tags="Фон" id="34">
          <mxCell style="verticalAlign=middle;align=left;overflow=width;vsdxID=104;fillColor=none;gradientColor=none;shape=stencil(nZBLDoAgDERP0z3SIyjew0SURgSD+Lu9kMZoXLhwN9O+tukAlrNpJg1SzDH4QW/URgNYgZTkjA4UkwJUgGXng+6DX1zLfmoymdXo17xh5zmRJ6Q42BWCfc2oJfdAr+Yv+AP9Cb7OJ3H/2JG1HNGz/84klThPVCc=);strokeColor=none;strokeWidth=2;spacingTop=-1;spacingBottom=-1;spacingLeft=-1;spacingRight=-1;points=[];labelBackgroundColor=none;rounded=0;html=1;whiteSpace=wrap;" vertex="1" parent="1">
            <mxGeometry x="549" y="360" width="90" height="30" as="geometry" />
          </mxCell>
        </UserObject>
        <UserObject label="&lt;div style=&quot;font-size: 1px&quot;&gt;&lt;font style=&quot;font-size:12.7px;font-family:Calibri;color:#000000;direction:ltr;letter-spacing:0px;line-height:120%;opacity:1&quot;&gt;Prepared Client-Server System&lt;br/&gt;&lt;/font&gt;&lt;/div&gt;" tags="Фон" id="35">
          <mxCell style="verticalAlign=middle;align=left;overflow=width;vsdxID=105;fillColor=none;gradientColor=none;shape=stencil(nZBLDoAgDERP0z3SIyjew0SURgSD+Lu9kMZoXLhwN9O+tukAlrNpJg1SzDH4QW/URgNYgZTkjA4UkwJUgGXng+6DX1zLfmoymdXo17xh5zmRJ6Q42BWCfc2oJfdAr+Yv+AP9Cb7OJ3H/2JG1HNGz/84klThPVCc=);strokeColor=none;strokeWidth=2;spacingTop=-1;spacingBottom=-1;spacingLeft=-1;spacingRight=-1;points=[];labelBackgroundColor=none;rounded=0;html=1;whiteSpace=wrap;" vertex="1" parent="1">
            <mxGeometry x="750" y="465" width="90" height="30" as="geometry" />
          </mxCell>
        </UserObject>
        <UserObject label="&lt;div style=&quot;font-size: 1px&quot;&gt;&lt;font style=&quot;font-size:11.29px;font-family:Calibri;color:#000000;direction:ltr;letter-spacing:0px;line-height:120%;opacity:1&quot;&gt;R1 – Client&lt;br/&gt;R2 – Server&lt;br/&gt;R3 – NN Algorithm&lt;br/&gt;R4 – Dataset for NN training&lt;br/&gt;R5 – Tools &amp;amp; Technologies for NN preparation&lt;br/&gt;R6 – Tools &amp;amp; Technologies for KB creation&lt;br/&gt;&lt;/font&gt;&lt;/div&gt;" tags="Фон" id="36">
          <mxCell style="verticalAlign=middle;align=left;overflow=width;vsdxID=118;fillColor=none;gradientColor=none;shape=stencil(nZBLDoAgDERP0z3SIyjew0SURgSD+Lu9kMZoXLhwN9O+tukAlrNpJg1SzDH4QW/URgNYgZTkjA4UkwJUgGXng+6DX1zLfmoymdXo17xh5zmRJ6Q42BWCfc2oJfdAr+Yv+AP9Cb7OJ3H/2JG1HNGz/84klThPVCc=);strokeColor=none;strokeWidth=2;spacingTop=-1;spacingBottom=-1;spacingLeft=-1;spacingRight=-1;points=[];labelBackgroundColor=none;rounded=0;html=1;whiteSpace=wrap;" vertex="1" parent="1">
            <mxGeometry x="140" y="552" width="261" height="96" as="geometry" />
          </mxCell>
        </UserObject>
        <mxCell id="37" vertex="1" parent="1">
          <mxGeometry x="910" y="730" as="geometry" />
        </mxCell>
        <UserObject label="&lt;div style=&quot;font-size: 1px&quot;&gt;&lt;font style=&quot;font-size:11.29px;font-family:Calibri;color:#000000;direction:ltr;letter-spacing:0px;line-height:120%;opacity:1&quot;&gt;R3&lt;br/&gt;&lt;/font&gt;&lt;/div&gt;" tags="Connector" id="38">
          <mxCell style="vsdxID=126;edgeStyle=none;startArrow=none;endArrow=block;startSize=5;endSize=5;strokeColor=#000000;spacingTop=0;spacingBottom=0;spacingLeft=0;spacingRight=0;verticalAlign=middle;html=1;labelBackgroundColor=#ffffff;rounded=0;align=center;entryX=0.75;entryY=1;entryDx=0;entryDy=0;entryPerimeter=0;" edge="1" parent="1" source="37" target="17">
            <mxGeometry relative="1" as="geometry">
              <mxPoint x="10" as="offset" />
              <Array as="points" />
            </mxGeometry>
          </mxCell>
        </UserObject>
        <mxCell id="39" vertex="1" parent="1">
          <mxGeometry x="850" y="730" as="geometry" />
        </mxCell>
        <UserObject label="&lt;div style=&quot;font-size: 1px&quot;&gt;&lt;font style=&quot;font-size:11.29px;font-family:Calibri;color:#000000;direction:ltr;letter-spacing:0px;line-height:120%;opacity:1&quot;&gt;R1&lt;br/&gt;&lt;/font&gt;&lt;/div&gt;" tags="Connector" id="40">
          <mxCell style="vsdxID=124;edgeStyle=none;startArrow=none;endArrow=block;startSize=5;endSize=5;strokeColor=#000000;spacingTop=0;spacingBottom=0;spacingLeft=0;spacingRight=0;verticalAlign=middle;html=1;labelBackgroundColor=#ffffff;rounded=0;align=center;entryX=0.25;entryY=1;entryDx=0;entryDy=0;entryPerimeter=0;" edge="1" parent="1" source="39" target="17">
            <mxGeometry relative="1" as="geometry">
              <mxPoint x="10" as="offset" />
              <Array as="points" />
            </mxGeometry>
          </mxCell>
        </UserObject>
        <mxCell id="41" vertex="1" parent="1">
          <mxGeometry x="880" y="730" as="geometry" />
        </mxCell>
        <UserObject label="&lt;div style=&quot;font-size: 1px&quot;&gt;&lt;font style=&quot;font-size:11.29px;font-family:Calibri;color:#000000;direction:ltr;letter-spacing:0px;line-height:120%;opacity:1&quot;&gt;R2&lt;br/&gt;&lt;/font&gt;&lt;/div&gt;" tags="Connector" id="42">
          <mxCell style="vsdxID=123;edgeStyle=none;startArrow=none;endArrow=block;startSize=5;endSize=5;strokeColor=#000000;spacingTop=0;spacingBottom=0;spacingLeft=0;spacingRight=0;verticalAlign=middle;html=1;labelBackgroundColor=#ffffff;rounded=0;align=center;entryX=0.5;entryY=1;entryDx=0;entryDy=0;entryPerimeter=0;" edge="1" parent="1" source="41" target="17">
            <mxGeometry relative="1" as="geometry">
              <mxPoint x="10" as="offset" />
              <Array as="points" />
            </mxGeometry>
          </mxCell>
        </UserObject>
        <mxCell id="43" vertex="1" parent="1">
          <mxGeometry x="300" y="100" as="geometry" />
        </mxCell>
        <UserObject label="&lt;div style=&quot;font-size: 1px&quot;&gt;&lt;font style=&quot;font-size:11.29px;font-family:Calibri;color:#000000;direction:ltr;letter-spacing:0px;line-height:120%;opacity:1&quot;&gt;K3&lt;br/&gt;&lt;/font&gt;&lt;/div&gt;" tags="Connector" id="44">
          <mxCell style="vsdxID=116;edgeStyle=none;startArrow=none;endArrow=block;startSize=5;endSize=5;strokeColor=#000000;spacingTop=0;spacingBottom=0;spacingLeft=0;spacingRight=0;verticalAlign=middle;html=1;labelBackgroundColor=#ffffff;rounded=0;align=center;entryX=0.5;entryY=0;entryDx=0;entryDy=0;entryPerimeter=0;" edge="1" parent="1" source="43" target="7">
            <mxGeometry relative="1" as="geometry">
              <mxPoint x="10" as="offset" />
              <Array as="points" />
            </mxGeometry>
          </mxCell>
        </UserObject>
        <mxCell id="45" vertex="1" parent="1">
          <mxGeometry x="850" y="664" as="geometry" />
        </mxCell>
        <UserObject label="" tags="Connector" id="46">
          <mxCell style="vsdxID=113;edgeStyle=none;startArrow=none;endArrow=block;startSize=5;endSize=5;strokeColor=#000000;spacingTop=0;spacingBottom=0;spacingLeft=0;spacingRight=0;verticalAlign=middle;html=1;labelBackgroundColor=#ffffff;rounded=0;entryX=0.875;entryY=1;entryDx=0;entryDy=0;entryPerimeter=0;" edge="1" parent="1" source="45" target="12">
            <mxGeometry relative="1" as="geometry">
              <mxPoint as="offset" />
              <Array as="points">
                <mxPoint x="717" y="664" />
              </Array>
            </mxGeometry>
          </mxCell>
        </UserObject>
        <UserObject label="" tags="Connector" id="47">
          <mxCell style="vsdxID=94;edgeStyle=none;startArrow=none;endArrow=block;startSize=5;endSize=5;strokeColor=#000000;spacingTop=-1;spacingBottom=-1;spacingLeft=-1;spacingRight=-1;verticalAlign=middle;html=1;labelBackgroundColor=#ffffff;rounded=1;exitX=1;exitY=0.5;exitDx=0;exitDy=0;exitPerimeter=0;entryX=0;entryY=0.5;entryDx=0;entryDy=0;entryPerimeter=0;" edge="1" parent="1" source="12" target="17">
            <mxGeometry relative="1" as="geometry">
              <Array as="points" />
            </mxGeometry>
          </mxCell>
        </UserObject>
        <UserObject label="" tags="Connector" id="48">
          <mxCell style="vsdxID=90;edgeStyle=none;startArrow=none;endArrow=block;startSize=5;endSize=5;strokeColor=#000000;spacingTop=-1;spacingBottom=-1;spacingLeft=-1;spacingRight=-1;verticalAlign=middle;html=1;labelBackgroundColor=#ffffff;rounded=1;exitX=1;exitY=0.5;exitDx=0;exitDy=0;exitPerimeter=0;entryX=0;entryY=0.5;entryDx=0;entryDy=0;entryPerimeter=0;" edge="1" parent="1" source="2" target="12">
            <mxGeometry relative="1" as="geometry">
              <Array as="points" />
            </mxGeometry>
          </mxCell>
        </UserObject>
        <UserObject label="" tags="Connector" id="49">
          <mxCell style="vsdxID=86;edgeStyle=none;startArrow=none;endArrow=block;startSize=5;endSize=5;strokeColor=#000000;spacingTop=-1;spacingBottom=-1;spacingLeft=-1;spacingRight=-1;verticalAlign=middle;html=1;labelBackgroundColor=#ffffff;rounded=1;exitX=1;exitY=0.5;exitDx=0;exitDy=0;exitPerimeter=0;entryX=0;entryY=0.5;entryDx=0;entryDy=0;entryPerimeter=0;" edge="1" parent="1" source="7" target="2">
            <mxGeometry relative="1" as="geometry">
              <Array as="points" />
            </mxGeometry>
          </mxCell>
        </UserObject>
        <mxCell id="50" vertex="1" parent="1">
          <mxGeometry x="1112" y="596" as="geometry" />
        </mxCell>
        <UserObject label="&lt;div style=&quot;font-size: 1px&quot;&gt;&lt;/div&gt;" tags="Connector" id="51">
          <mxCell style="vsdxID=82;edgeStyle=none;startArrow=none;endArrow=block;startSize=5;endSize=5;strokeColor=#000000;spacingTop=0;spacingBottom=0;spacingLeft=0;spacingRight=0;verticalAlign=middle;html=1;labelBackgroundColor=#ffffff;rounded=1;align=center;exitX=1;exitY=0.5;exitDx=0;exitDy=0;exitPerimeter=0;" edge="1" parent="1" source="17" target="50">
            <mxGeometry relative="1" as="geometry">
              <mxPoint as="offset" />
              <Array as="points" />
            </mxGeometry>
          </mxCell>
        </UserObject>
        <mxCell id="52" vertex="1" parent="1">
          <mxGeometry x="672" y="420" as="geometry" />
        </mxCell>
        <UserObject label="" tags="Connector" id="53">
          <mxCell style="vsdxID=33;edgeStyle=none;startArrow=none;endArrow=block;startSize=5;endSize=5;strokeColor=#000000;spacingTop=0;spacingBottom=0;spacingLeft=0;spacingRight=0;verticalAlign=middle;html=1;labelBackgroundColor=#ffffff;rounded=0;entryX=0.5;entryY=0;entryDx=0;entryDy=0;entryPerimeter=0;" edge="1" parent="1" source="52" target="17">
            <mxGeometry relative="1" as="geometry">
              <mxPoint as="offset" />
              <Array as="points">
                <mxPoint x="880" y="420" />
              </Array>
            </mxGeometry>
          </mxCell>
        </UserObject>
        <mxCell id="54" vertex="1" parent="1">
          <mxGeometry x="100" y="252" as="geometry" />
        </mxCell>
        <UserObject label="&lt;div style=&quot;font-size: 1px&quot;&gt;&lt;/div&gt;" tags="Connector" id="55">
          <mxCell style="vsdxID=66;edgeStyle=none;startArrow=none;endArrow=block;startSize=5;endSize=5;strokeColor=#000000;spacingTop=0;spacingBottom=0;spacingLeft=0;spacingRight=0;verticalAlign=middle;html=1;labelBackgroundColor=#ffffff;rounded=1;align=center;entryX=0;entryY=0.5;entryDx=0;entryDy=0;entryPerimeter=0;" edge="1" parent="1" source="54" target="7">
            <mxGeometry relative="1" as="geometry">
              <mxPoint as="offset" />
              <Array as="points" />
            </mxGeometry>
          </mxCell>
        </UserObject>
        <mxCell id="56" vertex="1" parent="1">
          <mxGeometry x="672" y="340" as="geometry" />
        </mxCell>
        <UserObject label="&lt;div style=&quot;font-size: 1px&quot;&gt;&lt;font style=&quot;font-size:11.29px;font-family:Calibri;color:#000000;direction:ltr;letter-spacing:0px;line-height:120%;opacity:1&quot;&gt;K2&lt;br/&gt;&lt;/font&gt;&lt;/div&gt;" tags="Connector" id="57">
          <mxCell style="vsdxID=71;edgeStyle=none;startArrow=none;endArrow=block;startSize=5;endSize=5;strokeColor=#000000;spacingTop=0;spacingBottom=0;spacingLeft=0;spacingRight=0;verticalAlign=middle;html=1;labelBackgroundColor=#ffffff;rounded=0;align=center;entryX=0.5;entryY=0;entryDx=0;entryDy=0;entryPerimeter=0;" edge="1" parent="1" source="56" target="12">
            <mxGeometry relative="1" as="geometry">
              <mxPoint x="10" as="offset" />
              <Array as="points" />
            </mxGeometry>
          </mxCell>
        </UserObject>
        <mxCell id="58" vertex="1" parent="1">
          <mxGeometry x="627" y="660" as="geometry" />
        </mxCell>
        <UserObject label="" tags="Connector" id="59">
          <mxCell style="vsdxID=72;edgeStyle=none;startArrow=none;endArrow=block;startSize=5;endSize=5;strokeColor=#000000;spacingTop=0;spacingBottom=0;spacingLeft=0;spacingRight=0;verticalAlign=middle;html=1;labelBackgroundColor=#ffffff;rounded=1;entryX=0.125;entryY=1;entryDx=0;entryDy=0;entryPerimeter=0;" edge="1" parent="1" source="58" target="12">
            <mxGeometry relative="1" as="geometry">
              <Array as="points" />
            </mxGeometry>
          </mxCell>
        </UserObject>
        <mxCell id="60" value="&lt;div style=&quot;font-size: 1px&quot;&gt;&lt;font style=&quot;font-size:11.29px;font-family:Calibri;color:#000000;direction:ltr;letter-spacing:0px;line-height:120%;opacity:1&quot;&gt;R1&lt;br/&gt;&lt;/font&gt;&lt;/div&gt;" style="text;vsdxID=72;edgeStyle=none;startArrow=none;endArrow=block;startSize=5;endSize=5;strokeColor=none;spacingTop=0;spacingBottom=0;spacingLeft=0;spacingRight=0;verticalAlign=middle;html=1;labelBackgroundColor=#ffffff;rounded=1;align=center;overflow=width;fillColor=none;gradientColor=none;whiteSpace=wrap;;html=1;;rotation=629.95" vertex="1" parent="59">
          <mxGeometry width="25.7" height="24.84" relative="1" as="geometry">
            <mxPoint x="47.15" y="-12.42" as="offset" />
          </mxGeometry>
        </mxCell>
        <mxCell id="61" vertex="1" parent="1">
          <mxGeometry x="880" y="704" as="geometry" />
        </mxCell>
        <UserObject label="" tags="Connector" id="62">
          <mxCell style="vsdxID=78;edgeStyle=none;startArrow=none;endArrow=block;startSize=5;endSize=5;strokeColor=#000000;spacingTop=0;spacingBottom=0;spacingLeft=0;spacingRight=0;verticalAlign=middle;html=1;labelBackgroundColor=#ffffff;rounded=0;entryX=0.75;entryY=1;entryDx=0;entryDy=0;entryPerimeter=0;jumpStyle=arc;" edge="1" parent="1" source="61" target="12">
            <mxGeometry relative="1" as="geometry">
              <mxPoint x="-1" as="offset" />
              <Array as="points">
                <mxPoint x="856.67" y="704" />
                <mxPoint x="702" y="704" />
              </Array>
            </mxGeometry>
          </mxCell>
        </UserObject>
        <mxCell id="63" vertex="1" parent="1">
          <mxGeometry x="910" y="720" as="geometry" />
        </mxCell>
        <UserObject label="" tags="Connector" id="64">
          <mxCell style="vsdxID=79;edgeStyle=none;startArrow=none;endArrow=block;startSize=5;endSize=5;strokeColor=#000000;spacingTop=0;spacingBottom=0;spacingLeft=0;spacingRight=0;verticalAlign=middle;html=1;labelBackgroundColor=#ffffff;rounded=0;entryX=0.5;entryY=1;entryDx=0;entryDy=0;entryPerimeter=0;jumpStyle=arc;" edge="1" parent="1" source="63" target="2">
            <mxGeometry relative="1" as="geometry">
              <mxPoint as="offset" />
              <Array as="points">
                <mxPoint x="886.67" y="720" />
                <mxPoint x="856.67" y="720" />
                <mxPoint x="476" y="720" />
              </Array>
            </mxGeometry>
          </mxCell>
        </UserObject>
        <mxCell id="65" vertex="1" parent="1">
          <mxGeometry x="285" y="412" as="geometry" />
        </mxCell>
        <UserObject label="" tags="Connector" id="66">
          <mxCell style="vsdxID=81;edgeStyle=none;startArrow=none;endArrow=block;startSize=5;endSize=5;strokeColor=#000000;spacingTop=0;spacingBottom=0;spacingLeft=0;spacingRight=0;verticalAlign=middle;html=1;labelBackgroundColor=#ffffff;rounded=1;entryX=0.375;entryY=1;entryDx=0;entryDy=0;entryPerimeter=0;" edge="1" parent="1" source="65" target="7">
            <mxGeometry relative="1" as="geometry">
              <Array as="points" />
            </mxGeometry>
          </mxCell>
        </UserObject>
        <mxCell id="67" value="&lt;div style=&quot;font-size: 1px&quot;&gt;&lt;font style=&quot;font-size:11.29px;font-family:Calibri;color:#000000;direction:ltr;letter-spacing:0px;line-height:120%;opacity:1&quot;&gt;R6&lt;br/&gt;&lt;/font&gt;&lt;/div&gt;" style="text;vsdxID=81;edgeStyle=none;startArrow=none;endArrow=block;startSize=5;endSize=5;strokeColor=none;spacingTop=0;spacingBottom=0;spacingLeft=0;spacingRight=0;verticalAlign=middle;html=1;labelBackgroundColor=#ffffff;rounded=1;align=center;overflow=width;fillColor=none;gradientColor=none;whiteSpace=wrap;;html=1;;rotation=629.95" vertex="1" parent="66">
          <mxGeometry width="25.7" height="24.84" relative="1" as="geometry">
            <mxPoint x="47.15" y="-12.42" as="offset" />
          </mxGeometry>
        </mxCell>
        <mxCell id="68" vertex="1" parent="1">
          <mxGeometry x="300" y="176" as="geometry" />
        </mxCell>
        <UserObject label="" tags="Connector" id="69">
          <mxCell style="vsdxID=70;edgeStyle=none;startArrow=none;endArrow=block;startSize=5;endSize=5;strokeColor=#000000;spacingTop=0;spacingBottom=0;spacingLeft=0;spacingRight=0;verticalAlign=middle;html=1;labelBackgroundColor=#ffffff;rounded=0;entryX=0.5;entryY=0;entryDx=0;entryDy=0;entryPerimeter=0;" edge="1" parent="1" source="68" target="2">
            <mxGeometry relative="1" as="geometry">
              <mxPoint x="-1" as="offset" />
              <Array as="points">
                <mxPoint x="476" y="176" />
              </Array>
            </mxGeometry>
          </mxCell>
        </UserObject>
        <UserObject label="" tags="Connector Container Connector Connector Connector" id="72">
          <mxCell vertex="1" parent="1" visible="0">
            <mxGeometry as="geometry" />
          </mxCell>
        </UserObject>
      </root>
    </mxGraphModel>
  </diagram>
</mxfile>
